STARTFONT 2.1
FONT -sun-gallant-medium-r-normal--22-220-75-75-C-120-ISO10646-1
SIZE 22 75 75
FONTBOUNDINGBOX 22 12 0 -5
STARTPROPERTIES 18
FONTNAME_REGISTRY ""
FOUNDRY "Sun"
FAMILY_NAME "Gallant"
WEIGHT_NAME "Medium"
SLANT "R"
SETWIDTH_NAME "Normal"
ADD_STYLE_NAME ""
PIXEL_SIZE 22
POINT_SIZE 220
RESOLUTION_X 75
RESOLUTION_Y 75
SPACING "C"
AVERAGE_WIDTH 120
CHARSET_REGISTRY "ISO10646"
CHARSET_ENCODING "1"
FONT_ASCENT 17
FONT_DESCENT 5
DEFAULT_CHAR 65533
ENDPROPERTIES
CHARS 4591
STARTCHAR U0000
ENCODING 0
SWIDTH 500 0
DWIDTH 12 0
BBX 12 22 0 -5
BITMAP
0000
0000
7fe0
7fe0
7fe0
7fe0
7fe0
7fe0
7fe0
7fe0
7fe0
7fe0
7fe0
7fe0
7fe0
7fe0
7fe0
0000
0000
0000
0000
0000
ENDCHAR
STARTCHAR U0001
ENCODING 1
SWIDTH 500 0
DWIDTH 12 0
BBX 12 22 0 -5
BITMAP
0000
0000
0000
0000
0000
0000
0000
0600
0f00
1f80
3fc0
7fe0
7fe0
3fc0
1f80
0f00
0600
0000
0000
0000
0000
0000
ENDCHAR
STARTCHAR U0002
ENCODING 2
SWIDTH 500 0
DWIDTH 12 0
BBX 12 22 0 -5
BITMAP
0000
0000
0000
0000
0000
0000
5540
2aa0
5540
2aa0
5540
2aa0
5540
2aa0
5540
2aa0
5540
0000
0000
0000
0000
0000
ENDCHAR
STARTCHAR U0003
ENCODING 3
SWIDTH 500 0
DWIDTH 12 0
BBX 12 22 0 -5
BITMAP
0000
0000
0000
0000
0000
4400
4400
4400
7c00
4400
4400
4400
03e0
0080
0080
0080
0080
0080
0080
0000
0000
0000
ENDCHAR
STARTCHAR U0004
ENCODING 4
SWIDTH 500 0
DWIDTH 12 0
BBX 12 22 0 -5
BITMAP
0000
0000
0000
0000
0000
7c00
4000
4000
7800
4000
4000
4000
03e0
0200
0200
03c0
0200
0200
0200
0000
0000
0000
ENDCHAR
STARTCHAR U0005
ENCODING 5
SWIDTH 500 0
DWIDTH 12 0
BBX 12 22 0 -5
BITMAP
0000
0000
0000
0000
0000
3800
4400
4000
4000
4000
4400
3800
03c0
0220
0220
03c0
0280
0240
0220
0000
0000
0000
ENDCHAR
STARTCHAR U0006
ENCODING 6
SWIDTH 500 0
DWIDTH 12 0
BBX 12 22 0 -5
BITMAP
0000
0000
0000
0000
0000
4000
4000
4000
4000
4000
4000
7c00
03e0
0200
0200
03c0
0200
0200
0200
0000
0000
0000
ENDCHAR
STARTCHAR U0007
ENCODING 7
SWIDTH 500 0
DWIDTH 12 0
BBX 12 22 0 -5
BITMAP
0000
0000
0e00
1700
2380
6180
6180
7100
3a00
1c00
0000
0000
0000
0000
0000
0000
0000
0000
0000
0000
0000
0000
ENDCHAR
STARTCHAR U0008
ENCODING 8
SWIDTH 500 0
DWIDTH 12 0
BBX 12 22 0 -5
BITMAP
0000
0000
0000
0000
0000
0600
0600
0600
0600
7fe0
7fe0
0600
0600
0600
0600
0000
7fe0
7fe0
0000
0000
0000
0000
ENDCHAR
STARTCHAR U0009
ENCODING 9
SWIDTH 500 0
DWIDTH 12 0
BBX 12 22 0 -5
BITMAP
0000
0000
0000
0000
0000
4400
6400
6400
5400
4c00
4c00
4400
0200
0200
0200
0200
0200
0200
03e0
0000
0000
0000
ENDCHAR
STARTCHAR U000a
ENCODING 10
SWIDTH 500 0
DWIDTH 12 0
BBX 12 22 0 -5
BITMAP
0000
0000
0000
0000
0000
4400
4400
4400
2800
2800
1000
1000
03e0
0080
0080
0080
0080
0080
0080
0000
0000
0000
ENDCHAR
STARTCHAR U000b
ENCODING 11
SWIDTH 500 0
DWIDTH 12 0
BBX 12 22 0 -5
BITMAP
0600
0600
0600
0600
0600
0600
0600
0600
0600
0600
fe00
fe00
0000
0000
0000
0000
0000
0000
0000
0000
0000
0000
ENDCHAR
STARTCHAR U000c
ENCODING 12
SWIDTH 500 0
DWIDTH 12 0
BBX 12 22 0 -5
BITMAP
0000
0000
0000
0000
0000
0000
0000
0000
0000
0000
fe00
fe00
0600
0600
0600
0600
0600
0600
0600
0600
0600
0600
ENDCHAR
STARTCHAR U000d
ENCODING 13
SWIDTH 500 0
DWIDTH 12 0
BBX 12 22 0 -5
BITMAP
0000
0000
0000
0000
0000
0000
0000
0000
0000
0000
07f0
07f0
0600
0600
0600
0600
0600
0600
0600
0600
0600
0600
ENDCHAR
STARTCHAR U000e
ENCODING 14
SWIDTH 500 0
DWIDTH 12 0
BBX 12 22 0 -5
BITMAP
0600
0600
0600
0600
0600
0600
0600
0600
0600
0600
07f0
07f0
0000
0000
0000
0000
0000
0000
0000
0000
0000
0000
ENDCHAR
STARTCHAR U000f
ENCODING 15
SWIDTH 500 0
DWIDTH 12 0
BBX 12 22 0 -5
BITMAP
0600
0600
0600
0600
0600
0600
0600
0600
0600
0600
fff0
fff0
0600
0600
0600
0600
0600
0600
0600
0600
0600
0600
ENDCHAR
STARTCHAR U0010
ENCODING 16
SWIDTH 500 0
DWIDTH 12 0
BBX 12 22 0 -5
BITMAP
0000
fff0
fff0
0000
0000
0000
0000
0000
0000
0000
0000
0000
0000
0000
0000
0000
0000
0000
0000
0000
0000
0000
ENDCHAR
STARTCHAR U0011
ENCODING 17
SWIDTH 500 0
DWIDTH 12 0
BBX 12 22 0 -5
BITMAP
0000
0000
0000
0000
0000
0000
fff0
fff0
0000
0000
0000
0000
0000
0000
0000
0000
0000
0000
0000
0000
0000
0000
ENDCHAR
STARTCHAR U0012
ENCODING 18
SWIDTH 500 0
DWIDTH 12 0
BBX 12 22 0 -5
BITMAP
0000
0000
0000
0000
0000
0000
0000
0000
0000
0000
fff0
fff0
0000
0000
0000
0000
0000
0000
0000
0000
0000
0000
ENDCHAR
STARTCHAR U0013
ENCODING 19
SWIDTH 500 0
DWIDTH 12 0
BBX 12 22 0 -5
BITMAP
0000
0000
0000
0000
0000
0000
0000
0000
0000
0000
0000
0000
0000
0000
fff0
fff0
0000
0000
0000
0000
0000
0000
ENDCHAR
STARTCHAR U0014
ENCODING 20
SWIDTH 500 0
DWIDTH 12 0
BBX 12 22 0 -5
BITMAP
0000
0000
0000
0000
0000
0000
0000
0000
0000
0000
0000
0000
0000
0000
0000
0000
0000
0000
0000
fff0
fff0
0000
ENDCHAR
STARTCHAR U0015
ENCODING 21
SWIDTH 500 0
DWIDTH 12 0
BBX 12 22 0 -5
BITMAP
0600
0600
0600
0600
0600
0600
0600
0600
0600
0600
07f0
07f0
0600
0600
0600
0600
0600
0600
0600
0600
0600
0600
ENDCHAR
STARTCHAR U0016
ENCODING 22
SWIDTH 500 0
DWIDTH 12 0
BBX 12 22 0 -5
BITMAP
0600
0600
0600
0600
0600
0600
0600
0600
0600
0600
fe00
fe00
0600
0600
0600
0600
0600
0600
0600
0600
0600
0600
ENDCHAR
STARTCHAR U0017
ENCODING 23
SWIDTH 500 0
DWIDTH 12 0
BBX 12 22 0 -5
BITMAP
0600
0600
0600
0600
0600
0600
0600
0600
0600
0600
fff0
fff0
0000
0000
0000
0000
0000
0000
0000
0000
0000
0000
ENDCHAR
STARTCHAR U0018
ENCODING 24
SWIDTH 500 0
DWIDTH 12 0
BBX 12 22 0 -5
BITMAP
0000
0000
0000
0000
0000
0000
0000
0000
0000
0000
fff0
fff0
0600
0600
0600
0600
0600
0600
0600
0600
0600
0600
ENDCHAR
STARTCHAR U0019
ENCODING 25
SWIDTH 500 0
DWIDTH 12 0
BBX 12 22 0 -5
BITMAP
0600
0600
0600
0600
0600
0600
0600
0600
0600
0600
0600
0600
0600
0600
0600
0600
0600
0600
0600
0600
0600
0600
ENDCHAR
STARTCHAR U001a
ENCODING 26
SWIDTH 500 0
DWIDTH 12 0
BBX 12 22 0 -5
BITMAP
0000
0000
0000
0000
0000
0000
00e0
0780
1e00
7800
7800
1e00
0780
00e0
0000
7fe0
7fe0
0000
0000
0000
0000
0000
ENDCHAR
STARTCHAR U001b
ENCODING 27
SWIDTH 500 0
DWIDTH 12 0
BBX 12 22 0 -5
BITMAP
0000
0000
0000
0000
0000
0000
7000
1e00
0780
01e0
01e0
0780
1e00
7000
0000
7fe0
7fe0
0000
0000
0000
0000
0000
ENDCHAR
STARTCHAR U001c
ENCODING 28
SWIDTH 500 0
DWIDTH 12 0
BBX 12 22 0 -5
BITMAP
0000
0000
0000
0000
0000
0000
0000
3fe0
7fc0
1980
1980
1980
1980
3180
3180
31c0
60c0
0000
0000
0000
0000
0000
ENDCHAR
STARTCHAR U001d
ENCODING 29
SWIDTH 500 0
DWIDTH 12 0
BBX 12 22 0 -5
BITMAP
0000
0000
0000
0000
0000
0000
0040
00c0
0180
7fc0
7fc0
0600
0c00
7fc0
7fc0
3000
6000
4000
0000
0000
0000
0000
ENDCHAR
STARTCHAR U001e
ENCODING 30
SWIDTH 500 0
DWIDTH 12 0
BBX 12 22 0 -5
BITMAP
0000
0600
0c00
1000
1000
3000
3000
3000
3e00
7c00
1800
1800
1800
1800
3f20
3fe0
31c0
0000
0000
0000
0000
0000
ENDCHAR
STARTCHAR U001f
ENCODING 31
SWIDTH 500 0
DWIDTH 12 0
BBX 12 22 0 -5
BITMAP
0000
0000
0000
0000
0000
0000
0000
0000
0000
0000
0000
0600
0600
0000
0000
0000
0000
0000
0000
0000
0000
0000
ENDCHAR
STARTCHAR U0020
ENCODING 32
SWIDTH 500 0
DWIDTH 12 0
BBX 12 22 0 -5
BITMAP
0000
0000
0000
0000
0000
0000
0000
0000
0000
0000
0000
0000
0000
0000
0000
0000
0000
0000
0000
0000
0000
0000
ENDCHAR
STARTCHAR U0021
ENCODING 33
SWIDTH 500 0
DWIDTH 12 0
BBX 12 22 0 -5
BITMAP
0000
0000
0600
0600
0600
0600
0600
0600
0600
0600
0600
0600
0600
0000
0000
0600
0600
0000
0000
0000
0000
0000
ENDCHAR
STARTCHAR U0022
ENCODING 34
SWIDTH 500 0
DWIDTH 12 0
BBX 12 22 0 -5
BITMAP
0000
0000
1980
1980
1980
1980
1980
1980
0000
0000
0000
0000
0000
0000
0000
0000
0000
0000
0000
0000
0000
0000
ENDCHAR
STARTCHAR U0023
ENCODING 35
SWIDTH 500 0
DWIDTH 12 0
BBX 12 22 0 -5
BITMAP
0000
0000
0330
0330
0330
0660
1ff0
1ff0
0cc0
0cc0
1980
1980
7fc0
7fc0
3300
6600
6600
0000
0000
0000
0000
0000
ENDCHAR
STARTCHAR U0024
ENCODING 36
SWIDTH 500 0
DWIDTH 12 0
BBX 12 22 0 -5
BITMAP
0000
0000
0600
1f80
3fc0
66e0
6660
6600
3e00
1f80
07c0
0660
0660
6660
7fc0
3f80
0600
0000
0000
0000
0000
0000
ENDCHAR
STARTCHAR U0025
ENCODING 37
SWIDTH 500 0
DWIDTH 12 0
BBX 12 22 0 -5
BITMAP
0000
0000
3860
44c0
44c0
4580
3980
0300
0300
0600
0c00
0c00
19c0
1a20
3220
3220
61c0
0000
0000
0000
0000
0000
ENDCHAR
STARTCHAR U0026
ENCODING 38
SWIDTH 500 0
DWIDTH 12 0
BBX 12 22 0 -5
BITMAP
0000
0000
0700
0f80
18c0
18c0
18c0
0f80
1e00
3e00
7700
6360
61e0
61c0
6180
3fe0
1e60
0000
0000
0000
0000
0000
ENDCHAR
STARTCHAR U0027
ENCODING 39
SWIDTH 500 0
DWIDTH 12 0
BBX 12 22 0 -5
BITMAP
0000
0000
0c00
1e00
1e00
0600
0600
0c00
1800
1000
0000
0000
0000
0000
0000
0000
0000
0000
0000
0000
0000
0000
ENDCHAR
STARTCHAR U0028
ENCODING 40
SWIDTH 500 0
DWIDTH 12 0
BBX 12 22 0 -5
BITMAP
0000
0000
00c0
0180
0380
0300
0700
0600
0600
0600
0600
0600
0700
0300
0380
0180
00c0
0000
0000
0000
0000
0000
ENDCHAR
STARTCHAR U0029
ENCODING 41
SWIDTH 500 0
DWIDTH 12 0
BBX 12 22 0 -5
BITMAP
0000
0000
3000
1800
1c00
0c00
0e00
0600
0600
0600
0600
0600
0e00
0c00
1c00
1800
3000
0000
0000
0000
0000
0000
ENDCHAR
STARTCHAR U002a
ENCODING 42
SWIDTH 500 0
DWIDTH 12 0
BBX 12 22 0 -5
BITMAP
0000
0000
0000
0000
0000
0000
0f00
0600
6660
76e0
1980
0000
1980
76e0
6660
0600
0f00
0000
0000
0000
0000
0000
ENDCHAR
STARTCHAR U002b
ENCODING 43
SWIDTH 500 0
DWIDTH 12 0
BBX 12 22 0 -5
BITMAP
0000
0000
0000
0000
0000
0000
0000
0600
0600
0600
0600
7fe0
7fe0
0600
0600
0600
0600
0000
0000
0000
0000
0000
ENDCHAR
STARTCHAR U002c
ENCODING 44
SWIDTH 500 0
DWIDTH 12 0
BBX 12 22 0 -5
BITMAP
0000
0000
0000
0000
0000
0000
0000
0000
0000
0000
0000
0000
0000
0000
0c00
1e00
1e00
0600
0600
0c00
1800
1000
ENDCHAR
STARTCHAR U002d
ENCODING 45
SWIDTH 500 0
DWIDTH 12 0
BBX 12 22 0 -5
BITMAP
0000
0000
0000
0000
0000
0000
0000
0000
0000
0000
0000
7fe0
7fe0
0000
0000
0000
0000
0000
0000
0000
0000
0000
ENDCHAR
STARTCHAR U002e
ENCODING 46
SWIDTH 500 0
DWIDTH 12 0
BBX 12 22 0 -5
BITMAP
0000
0000
0000
0000
0000
0000
0000
0000
0000
0000
0000
0000
0000
0c00
1e00
1e00
0c00
0000
0000
0000
0000
0000
ENDCHAR
STARTCHAR U002f
ENCODING 47
SWIDTH 500 0
DWIDTH 12 0
BBX 12 22 0 -5
BITMAP
0000
0000
0060
00c0
00c0
0180
0180
0300
0300
0600
0c00
0c00
1800
1800
3000
3000
6000
0000
0000
0000
0000
0000
ENDCHAR
STARTCHAR U0030
ENCODING 48
SWIDTH 500 0
DWIDTH 12 0
BBX 12 22 0 -5
BITMAP
0000
0000
0700
0f80
1180
10c0
30c0
30c0
30c0
30c0
30c0
30c0
30c0
3080
1880
1f00
0e00
0000
0000
0000
0000
0000
ENDCHAR
STARTCHAR U0031
ENCODING 49
SWIDTH 500 0
DWIDTH 12 0
BBX 12 22 0 -5
BITMAP
0000
0000
0200
0600
0e00
1e00
3600
0600
0600
0600
0600
0600
0600
0600
0600
0600
3fc0
0000
0000
0000
0000
0000
ENDCHAR
STARTCHAR U0032
ENCODING 50
SWIDTH 500 0
DWIDTH 12 0
BBX 12 22 0 -5
BITMAP
0000
0000
1f00
3f80
61c0
40c0
00c0
00c0
00c0
0180
0300
0600
0c00
1800
3020
7fe0
7fe0
0000
0000
0000
0000
0000
ENDCHAR
STARTCHAR U0033
ENCODING 51
SWIDTH 500 0
DWIDTH 12 0
BBX 12 22 0 -5
BITMAP
0000
0000
0f80
1fc0
20e0
4060
0060
00e0
07c0
0fc0
00e0
0060
0060
4060
6040
3f80
1f00
0000
0000
0000
0000
0000
ENDCHAR
STARTCHAR U0034
ENCODING 52
SWIDTH 500 0
DWIDTH 12 0
BBX 12 22 0 -5
BITMAP
0000
0000
0180
0380
0380
0580
0580
0980
0980
1180
1180
2180
3fe0
7fe0
0180
0180
0180
0000
0000
0000
0000
0000
ENDCHAR
STARTCHAR U0035
ENCODING 53
SWIDTH 500 0
DWIDTH 12 0
BBX 12 22 0 -5
BITMAP
0000
0000
0fc0
0fc0
1000
1000
2000
3f80
31c0
00e0
0060
0060
0060
4060
6060
30c0
1f80
0000
0000
0000
0000
0000
ENDCHAR
STARTCHAR U0036
ENCODING 54
SWIDTH 500 0
DWIDTH 12 0
BBX 12 22 0 -5
BITMAP
0000
0000
0700
0c00
1800
3000
3000
6000
6780
6fc0
70e0
6060
6060
6060
7040
3f80
1f00
0000
0000
0000
0000
0000
ENDCHAR
STARTCHAR U0037
ENCODING 55
SWIDTH 500 0
DWIDTH 12 0
BBX 12 22 0 -5
BITMAP
0000
0000
1fe0
3fe0
6040
0040
00c0
0080
0080
0180
0100
0100
0300
0200
0200
0600
0400
0000
0000
0000
0000
0000
ENDCHAR
STARTCHAR U0038
ENCODING 56
SWIDTH 500 0
DWIDTH 12 0
BBX 12 22 0 -5
BITMAP
0000
0000
0f00
1180
30c0
30c0
30c0
1880
0d00
0600
0b00
1180
30c0
30c0
30c0
1880
0f00
0000
0000
0000
0000
0000
ENDCHAR
STARTCHAR U0039
ENCODING 57
SWIDTH 500 0
DWIDTH 12 0
BBX 12 22 0 -5
BITMAP
0000
0000
0f80
11c0
20e0
6060
6060
6060
70e0
3f60
1e60
0060
00c0
00c0
0180
0700
3c00
0000
0000
0000
0000
0000
ENDCHAR
STARTCHAR U003a
ENCODING 58
SWIDTH 500 0
DWIDTH 12 0
BBX 12 22 0 -5
BITMAP
0000
0000
0000
0000
0000
0000
0000
0c00
1e00
1e00
0c00
0000
0000
0c00
1e00
1e00
0c00
0000
0000
0000
0000
0000
ENDCHAR
STARTCHAR U003b
ENCODING 59
SWIDTH 500 0
DWIDTH 12 0
BBX 12 22 0 -5
BITMAP
0000
0000
0000
0000
0000
0000
0000
0000
0c00
1e00
1e00
0c00
0000
0000
0c00
1e00
1e00
0600
0600
0c00
1800
1000
ENDCHAR
STARTCHAR U003c
ENCODING 60
SWIDTH 500 0
DWIDTH 12 0
BBX 12 22 0 -5
BITMAP
0000
0000
0000
0000
0000
0000
0000
0060
01c0
0700
1e00
7800
7800
1e00
0700
01c0
0060
0000
0000
0000
0000
0000
ENDCHAR
STARTCHAR U003d
ENCODING 61
SWIDTH 500 0
DWIDTH 12 0
BBX 12 22 0 -5
BITMAP
0000
0000
0000
0000
0000
0000
0000
0000
0000
7fc0
7fc0
0000
0000
7fc0
7fc0
0000
0000
0000
0000
0000
0000
0000
ENDCHAR
STARTCHAR U003e
ENCODING 62
SWIDTH 500 0
DWIDTH 12 0
BBX 12 22 0 -5
BITMAP
0000
0000
0000
0000
0000
0000
0000
6000
3800
1e00
0780
01e0
01e0
0780
1e00
3800
6000
0000
0000
0000
0000
0000
ENDCHAR
STARTCHAR U003f
ENCODING 63
SWIDTH 500 0
DWIDTH 12 0
BBX 12 22 0 -5
BITMAP
0000
0000
0f00
1f80
39c0
20c0
00c0
00c0
0180
0300
0600
0c00
0c00
0000
0000
0c00
0c00
0000
0000
0000
0000
0000
ENDCHAR
STARTCHAR U0040
ENCODING 64
SWIDTH 500 0
DWIDTH 12 0
BBX 12 22 0 -5
BITMAP
0000
0000
0000
0000
0000
0f80
3fc0
3060
6060
6720
6fa0
6ca0
6ca0
67e0
6000
3000
3fe0
0fe0
0000
0000
0000
0000
ENDCHAR
STARTCHAR U0041
ENCODING 65
SWIDTH 500 0
DWIDTH 12 0
BBX 12 22 0 -5
BITMAP
0000
0000
0000
0600
0600
0b00
0b00
0900
1180
1180
1080
3fc0
20c0
2040
4060
4060
e0f0
0000
0000
0000
0000
0000
ENDCHAR
STARTCHAR U0042
ENCODING 66
SWIDTH 500 0
DWIDTH 12 0
BBX 12 22 0 -5
BITMAP
0000
0000
0000
ff00
6080
60c0
60c0
60c0
6180
7f80
60c0
6060
6060
6060
6060
60c0
ff80
0000
0000
0000
0000
0000
ENDCHAR
STARTCHAR U0043
ENCODING 67
SWIDTH 500 0
DWIDTH 12 0
BBX 12 22 0 -5
BITMAP
0000
0000
0000
0fc0
1060
2020
2000
6000
6000
6000
6000
6000
6000
2000
3020
1840
0f80
0000
0000
0000
0000
0000
ENDCHAR
STARTCHAR U0044
ENCODING 68
SWIDTH 500 0
DWIDTH 12 0
BBX 12 22 0 -5
BITMAP
0000
0000
0000
ff00
61c0
60c0
6060
6060
6060
6060
6060
6060
6060
6060
6040
6180
fe00
0000
0000
0000
0000
0000
ENDCHAR
STARTCHAR U0045
ENCODING 69
SWIDTH 500 0
DWIDTH 12 0
BBX 12 22 0 -5
BITMAP
0000
0000
0000
7fc0
3040
3040
3000
3000
3080
3f80
3080
3000
3000
3000
3020
3020
7fe0
0000
0000
0000
0000
0000
ENDCHAR
STARTCHAR U0046
ENCODING 70
SWIDTH 500 0
DWIDTH 12 0
BBX 12 22 0 -5
BITMAP
0000
0000
0000
7fc0
3040
3040
3000
3000
3080
3f80
3080
3000
3000
3000
3000
3000
7800
0000
0000
0000
0000
0000
ENDCHAR
STARTCHAR U0047
ENCODING 71
SWIDTH 500 0
DWIDTH 12 0
BBX 12 22 0 -5
BITMAP
0000
0000
0000
0fc0
1060
2020
2000
6000
6000
6000
6000
61f0
6060
2060
3060
1860
0f80
0000
0000
0000
0000
0000
ENDCHAR
STARTCHAR U0048
ENCODING 72
SWIDTH 500 0
DWIDTH 12 0
BBX 12 22 0 -5
BITMAP
0000
0000
0000
f0f0
6060
6060
6060
6060
6060
7fe0
6060
6060
6060
6060
6060
6060
f0f0
0000
0000
0000
0000
0000
ENDCHAR
STARTCHAR U0049
ENCODING 73
SWIDTH 500 0
DWIDTH 12 0
BBX 12 22 0 -5
BITMAP
0000
0000
0000
1f80
0600
0600
0600
0600
0600
0600
0600
0600
0600
0600
0600
0600
1f80
0000
0000
0000
0000
0000
ENDCHAR
STARTCHAR U004a
ENCODING 74
SWIDTH 500 0
DWIDTH 12 0
BBX 12 22 0 -5
BITMAP
0000
0000
0000
1f80
0600
0600
0600
0600
0600
0600
0600
0600
0600
0600
0600
0600
0600
0600
0600
0400
3800
3000
ENDCHAR
STARTCHAR U004b
ENCODING 75
SWIDTH 500 0
DWIDTH 12 0
BBX 12 22 0 -5
BITMAP
0000
0000
0000
f0e0
6180
6300
6600
6c00
7800
7800
7c00
6e00
6700
6380
61c0
60e0
f070
0000
0000
0000
0000
0000
ENDCHAR
STARTCHAR U004c
ENCODING 76
SWIDTH 500 0
DWIDTH 12 0
BBX 12 22 0 -5
BITMAP
0000
0000
0000
7800
3000
3000
3000
3000
3000
3000
3000
3000
3000
3000
3020
3020
7fe0
0000
0000
0000
0000
0000
ENDCHAR
STARTCHAR U004d
ENCODING 77
SWIDTH 500 0
DWIDTH 12 0
BBX 12 22 0 -5
BITMAP
0000
0000
0000
e070
60e0
70e0
70e0
70e0
5960
5960
5960
4d60
4e60
4e60
4460
4460
e4f0
0000
0000
0000
0000
0000
ENDCHAR
STARTCHAR U004e
ENCODING 78
SWIDTH 500 0
DWIDTH 12 0
BBX 12 22 0 -5
BITMAP
0000
0000
0000
c070
6020
7020
7820
5820
4c20
4620
4720
4320
41a0
40e0
40e0
4060
e030
0000
0000
0000
0000
0000
ENDCHAR
STARTCHAR U004f
ENCODING 79
SWIDTH 500 0
DWIDTH 12 0
BBX 12 22 0 -5
BITMAP
0000
0000
0000
0f00
11c0
20c0
2060
6060
6060
6060
6060
6060
6060
2040
3040
1880
0f00
0000
0000
0000
0000
0000
ENDCHAR
STARTCHAR U0050
ENCODING 80
SWIDTH 500 0
DWIDTH 12 0
BBX 12 22 0 -5
BITMAP
0000
0000
0000
7f80
30c0
3060
3060
3060
30c0
3780
3000
3000
3000
3000
3000
3000
7800
0000
0000
0000
0000
0000
ENDCHAR
STARTCHAR U0051
ENCODING 81
SWIDTH 500 0
DWIDTH 12 0
BBX 12 22 0 -5
BITMAP
0000
0000
0000
0f00
11c0
20c0
2060
6060
6060
6060
6060
6060
6060
3040
3840
1f80
0e00
1f00
2390
01e0
0000
0000
ENDCHAR
STARTCHAR U0052
ENCODING 82
SWIDTH 500 0
DWIDTH 12 0
BBX 12 22 0 -5
BITMAP
0000
0000
0000
ff00
6180
60c0
60c0
60c0
6080
7f00
7c00
6e00
6700
6380
61c0
60e0
f070
0000
0000
0000
0000
0000
ENDCHAR
STARTCHAR U0053
ENCODING 83
SWIDTH 500 0
DWIDTH 12 0
BBX 12 22 0 -5
BITMAP
0000
0000
0000
1fe0
3060
6020
6020
7000
3c00
1e00
0780
01c0
00e0
4060
4060
60c0
7f80
0000
0000
0000
0000
0000
ENDCHAR
STARTCHAR U0054
ENCODING 84
SWIDTH 500 0
DWIDTH 12 0
BBX 12 22 0 -5
BITMAP
0000
0000
0000
7fe0
4620
0600
0600
0600
0600
0600
0600
0600
0600
0600
0600
0600
1f80
0000
0000
0000
0000
0000
ENDCHAR
STARTCHAR U0055
ENCODING 85
SWIDTH 500 0
DWIDTH 12 0
BBX 12 22 0 -5
BITMAP
0000
0000
0000
f070
6020
6020
6020
6020
6020
6020
6020
6020
6020
6020
7040
3fc0
1f80
0000
0000
0000
0000
0000
ENDCHAR
STARTCHAR U0056
ENCODING 86
SWIDTH 500 0
DWIDTH 12 0
BBX 12 22 0 -5
BITMAP
0000
0000
0000
e0e0
6040
3080
3080
3080
1900
1900
1900
0c00
0e00
0e00
0400
0400
0400
0000
0000
0000
0000
0000
ENDCHAR
STARTCHAR U0057
ENCODING 87
SWIDTH 500 0
DWIDTH 12 0
BBX 12 22 0 -5
BITMAP
0000
0000
0000
fef0
6620
6620
6620
7620
7740
3340
3740
3bc0
3b80
1980
1980
1980
1980
0000
0000
0000
0000
0000
ENDCHAR
STARTCHAR U0058
ENCODING 88
SWIDTH 500 0
DWIDTH 12 0
BBX 12 22 0 -5
BITMAP
0000
0000
0000
f070
6020
3040
3880
1880
0d00
0600
0600
0b00
1180
11c0
20c0
4060
e0f0
0000
0000
0000
0000
0000
ENDCHAR
STARTCHAR U0059
ENCODING 89
SWIDTH 500 0
DWIDTH 12 0
BBX 12 22 0 -5
BITMAP
0000
0000
0000
f070
6020
3040
1880
1880
0d00
0600
0600
0600
0600
0600
0600
0600
0f00
0000
0000
0000
0000
0000
ENDCHAR
STARTCHAR U005a
ENCODING 90
SWIDTH 500 0
DWIDTH 12 0
BBX 12 22 0 -5
BITMAP
0000
0000
0000
3fe0
20c0
00c0
0180
0180
0300
0300
0600
0600
0c00
0c00
1800
1820
3fe0
0000
0000
0000
0000
0000
ENDCHAR
STARTCHAR U005b
ENCODING 91
SWIDTH 500 0
DWIDTH 12 0
BBX 12 22 0 -5
BITMAP
0000
0000
07c0
07c0
0600
0600
0600
0600
0600
0600
0600
0600
0600
0600
0600
07c0
07c0
0000
0000
0000
0000
0000
ENDCHAR
STARTCHAR U005c
ENCODING 92
SWIDTH 500 0
DWIDTH 12 0
BBX 12 22 0 -5
BITMAP
0000
0000
6000
6000
3000
3000
1800
1800
0c00
0c00
0600
0300
0300
0180
0180
00c0
00c0
0000
0000
0000
0000
0000
ENDCHAR
STARTCHAR U005d
ENCODING 93
SWIDTH 500 0
DWIDTH 12 0
BBX 12 22 0 -5
BITMAP
0000
0000
7c00
7c00
0c00
0c00
0c00
0c00
0c00
0c00
0c00
0c00
0c00
0c00
0c00
7c00
7c00
0000
0000
0000
0000
0000
ENDCHAR
STARTCHAR U005e
ENCODING 94
SWIDTH 500 0
DWIDTH 12 0
BBX 12 22 0 -5
BITMAP
0000
0000
0400
0e00
1b00
3180
60c0
0000
0000
0000
0000
0000
0000
0000
0000
0000
0000
0000
0000
0000
0000
0000
ENDCHAR
STARTCHAR U005f
ENCODING 95
SWIDTH 500 0
DWIDTH 12 0
BBX 12 22 0 -5
BITMAP
0000
0000
0000
0000
0000
0000
0000
0000
0000
0000
0000
0000
0000
0000
0000
0000
0000
0000
ffe0
ffe0
0000
0000
ENDCHAR
STARTCHAR U0060
ENCODING 96
SWIDTH 500 0
DWIDTH 12 0
BBX 12 22 0 -5
BITMAP
0000
0000
0100
0300
0600
0600
0780
0780
0300
0000
0000
0000
0000
0000
0000
0000
0000
0000
0000
0000
0000
0000
ENDCHAR
STARTCHAR U0061
ENCODING 97
SWIDTH 500 0
DWIDTH 12 0
BBX 12 22 0 -5
BITMAP
0000
0000
0000
0000
0000
0000
0000
0f80
18c0
10c0
03c0
1cc0
30c0
30c0
30c0
39c0
1ee0
0000
0000
0000
0000
0000
ENDCHAR
STARTCHAR U0062
ENCODING 98
SWIDTH 500 0
DWIDTH 12 0
BBX 12 22 0 -5
BITMAP
0000
0000
2000
6000
e000
6000
6000
6780
6fc0
70e0
6060
6060
6060
6060
7060
78c0
4f80
0000
0000
0000
0000
0000
ENDCHAR
STARTCHAR U0063
ENCODING 99
SWIDTH 500 0
DWIDTH 12 0
BBX 12 22 0 -5
BITMAP
0000
0000
0000
0000
0000
0000
0000
1f80
31c0
20c0
6000
6000
6000
6000
7040
30c0
1f80
0000
0000
0000
0000
0000
ENDCHAR
STARTCHAR U0064
ENCODING 100
SWIDTH 500 0
DWIDTH 12 0
BBX 12 22 0 -5
BITMAP
0000
0000
0060
00e0
0060
0060
0060
0f60
31e0
20e0
6060
6060
6060
6060
70e0
3960
1e70
0000
0000
0000
0000
0000
ENDCHAR
STARTCHAR U0065
ENCODING 101
SWIDTH 500 0
DWIDTH 12 0
BBX 12 22 0 -5
BITMAP
0000
0000
0000
0000
0000
0000
0000
0f00
30c0
6060
6060
7fe0
6000
6000
3000
1860
0f80
0000
0000
0000
0000
0000
ENDCHAR
STARTCHAR U0066
ENCODING 102
SWIDTH 500 0
DWIDTH 12 0
BBX 12 22 0 -5
BITMAP
0000
0000
0380
04c0
04c0
0c00
0c00
0c00
0c00
1f80
0c00
0c00
0c00
0c00
0c00
0c00
1e00
0000
0000
0000
0000
0000
ENDCHAR
STARTCHAR U0067
ENCODING 103
SWIDTH 500 0
DWIDTH 12 0
BBX 12 22 0 -5
BITMAP
0000
0000
0000
0000
0000
0000
0000
1f20
31e0
60c0
60c0
60c0
3180
3f00
6000
7fc0
3fe0
2060
4020
4020
7fc0
3f80
ENDCHAR
STARTCHAR U0068
ENCODING 104
SWIDTH 500 0
DWIDTH 12 0
BBX 12 22 0 -5
BITMAP
0000
0000
1000
3000
7000
3000
3000
3780
39c0
30c0
30c0
30c0
30c0
30c0
30c0
30c0
79e0
0000
0000
0000
0000
0000
ENDCHAR
STARTCHAR U0069
ENCODING 105
SWIDTH 500 0
DWIDTH 12 0
BBX 12 22 0 -5
BITMAP
0000
0000
0000
0600
0600
0000
0000
1e00
0600
0600
0600
0600
0600
0600
0600
0600
1f80
0000
0000
0000
0000
0000
ENDCHAR
STARTCHAR U006a
ENCODING 106
SWIDTH 500 0
DWIDTH 12 0
BBX 12 22 0 -5
BITMAP
0000
0000
0000
00c0
00c0
0000
0000
03c0
00c0
00c0
00c0
00c0
00c0
00c0
00c0
00c0
00c0
20c0
30c0
3880
1f00
0e00
ENDCHAR
STARTCHAR U006b
ENCODING 107
SWIDTH 500 0
DWIDTH 12 0
BBX 12 22 0 -5
BITMAP
0000
0000
6000
e000
6000
6000
6000
61c0
6300
6600
7c00
7800
7c00
6e00
6700
6380
f1e0
0000
0000
0000
0000
0000
ENDCHAR
STARTCHAR U006c
ENCODING 108
SWIDTH 500 0
DWIDTH 12 0
BBX 12 22 0 -5
BITMAP
0000
0000
1e00
0600
0600
0600
0600
0600
0600
0600
0600
0600
0600
0600
0600
0600
1f80
0000
0000
0000
0000
0000
ENDCHAR
STARTCHAR U006d
ENCODING 109
SWIDTH 500 0
DWIDTH 12 0
BBX 12 22 0 -5
BITMAP
0000
0000
0000
0000
0000
0000
0000
ddc0
6ee0
6660
6660
6660
6660
6660
6660
6660
ef70
0000
0000
0000
0000
0000
ENDCHAR
STARTCHAR U006e
ENCODING 110
SWIDTH 500 0
DWIDTH 12 0
BBX 12 22 0 -5
BITMAP
0000
0000
0000
0000
0000
0000
0000
2780
79c0
30c0
30c0
30c0
30c0
30c0
30c0
30c0
79e0
0000
0000
0000
0000
0000
ENDCHAR
STARTCHAR U006f
ENCODING 111
SWIDTH 500 0
DWIDTH 12 0
BBX 12 22 0 -5
BITMAP
0000
0000
0000
0000
0000
0000
0000
0f80
11c0
20e0
6060
6060
6060
6060
7040
3880
1f00
0000
0000
0000
0000
0000
ENDCHAR
STARTCHAR U0070
ENCODING 112
SWIDTH 500 0
DWIDTH 12 0
BBX 12 22 0 -5
BITMAP
0000
0000
0000
0000
0000
0000
0000
ef80
71c0
60e0
6060
6060
6060
6060
6040
7080
7f00
6000
6000
6000
6000
f000
ENDCHAR
STARTCHAR U0071
ENCODING 113
SWIDTH 500 0
DWIDTH 12 0
BBX 12 22 0 -5
BITMAP
0000
0000
0000
0000
0000
0000
0000
0f20
11e0
20e0
6060
6060
6060
6060
7060
38e0
1fe0
0060
0060
0060
0060
00f0
ENDCHAR
STARTCHAR U0072
ENCODING 114
SWIDTH 500 0
DWIDTH 12 0
BBX 12 22 0 -5
BITMAP
0000
0000
0000
0000
0000
0000
0000
7380
34c0
38c0
3000
3000
3000
3000
3000
3000
7800
0000
0000
0000
0000
0000
ENDCHAR
STARTCHAR U0073
ENCODING 115
SWIDTH 500 0
DWIDTH 12 0
BBX 12 22 0 -5
BITMAP
0000
0000
0000
0000
0000
0000
0000
1fc0
30c0
3040
3800
1e00
0780
01c0
20c0
30c0
3f80
0000
0000
0000
0000
0000
ENDCHAR
STARTCHAR U0074
ENCODING 116
SWIDTH 500 0
DWIDTH 12 0
BBX 12 22 0 -5
BITMAP
0000
0000
0000
0000
0400
0400
0c00
7fc0
0c00
0c00
0c00
0c00
0c00
0c00
0c20
0e40
0780
0000
0000
0000
0000
0000
ENDCHAR
STARTCHAR U0075
ENCODING 117
SWIDTH 500 0
DWIDTH 12 0
BBX 12 22 0 -5
BITMAP
0000
0000
0000
0000
0000
0000
0000
79e0
30c0
30c0
30c0
30c0
30c0
30c0
30c0
39c0
1e60
0000
0000
0000
0000
0000
ENDCHAR
STARTCHAR U0076
ENCODING 118
SWIDTH 500 0
DWIDTH 12 0
BBX 12 22 0 -5
BITMAP
0000
0000
0000
0000
0000
0000
0000
f070
6020
3040
3040
1880
1880
0d00
0d00
0600
0600
0000
0000
0000
0000
0000
ENDCHAR
STARTCHAR U0077
ENCODING 119
SWIDTH 500 0
DWIDTH 12 0
BBX 12 22 0 -5
BITMAP
0000
0000
0000
0000
0000
0000
0000
ff70
6620
6620
6620
3740
3b40
3b40
1980
1980
1980
0000
0000
0000
0000
0000
ENDCHAR
STARTCHAR U0078
ENCODING 120
SWIDTH 500 0
DWIDTH 12 0
BBX 12 22 0 -5
BITMAP
0000
0000
0000
0000
0000
0000
0000
f8f0
7040
3880
1d00
0e00
0700
0b80
11c0
20e0
f1f0
0000
0000
0000
0000
0000
ENDCHAR
STARTCHAR U0079
ENCODING 121
SWIDTH 500 0
DWIDTH 12 0
BBX 12 22 0 -5
BITMAP
0000
0000
0000
0000
0000
0000
0000
f0f0
6020
3040
3040
1880
1880
0d00
0d00
0600
0600
0400
0c00
0800
7800
7000
ENDCHAR
STARTCHAR U007a
ENCODING 122
SWIDTH 500 0
DWIDTH 12 0
BBX 12 22 0 -5
BITMAP
0000
0000
0000
0000
0000
0000
0000
7fe0
60e0
41c0
0380
0700
0e00
1c00
3820
7060
7fe0
0000
0000
0000
0000
0000
ENDCHAR
STARTCHAR U007b
ENCODING 123
SWIDTH 500 0
DWIDTH 12 0
BBX 12 22 0 -5
BITMAP
0000
0000
01c0
0300
0300
0180
0180
0180
0300
0700
0300
0180
0180
0180
0300
0300
01c0
0000
0000
0000
0000
0000
ENDCHAR
STARTCHAR U007c
ENCODING 124
SWIDTH 500 0
DWIDTH 12 0
BBX 12 22 0 -5
BITMAP
0000
0000
0600
0600
0600
0600
0600
0600
0600
0600
0600
0600
0600
0600
0600
0600
0600
0600
0600
0600
0600
0600
ENDCHAR
STARTCHAR U007d
ENCODING 125
SWIDTH 500 0
DWIDTH 12 0
BBX 12 22 0 -5
BITMAP
0000
0000
3800
0c00
0c00
1800
1800
1800
0c00
0e00
0c00
1800
1800
1800
0c00
0c00
3800
0000
0000
0000
0000
0000
ENDCHAR
STARTCHAR U007e
ENCODING 126
SWIDTH 500 0
DWIDTH 12 0
BBX 12 22 0 -5
BITMAP
0000
0000
0000
0000
0000
0000
0000
0000
0000
0000
1c20
3e60
36c0
67c0
4380
0000
0000
0000
0000
0000
0000
0000
ENDCHAR
STARTCHAR U007f
ENCODING 127
SWIDTH 500 0
DWIDTH 12 0
BBX 12 22 0 -5
BITMAP
aaa0
5550
aaa0
5550
aaa0
5550
aaa0
5550
aaa0
5550
aaa0
5550
aaa0
5550
aaa0
5550
aaa0
5550
aaa0
5550
aaa0
5550
ENDCHAR
STARTCHAR U00a1
ENCODING 161
SWIDTH 500 0
DWIDTH 12 0
BBX 12 22 0 -5
BITMAP
0000
0000
0000
0600
0600
0000
0000
0600
0600
0600
0600
0600
0600
0600
0600
0600
0600
0600
0000
0000
0000
0000
ENDCHAR
STARTCHAR U00a2
ENCODING 162
SWIDTH 500 0
DWIDTH 12 0
BBX 12 22 0 -5
BITMAP
0000
0000
0000
0100
0100
0300
0200
1f00
3780
2580
6400
6c00
6800
7880
3980
1f00
1000
3000
2000
2000
0000
0000
ENDCHAR
STARTCHAR U00a3
ENCODING 163
SWIDTH 500 0
DWIDTH 12 0
BBX 12 22 0 -5
BITMAP
0000
0000
0000
0f80
1cc0
18c0
1800
1800
1800
7e00
7e00
1800
1800
1800
1800
3e20
7fe0
61c0
0000
0000
0000
0000
ENDCHAR
STARTCHAR U00a4
ENCODING 164
SWIDTH 500 0
DWIDTH 12 0
BBX 12 22 0 -5
BITMAP
0000
0000
0000
0000
0000
6020
7740
3b80
11c0
30c0
30c0
3880
1dc0
2ee0
4060
0000
0000
0000
0000
0000
0000
0000
ENDCHAR
STARTCHAR U00a5
ENCODING 165
SWIDTH 500 0
DWIDTH 12 0
BBX 12 22 0 -5
BITMAP
0000
0000
0000
f070
6020
3040
1880
1880
0d00
0600
3fc0
0600
3fc0
0600
0600
0600
0f00
0000
0000
0000
0000
0000
ENDCHAR
STARTCHAR U00a6
ENCODING 166
SWIDTH 500 0
DWIDTH 12 0
BBX 12 22 0 -5
BITMAP
0000
0000
0600
0600
0600
0600
0600
0600
0600
0600
0600
0000
0000
0600
0600
0600
0600
0600
0600
0600
0600
0600
ENDCHAR
STARTCHAR U00a7
ENCODING 167
SWIDTH 500 0
DWIDTH 12 0
BBX 12 22 0 -5
BITMAP
0000
0000
0fe0
1860
3020
3820
1e00
1f80
31c0
60e0
7060
38c0
1f80
0780
41c0
40c0
6180
7f00
0000
0000
0000
0000
ENDCHAR
STARTCHAR U00a8
ENCODING 168
SWIDTH 500 0
DWIDTH 12 0
BBX 12 22 0 -5
BITMAP
1980
1980
0000
0000
0000
0000
0000
0000
0000
0000
0000
0000
0000
0000
0000
0000
0000
0000
0000
0000
0000
0000
ENDCHAR
STARTCHAR U00a9
ENCODING 169
SWIDTH 500 0
DWIDTH 12 0
BBX 12 22 0 -5
BITMAP
0000
0000
0000
0f00
1080
2040
2f40
59a0
59a0
5820
5820
59a0
59a0
2f40
2040
1080
0f00
0000
0000
0000
0000
0000
ENDCHAR
STARTCHAR U00aa
ENCODING 170
SWIDTH 500 0
DWIDTH 12 0
BBX 12 22 0 -5
BITMAP
0000
0000
0000
0e00
1f00
1380
0f80
1980
3180
3fc0
1ec0
0000
0000
3fe0
7fc0
0000
0000
0000
0000
0000
0000
0000
ENDCHAR
STARTCHAR U00ab
ENCODING 171
SWIDTH 500 0
DWIDTH 12 0
BBX 12 22 0 -5
BITMAP
0000
0000
0000
0000
0000
0000
0000
0000
0220
0440
0880
1100
3300
1980
0cc0
0660
0000
0000
0000
0000
0000
0000
ENDCHAR
STARTCHAR U00ac
ENCODING 172
SWIDTH 500 0
DWIDTH 12 0
BBX 12 22 0 -5
BITMAP
0000
0000
0000
0000
0000
0000
0000
0000
0000
7fe0
7fe0
0060
0060
0060
0060
0000
0000
0000
0000
0000
0000
0000
ENDCHAR
STARTCHAR U00ad
ENCODING 173
SWIDTH 500 0
DWIDTH 12 0
BBX 12 22 0 -5
BITMAP
0000
0000
0000
0000
0000
0000
0000
0000
0000
0000
0000
1f80
1f80
0000
0000
0000
0000
0000
0000
0000
0000
0000
ENDCHAR
STARTCHAR U00ae
ENCODING 174
SWIDTH 500 0
DWIDTH 12 0
BBX 12 22 0 -5
BITMAP
0000
0000
0000
0f00
1080
2040
3f40
59a0
59a0
5fa0
5b20
5b20
59a0
39c0
2040
1080
0f00
0000
0000
0000
0000
0000
ENDCHAR
STARTCHAR U00af
ENCODING 175
SWIDTH 500 0
DWIDTH 12 0
BBX 12 22 0 -5
BITMAP
3fc0
3fc0
0000
0000
0000
0000
0000
0000
0000
0000
0000
0000
0000
0000
0000
0000
0000
0000
0000
0000
0000
0000
ENDCHAR
STARTCHAR U00b0
ENCODING 176
SWIDTH 500 0
DWIDTH 12 0
BBX 12 22 0 -5
BITMAP
0000
0000
0e00
1700
2380
6180
6180
7100
3a00
1c00
0000
0000
0000
0000
0000
0000
0000
0000
0000
0000
0000
0000
ENDCHAR
STARTCHAR U00b1
ENCODING 177
SWIDTH 500 0
DWIDTH 12 0
BBX 12 22 0 -5
BITMAP
0000
0000
0000
0000
0000
0600
0600
0600
0600
7fe0
7fe0
0600
0600
0600
0600
0000
7fe0
7fe0
0000
0000
0000
0000
ENDCHAR
STARTCHAR U00b2
ENCODING 178
SWIDTH 500 0
DWIDTH 12 0
BBX 12 22 0 -5
BITMAP
0000
0000
0000
0e00
1f00
1300
0300
0600
0c00
1800
1f00
1f00
0000
0000
0000
0000
0000
0000
0000
0000
0000
0000
ENDCHAR
STARTCHAR U00b3
ENCODING 179
SWIDTH 500 0
DWIDTH 12 0
BBX 12 22 0 -5
BITMAP
0000
0000
0000
0e00
1f00
1300
0300
0600
0300
1300
1f00
0e00
0000
0000
0000
0000
0000
0000
0000
0000
0000
0000
ENDCHAR
STARTCHAR U00b4
ENCODING 180
SWIDTH 500 0
DWIDTH 12 0
BBX 12 22 0 -5
BITMAP
0380
0f00
1c00
0000
0000
0000
0000
0000
0000
0000
0000
0000
0000
0000
0000
0000
0000
0000
0000
0000
0000
0000
ENDCHAR
STARTCHAR U00b5
ENCODING 181
SWIDTH 500 0
DWIDTH 12 0
BBX 12 22 0 -5
BITMAP
0000
0000
0000
0000
0000
0000
0000
79e0
30c0
30c0
30c0
30c0
30c0
30c0
30c0
39c0
3e60
3000
3000
3000
3000
6000
ENDCHAR
STARTCHAR U00b6
ENCODING 182
SWIDTH 500 0
DWIDTH 12 0
BBX 12 22 0 -5
BITMAP
0000
0000
0000
1fc0
3ec0
7ec0
7ec0
7ec0
3ec0
1ec0
06c0
06c0
06c0
06c0
06c0
06c0
06c0
0000
0000
0000
0000
0000
ENDCHAR
STARTCHAR U00b7
ENCODING 183
SWIDTH 500 0
DWIDTH 12 0
BBX 12 22 0 -5
BITMAP
0000
0000
0000
0000
0000
0000
0000
0000
0000
0000
0600
0f00
0f00
0600
0000
0000
0000
0000
0000
0000
0000
0000
ENDCHAR
STARTCHAR U00b8
ENCODING 184
SWIDTH 500 0
DWIDTH 12 0
BBX 12 22 0 -5
BITMAP
0000
0000
0000
0000
0000
0000
0000
0000
0000
0000
0000
0000
0000
0000
0000
0000
0000
0200
0300
0180
0980
0700
ENDCHAR
STARTCHAR U00b9
ENCODING 185
SWIDTH 500 0
DWIDTH 12 0
BBX 12 22 0 -5
BITMAP
0000
0000
0000
0600
0e00
0e00
0600
0600
0600
0600
0600
0f00
0000
0000
0000
0000
0000
0000
0000
0000
0000
0000
ENDCHAR
STARTCHAR U00ba
ENCODING 186
SWIDTH 500 0
DWIDTH 12 0
BBX 12 22 0 -5
BITMAP
0000
0000
0000
0700
0b80
11c0
30c0
30c0
3880
1d00
0e00
0000
0000
3fe0
7fc0
0000
0000
0000
0000
0000
0000
0000
ENDCHAR
STARTCHAR U00bb
ENCODING 187
SWIDTH 500 0
DWIDTH 12 0
BBX 12 22 0 -5
BITMAP
0000
0000
0000
0000
0000
0000
0000
0000
6600
3300
1980
0cc0
0880
1100
2200
4400
0000
0000
0000
0000
0000
0000
ENDCHAR
STARTCHAR U00bc
ENCODING 188
SWIDTH 500 0
DWIDTH 12 0
BBX 12 22 0 -5
BITMAP
0000
1800
3800
3800
1800
1820
1860
18c0
1980
3f40
06c0
0dc0
19c0
32c0
64c0
47e0
00c0
00c0
0000
0000
0000
0000
ENDCHAR
STARTCHAR U00bd
ENCODING 189
SWIDTH 500 0
DWIDTH 12 0
BBX 12 22 0 -5
BITMAP
0000
1800
3800
3800
1800
1820
1860
18c0
1980
3fc0
07e0
0f60
1a60
30c0
6180
4300
03e0
03e0
0000
0000
0000
0000
ENDCHAR
STARTCHAR U00be
ENCODING 190
SWIDTH 500 0
DWIDTH 12 0
BBX 12 22 0 -5
BITMAP
0000
3800
7c00
4c00
0c00
1820
0c60
4cc0
7d80
3b40
06c0
0dc0
19c0
32c0
64c0
47e0
00c0
00c0
0000
0000
0000
0000
ENDCHAR
STARTCHAR U00bf
ENCODING 191
SWIDTH 500 0
DWIDTH 12 0
BBX 12 22 0 -5
BITMAP
0000
0000
0000
0300
0300
0000
0000
0300
0300
0600
0c00
1800
3000
3000
3040
39c0
1f80
0f00
0000
0000
0000
0000
ENDCHAR
STARTCHAR U00c0
ENCODING 192
SWIDTH 500 0
DWIDTH 12 0
BBX 12 22 0 -5
BITMAP
1c00
0f00
0380
0600
0600
0b00
0b00
0900
1180
1180
1080
3fc0
20c0
2040
4060
4060
e0f0
0000
0000
0000
0000
0000
ENDCHAR
STARTCHAR U00c1
ENCODING 193
SWIDTH 500 0
DWIDTH 12 0
BBX 12 22 0 -5
BITMAP
0380
0f00
1c00
0600
0600
0b00
0b00
0900
1180
1180
1080
3fc0
20c0
2040
4060
4060
e0f0
0000
0000
0000
0000
0000
ENDCHAR
STARTCHAR U00c2
ENCODING 194
SWIDTH 500 0
DWIDTH 12 0
BBX 12 22 0 -5
BITMAP
0600
0f00
1980
0600
0600
0b00
0b00
0900
1180
1180
1080
3fc0
20c0
2040
4060
4060
e0f0
0000
0000
0000
0000
0000
ENDCHAR
STARTCHAR U00c3
ENCODING 195
SWIDTH 500 0
DWIDTH 12 0
BBX 12 22 0 -5
BITMAP
0cc0
1f80
3300
0600
0600
0b00
0b00
0900
1180
1180
1080
3fc0
20c0
2040
4060
4060
e0f0
0000
0000
0000
0000
0000
ENDCHAR
STARTCHAR U00c4
ENCODING 196
SWIDTH 500 0
DWIDTH 12 0
BBX 12 22 0 -5
BITMAP
1980
1980
0000
0600
0600
0b00
0b00
0900
1180
1180
1080
3fc0
20c0
2040
4060
4060
e0f0
0000
0000
0000
0000
0000
ENDCHAR
STARTCHAR U00c5
ENCODING 197
SWIDTH 500 0
DWIDTH 12 0
BBX 12 22 0 -5
BITMAP
0600
0f00
1980
0f00
0600
0b00
0b00
0900
1180
1180
1080
3fc0
20c0
2040
4060
4060
e0f0
0000
0000
0000
0000
0000
ENDCHAR
STARTCHAR U00c6
ENCODING 198
SWIDTH 500 0
DWIDTH 12 0
BBX 12 22 0 -5
BITMAP
0000
0000
0000
0fe0
0e20
1620
1600
1600
1640
27c0
2640
3e00
2600
4600
4610
4610
e7f0
0000
0000
0000
0000
0000
ENDCHAR
STARTCHAR U00c7
ENCODING 199
SWIDTH 500 0
DWIDTH 12 0
BBX 12 22 0 -5
BITMAP
0000
0000
0000
0fc0
1060
2020
2000
6000
6000
6000
6000
6000
6000
2000
3020
1840
0f80
0200
0300
0180
0980
0700
ENDCHAR
STARTCHAR U00c8
ENCODING 200
SWIDTH 500 0
DWIDTH 12 0
BBX 12 22 0 -5
BITMAP
1c00
0f00
0380
7fc0
3040
3040
3000
3000
3080
3f80
3080
3000
3000
3000
3020
3020
7fe0
0000
0000
0000
0000
0000
ENDCHAR
STARTCHAR U00c9
ENCODING 201
SWIDTH 500 0
DWIDTH 12 0
BBX 12 22 0 -5
BITMAP
0380
0f00
1c00
7fc0
3040
3040
3000
3000
3080
3f80
3080
3000
3000
3000
3020
3020
7fe0
0000
0000
0000
0000
0000
ENDCHAR
STARTCHAR U00ca
ENCODING 202
SWIDTH 500 0
DWIDTH 12 0
BBX 12 22 0 -5
BITMAP
0600
0f00
1980
7fc0
3040
3040
3000
3000
3080
3f80
3080
3000
3000
3000
3020
3020
7fe0
0000
0000
0000
0000
0000
ENDCHAR
STARTCHAR U00cb
ENCODING 203
SWIDTH 500 0
DWIDTH 12 0
BBX 12 22 0 -5
BITMAP
1980
1980
0000
7fc0
3040
3040
3000
3000
3080
3f80
3080
3000
3000
3000
3020
3020
7fe0
0000
0000
0000
0000
0000
ENDCHAR
STARTCHAR U00cc
ENCODING 204
SWIDTH 500 0
DWIDTH 12 0
BBX 12 22 0 -5
BITMAP
1c00
0f00
0380
1f80
0600
0600
0600
0600
0600
0600
0600
0600
0600
0600
0600
0600
1f80
0000
0000
0000
0000
0000
ENDCHAR
STARTCHAR U00cd
ENCODING 205
SWIDTH 500 0
DWIDTH 12 0
BBX 12 22 0 -5
BITMAP
0380
0f00
1c00
1f80
0600
0600
0600
0600
0600
0600
0600
0600
0600
0600
0600
0600
1f80
0000
0000
0000
0000
0000
ENDCHAR
STARTCHAR U00ce
ENCODING 206
SWIDTH 500 0
DWIDTH 12 0
BBX 12 22 0 -5
BITMAP
0600
0f00
1980
1f80
0600
0600
0600
0600
0600
0600
0600
0600
0600
0600
0600
0600
1f80
0000
0000
0000
0000
0000
ENDCHAR
STARTCHAR U00cf
ENCODING 207
SWIDTH 500 0
DWIDTH 12 0
BBX 12 22 0 -5
BITMAP
1980
1980
0000
1f80
0600
0600
0600
0600
0600
0600
0600
0600
0600
0600
0600
0600
1f80
0000
0000
0000
0000
0000
ENDCHAR
STARTCHAR U00d0
ENCODING 208
SWIDTH 500 0
DWIDTH 12 0
BBX 12 22 0 -5
BITMAP
0000
0000
0000
ff00
61c0
60c0
6060
6060
6060
f860
f860
6060
6060
6060
6040
6180
fe00
0000
0000
0000
0000
0000
ENDCHAR
STARTCHAR U00d1
ENCODING 209
SWIDTH 500 0
DWIDTH 12 0
BBX 12 22 0 -5
BITMAP
0cc0
1f80
3300
c070
6020
7020
7820
5820
4c20
4620
4720
4320
41a0
40e0
40e0
4060
e030
0000
0000
0000
0000
0000
ENDCHAR
STARTCHAR U00d2
ENCODING 210
SWIDTH 500 0
DWIDTH 12 0
BBX 12 22 0 -5
BITMAP
1c00
0f00
0380
0f00
11c0
20c0
2060
6060
6060
6060
6060
6060
6060
2040
3040
1880
0f00
0000
0000
0000
0000
0000
ENDCHAR
STARTCHAR U00d3
ENCODING 211
SWIDTH 500 0
DWIDTH 12 0
BBX 12 22 0 -5
BITMAP
0380
0f00
1c00
0f00
11c0
20c0
2060
6060
6060
6060
6060
6060
6060
2040
3040
1880
0f00
0000
0000
0000
0000
0000
ENDCHAR
STARTCHAR U00d4
ENCODING 212
SWIDTH 500 0
DWIDTH 12 0
BBX 12 22 0 -5
BITMAP
0600
0f00
1980
0f00
11c0
20c0
2060
6060
6060
6060
6060
6060
6060
2040
3040
1880
0f00
0000
0000
0000
0000
0000
ENDCHAR
STARTCHAR U00d5
ENCODING 213
SWIDTH 500 0
DWIDTH 12 0
BBX 12 22 0 -5
BITMAP
0cc0
1f80
3300
0f00
11c0
20c0
2060
6060
6060
6060
6060
6060
6060
2040
3040
1880
0f00
0000
0000
0000
0000
0000
ENDCHAR
STARTCHAR U00d6
ENCODING 214
SWIDTH 500 0
DWIDTH 12 0
BBX 12 22 0 -5
BITMAP
1980
1980
0000
0f00
11c0
20c0
2060
6060
6060
6060
6060
6060
6060
2040
3040
1880
0f00
0000
0000
0000
0000
0000
ENDCHAR
STARTCHAR U00d7
ENCODING 215
SWIDTH 500 0
DWIDTH 12 0
BBX 12 22 0 -5
BITMAP
0000
0000
0000
0000
0000
0000
0000
6060
30c0
1980
0f00
0600
0f00
1980
30c0
6060
0000
0000
0000
0000
0000
0000
ENDCHAR
STARTCHAR U00d8
ENCODING 216
SWIDTH 500 0
DWIDTH 12 0
BBX 12 22 0 -5
BITMAP
0000
0000
0060
0fc0
11c0
21c0
21e0
6360
6360
6660
6c60
6c60
7860
3840
3040
3880
6f00
0000
0000
0000
0000
0000
ENDCHAR
STARTCHAR U00d9
ENCODING 217
SWIDTH 500 0
DWIDTH 12 0
BBX 12 22 0 -5
BITMAP
1c00
0f00
0380
f070
6020
6020
6020
6020
6020
6020
6020
6020
6020
6020
7040
3fc0
1f80
0000
0000
0000
0000
0000
ENDCHAR
STARTCHAR U00da
ENCODING 218
SWIDTH 500 0
DWIDTH 12 0
BBX 12 22 0 -5
BITMAP
0380
0f00
1c00
f070
6020
6020
6020
6020
6020
6020
6020
6020
6020
6020
7040
3fc0
1f80
0000
0000
0000
0000
0000
ENDCHAR
STARTCHAR U00db
ENCODING 219
SWIDTH 500 0
DWIDTH 12 0
BBX 12 22 0 -5
BITMAP
0600
0f00
1980
f070
6020
6020
6020
6020
6020
6020
6020
6020
6020
6020
7040
3fc0
1f80
0000
0000
0000
0000
0000
ENDCHAR
STARTCHAR U00dc
ENCODING 220
SWIDTH 500 0
DWIDTH 12 0
BBX 12 22 0 -5
BITMAP
1980
1980
0000
f070
6020
6020
6020
6020
6020
6020
6020
6020
6020
6020
7040
3fc0
1f80
0000
0000
0000
0000
0000
ENDCHAR
STARTCHAR U00dd
ENCODING 221
SWIDTH 500 0
DWIDTH 12 0
BBX 12 22 0 -5
BITMAP
0380
0f00
1c00
f070
6020
3040
1880
1880
0d00
0600
0600
0600
0600
0600
0600
0600
0f00
0000
0000
0000
0000
0000
ENDCHAR
STARTCHAR U00de
ENCODING 222
SWIDTH 500 0
DWIDTH 12 0
BBX 12 22 0 -5
BITMAP
0000
0000
0000
7800
3000
3000
3f80
30c0
3060
3060
3060
3060
30c0
3f80
3000
3000
7800
0000
0000
0000
0000
0000
ENDCHAR
STARTCHAR U00df
ENCODING 223
SWIDTH 500 0
DWIDTH 12 0
BBX 12 22 0 -5
BITMAP
0000
0000
0f00
1980
1980
3180
3180
3380
3600
3600
3600
3380
31c0
30e0
3460
3660
77c0
0000
0000
0000
0000
0000
ENDCHAR
STARTCHAR U00e0
ENCODING 224
SWIDTH 500 0
DWIDTH 12 0
BBX 12 22 0 -5
BITMAP
0000
0000
0000
1c00
0f00
0380
0000
0f80
18c0
10c0
03c0
1cc0
30c0
30c0
30c0
39c0
1ee0
0000
0000
0000
0000
0000
ENDCHAR
STARTCHAR U00e1
ENCODING 225
SWIDTH 500 0
DWIDTH 12 0
BBX 12 22 0 -5
BITMAP
0000
0000
0000
0380
0f00
1c00
0000
0f80
18c0
10c0
03c0
1cc0
30c0
30c0
30c0
39c0
1ee0
0000
0000
0000
0000
0000
ENDCHAR
STARTCHAR U00e2
ENCODING 226
SWIDTH 500 0
DWIDTH 12 0
BBX 12 22 0 -5
BITMAP
0000
0000
0000
0600
0f00
1980
0000
0f80
18c0
10c0
03c0
1cc0
30c0
30c0
30c0
39c0
1ee0
0000
0000
0000
0000
0000
ENDCHAR
STARTCHAR U00e3
ENCODING 227
SWIDTH 500 0
DWIDTH 12 0
BBX 12 22 0 -5
BITMAP
0000
0000
0000
0cc0
1f80
3300
0000
0f80
18c0
10c0
03c0
1cc0
30c0
30c0
30c0
39c0
1ee0
0000
0000
0000
0000
0000
ENDCHAR
STARTCHAR U00e4
ENCODING 228
SWIDTH 500 0
DWIDTH 12 0
BBX 12 22 0 -5
BITMAP
0000
0000
0000
1980
1980
0000
0000
0f80
18c0
10c0
03c0
1cc0
30c0
30c0
30c0
39c0
1ee0
0000
0000
0000
0000
0000
ENDCHAR
STARTCHAR U00e5
ENCODING 229
SWIDTH 500 0
DWIDTH 12 0
BBX 12 22 0 -5
BITMAP
0000
0600
0f00
1980
0f00
0600
0000
0f80
18c0
10c0
03c0
1cc0
30c0
30c0
30c0
39c0
1ee0
0000
0000
0000
0000
0000
ENDCHAR
STARTCHAR U00e6
ENCODING 230
SWIDTH 500 0
DWIDTH 12 0
BBX 12 22 0 -5
BITMAP
0000
0000
0000
0000
0000
0000
0000
1f80
3640
2660
0e60
3fe0
6600
6600
6600
6760
3fc0
0000
0000
0000
0000
0000
ENDCHAR
STARTCHAR U00e7
ENCODING 231
SWIDTH 500 0
DWIDTH 12 0
BBX 12 22 0 -5
BITMAP
0000
0000
0000
0000
0000
0000
0000
1f80
31c0
20c0
6000
6000
6000
6000
7040
30c0
1f80
0200
0300
0180
0980
0700
ENDCHAR
STARTCHAR U00e8
ENCODING 232
SWIDTH 500 0
DWIDTH 12 0
BBX 12 22 0 -5
BITMAP
0000
0000
0000
1c00
0f00
0380
0000
0f00
30c0
6060
6060
7fe0
6000
6000
3000
1860
0f80
0000
0000
0000
0000
0000
ENDCHAR
STARTCHAR U00e9
ENCODING 233
SWIDTH 500 0
DWIDTH 12 0
BBX 12 22 0 -5
BITMAP
0000
0000
0000
0380
0f00
1c00
0000
0f00
30c0
6060
6060
7fe0
6000
6000
3000
1860
0f80
0000
0000
0000
0000
0000
ENDCHAR
STARTCHAR U00ea
ENCODING 234
SWIDTH 500 0
DWIDTH 12 0
BBX 12 22 0 -5
BITMAP
0000
0000
0000
0600
0f00
1980
0000
0f00
30c0
6060
6060
7fe0
6000
6000
3000
1860
0f80
0000
0000
0000
0000
0000
ENDCHAR
STARTCHAR U00eb
ENCODING 235
SWIDTH 500 0
DWIDTH 12 0
BBX 12 22 0 -5
BITMAP
0000
0000
0000
1980
1980
0000
0000
0f00
30c0
6060
6060
7fe0
6000
6000
3000
1860
0f80
0000
0000
0000
0000
0000
ENDCHAR
STARTCHAR U00ec
ENCODING 236
SWIDTH 500 0
DWIDTH 12 0
BBX 12 22 0 -5
BITMAP
0000
0000
0000
1c00
0f00
0380
0000
1e00
0600
0600
0600
0600
0600
0600
0600
0600
1f80
0000
0000
0000
0000
0000
ENDCHAR
STARTCHAR U00ed
ENCODING 237
SWIDTH 500 0
DWIDTH 12 0
BBX 12 22 0 -5
BITMAP
0000
0000
0000
0380
0f00
1c00
0000
1e00
0600
0600
0600
0600
0600
0600
0600
0600
1f80
0000
0000
0000
0000
0000
ENDCHAR
STARTCHAR U00ee
ENCODING 238
SWIDTH 500 0
DWIDTH 12 0
BBX 12 22 0 -5
BITMAP
0000
0000
0000
0600
0f00
1980
0000
1e00
0600
0600
0600
0600
0600
0600
0600
0600
1f80
0000
0000
0000
0000
0000
ENDCHAR
STARTCHAR U00ef
ENCODING 239
SWIDTH 500 0
DWIDTH 12 0
BBX 12 22 0 -5
BITMAP
0000
0000
0000
1980
1980
0000
0000
1e00
0600
0600
0600
0600
0600
0600
0600
0600
1f80
0000
0000
0000
0000
0000
ENDCHAR
STARTCHAR U00f0
ENCODING 240
SWIDTH 500 0
DWIDTH 12 0
BBX 12 22 0 -5
BITMAP
0000
0000
30c0
1f80
0600
1f00
3180
01c0
0fc0
10e0
20e0
6060
6060
6060
7040
3880
1f00
0000
0000
0000
0000
0000
ENDCHAR
STARTCHAR U00f1
ENCODING 241
SWIDTH 500 0
DWIDTH 12 0
BBX 12 22 0 -5
BITMAP
0000
0000
0000
0cc0
1f80
3300
0000
2780
79c0
30c0
30c0
30c0
30c0
30c0
30c0
30c0
79e0
0000
0000
0000
0000
0000
ENDCHAR
STARTCHAR U00f2
ENCODING 242
SWIDTH 500 0
DWIDTH 12 0
BBX 12 22 0 -5
BITMAP
0000
0000
0000
1c00
0f00
0380
0000
0f80
11c0
20e0
6060
6060
6060
6060
7040
3880
1f00
0000
0000
0000
0000
0000
ENDCHAR
STARTCHAR U00f3
ENCODING 243
SWIDTH 500 0
DWIDTH 12 0
BBX 12 22 0 -5
BITMAP
0000
0000
0000
0380
0f00
1c00
0000
0f80
11c0
20e0
6060
6060
6060
6060
7040
3880
1f00
0000
0000
0000
0000
0000
ENDCHAR
STARTCHAR U00f4
ENCODING 244
SWIDTH 500 0
DWIDTH 12 0
BBX 12 22 0 -5
BITMAP
0000
0000
0000
0600
0f00
1980
0000
0f80
11c0
20e0
6060
6060
6060
6060
7040
3880
1f00
0000
0000
0000
0000
0000
ENDCHAR
STARTCHAR U00f5
ENCODING 245
SWIDTH 500 0
DWIDTH 12 0
BBX 12 22 0 -5
BITMAP
0000
0000
0000
0cc0
1f80
3300
0000
0f80
11c0
20e0
6060
6060
6060
6060
7040
3880
1f00
0000
0000
0000
0000
0000
ENDCHAR
STARTCHAR U00f6
ENCODING 246
SWIDTH 500 0
DWIDTH 12 0
BBX 12 22 0 -5
BITMAP
0000
0000
0000
1980
1980
0000
0000
0f80
11c0
20e0
6060
6060
6060
6060
7040
3880
1f00
0000
0000
0000
0000
0000
ENDCHAR
STARTCHAR U00f7
ENCODING 247
SWIDTH 500 0
DWIDTH 12 0
BBX 12 22 0 -5
BITMAP
0000
0000
0000
0000
0000
0000
0000
0600
0600
0000
0000
7fe0
7fe0
0000
0000
0600
0600
0000
0000
0000
0000
0000
ENDCHAR
STARTCHAR U00f8
ENCODING 248
SWIDTH 500 0
DWIDTH 12 0
BBX 12 22 0 -5
BITMAP
0000
0000
0000
0000
0000
0000
0000
0fe0
11c0
21e0
6360
6660
6660
6c60
7840
3880
7f00
0000
0000
0000
0000
0000
ENDCHAR
STARTCHAR U00f9
ENCODING 249
SWIDTH 500 0
DWIDTH 12 0
BBX 12 22 0 -5
BITMAP
0000
0000
0000
1c00
0f00
0380
0000
79e0
30c0
30c0
30c0
30c0
30c0
30c0
30c0
39c0
1e60
0000
0000
0000
0000
0000
ENDCHAR
STARTCHAR U00fa
ENCODING 250
SWIDTH 500 0
DWIDTH 12 0
BBX 12 22 0 -5
BITMAP
0000
0000
0000
0380
0f00
1c00
0000
79e0
30c0
30c0
30c0
30c0
30c0
30c0
30c0
39c0
1e60
0000
0000
0000
0000
0000
ENDCHAR
STARTCHAR U00fb
ENCODING 251
SWIDTH 500 0
DWIDTH 12 0
BBX 12 22 0 -5
BITMAP
0000
0000
0000
0600
0f00
1980
0000
79e0
30c0
30c0
30c0
30c0
30c0
30c0
30c0
39c0
1e60
0000
0000
0000
0000
0000
ENDCHAR
STARTCHAR U00fc
ENCODING 252
SWIDTH 500 0
DWIDTH 12 0
BBX 12 22 0 -5
BITMAP
0000
0000
0000
1980
1980
0000
0000
79e0
30c0
30c0
30c0
30c0
30c0
30c0
30c0
39c0
1e60
0000
0000
0000
0000
0000
ENDCHAR
STARTCHAR U00fd
ENCODING 253
SWIDTH 500 0
DWIDTH 12 0
BBX 12 22 0 -5
BITMAP
0000
0000
0000
0380
0f00
1c00
0000
f0f0
6020
3040
3040
1880
1880
0d00
0d00
0600
0600
0400
0c00
0800
7800
7000
ENDCHAR
STARTCHAR U00fe
ENCODING 254
SWIDTH 500 0
DWIDTH 12 0
BBX 12 22 0 -5
BITMAP
0000
0000
e000
6000
6000
6000
6000
6f80
71c0
60e0
6060
6060
6060
6060
6040
7080
7f00
6000
6000
6000
6000
f000
ENDCHAR
STARTCHAR U00ff
ENCODING 255
SWIDTH 500 0
DWIDTH 12 0
BBX 12 22 0 -5
BITMAP
0000
0000
0000
1980
1980
0000
0000
f0f0
6020
3040
3040
1880
1880
0d00
0d00
0600
0600
0400
0c00
0800
7800
7000
ENDCHAR
STARTCHAR U0100
ENCODING 256
SWIDTH 500 0
DWIDTH 12 0
BBX 12 22 0 -5
BITMAP
1f80
1f80
0000
0600
0600
0b00
0b00
0900
1180
1180
1080
3fc0
20c0
2040
4060
4060
e0f0
0000
0000
0000
0000
0000
ENDCHAR
STARTCHAR U0101
ENCODING 257
SWIDTH 500 0
DWIDTH 12 0
BBX 12 22 0 -5
BITMAP
0000
0000
0000
0fc0
0fc0
0000
0000
0f80
18c0
10c0
03c0
1cc0
30c0
30c0
30c0
39c0
1ee0
0000
0000
0000
0000
0000
ENDCHAR
STARTCHAR U0102
ENCODING 258
SWIDTH 500 0
DWIDTH 12 0
BBX 12 22 0 -5
BITMAP
1980
1980
0f00
0600
0600
0b00
0b00
0900
1180
1180
1080
3fc0
20c0
2040
4060
4060
e0f0
0000
0000
0000
0000
0000
ENDCHAR
STARTCHAR U0103
ENCODING 259
SWIDTH 500 0
DWIDTH 12 0
BBX 12 22 0 -5
BITMAP
0000
0000
0cc0
0cc0
0780
0000
0000
0f80
18c0
10c0
03c0
1cc0
30c0
30c0
30c0
39c0
1ee0
0000
0000
0000
0000
0000
ENDCHAR
STARTCHAR U0104
ENCODING 260
SWIDTH 500 0
DWIDTH 12 0
BBX 12 22 0 -5
BITMAP
0000
0000
0000
0600
0600
0b00
0b00
0900
1180
1180
1080
3fc0
20c0
2040
4060
4060
e0f0
00c0
0180
0300
01e0
0000
ENDCHAR
STARTCHAR U0105
ENCODING 261
SWIDTH 500 0
DWIDTH 12 0
BBX 12 22 0 -5
BITMAP
0000
0000
0000
0000
0000
0000
0000
0f80
18c0
10c0
03c0
1cc0
30c0
30c0
30c0
39c0
1ee0
00c0
0180
0300
01e0
0000
ENDCHAR
STARTCHAR U0106
ENCODING 262
SWIDTH 500 0
DWIDTH 12 0
BBX 12 22 0 -5
BITMAP
0300
0600
0c00
0fc0
1060
2020
2000
6000
6000
6000
6000
6000
6000
2000
3020
1840
0f80
0000
0000
0000
0000
0000
ENDCHAR
STARTCHAR U0107
ENCODING 263
SWIDTH 500 0
DWIDTH 12 0
BBX 12 22 0 -5
BITMAP
0000
0000
0000
0300
0600
0c00
0000
1f80
31c0
20c0
6000
6000
6000
6000
7040
30c0
1f80
0000
0000
0000
0000
0000
ENDCHAR
STARTCHAR U0108
ENCODING 264
SWIDTH 500 0
DWIDTH 12 0
BBX 12 22 0 -5
BITMAP
0700
0d80
0000
0fc0
1060
2020
2000
6000
6000
6000
6000
6000
6000
2000
3020
1840
0f80
0000
0000
0000
0000
0000
ENDCHAR
STARTCHAR U0109
ENCODING 265
SWIDTH 500 0
DWIDTH 12 0
BBX 12 22 0 -5
BITMAP
0000
0000
0400
0e00
1b00
3180
0000
1f80
31c0
20c0
6000
6000
6000
6000
7040
30c0
1f80
0000
0000
0000
0000
0000
ENDCHAR
STARTCHAR U010a
ENCODING 266
SWIDTH 500 0
DWIDTH 12 0
BBX 12 22 0 -5
BITMAP
0600
0600
0000
0fc0
1060
2020
2000
6000
6000
6000
6000
6000
6000
2000
3020
1840
0f80
0000
0000
0000
0000
0000
ENDCHAR
STARTCHAR U010b
ENCODING 267
SWIDTH 500 0
DWIDTH 12 0
BBX 12 22 0 -5
BITMAP
0000
0000
0000
0000
0600
0600
0000
1f80
31c0
20c0
6000
6000
6000
6000
7040
30c0
1f80
0000
0000
0000
0000
0000
ENDCHAR
STARTCHAR U010c
ENCODING 268
SWIDTH 500 0
DWIDTH 12 0
BBX 12 22 0 -5
BITMAP
18c0
0d80
0700
0fc0
1060
2020
2000
6000
6000
6000
6000
6000
6000
2000
3020
1840
0f80
0000
0000
0000
0000
0000
ENDCHAR
STARTCHAR U010d
ENCODING 269
SWIDTH 500 0
DWIDTH 12 0
BBX 12 22 0 -5
BITMAP
0000
0000
3180
1b00
0e00
0400
0000
1f80
31c0
20c0
6000
6000
6000
6000
7040
30c0
1f80
0000
0000
0000
0000
0000
ENDCHAR
STARTCHAR U010e
ENCODING 270
SWIDTH 500 0
DWIDTH 12 0
BBX 12 22 0 -5
BITMAP
3180
1b00
0e00
ff00
61c0
60c0
6060
6060
6060
6060
6060
6060
6060
6060
6040
6180
fe00
0000
0000
0000
0000
0000
ENDCHAR
STARTCHAR U010f
ENCODING 271
SWIDTH 500 0
DWIDTH 12 0
BBX 12 22 0 -5
BITMAP
3180
1b00
0e60
04e0
0060
0060
0060
0f60
31e0
20e0
6060
6060
6060
6060
70e0
3960
1e70
0000
0000
0000
0000
0000
ENDCHAR
STARTCHAR U0110
ENCODING 272
SWIDTH 500 0
DWIDTH 12 0
BBX 12 22 0 -5
BITMAP
0000
0000
0000
ff00
61c0
60c0
6060
6060
6060
fc60
6060
6060
6060
6060
6040
6180
fe00
0000
0000
0000
0000
0000
ENDCHAR
STARTCHAR U0111
ENCODING 273
SWIDTH 500 0
DWIDTH 12 0
BBX 12 22 0 -5
BITMAP
0000
0000
0060
00e0
0060
07f0
0060
0f60
31e0
20e0
6060
6060
6060
6060
70e0
3960
1e70
0000
0000
0000
0000
0000
ENDCHAR
STARTCHAR U0112
ENCODING 274
SWIDTH 500 0
DWIDTH 12 0
BBX 12 22 0 -5
BITMAP
1f80
1f80
0000
7fc0
3040
3040
3000
3000
3080
3f80
3080
3000
3000
3000
3020
3020
7fe0
0000
0000
0000
0000
0000
ENDCHAR
STARTCHAR U0113
ENCODING 275
SWIDTH 500 0
DWIDTH 12 0
BBX 12 22 0 -5
BITMAP
0000
0000
0000
1f80
1f80
0000
0000
0f00
30c0
6060
6060
7fe0
6000
6000
3000
1860
0f80
0000
0000
0000
0000
0000
ENDCHAR
STARTCHAR U0114
ENCODING 276
SWIDTH 500 0
DWIDTH 12 0
BBX 12 22 0 -5
BITMAP
0cc0
0cc0
0780
7fc0
3040
3040
3000
3000
3080
3f80
3080
3000
3000
3000
3020
3020
7fe0
0000
0000
0000
0000
0000
ENDCHAR
STARTCHAR U0115
ENCODING 277
SWIDTH 500 0
DWIDTH 12 0
BBX 12 22 0 -5
BITMAP
0000
0000
0cc0
0cc0
0780
0000
0000
0f00
30c0
6060
6060
7fe0
6000
6000
3000
1860
0f80
0000
0000
0000
0000
0000
ENDCHAR
STARTCHAR U0116
ENCODING 278
SWIDTH 500 0
DWIDTH 12 0
BBX 12 22 0 -5
BITMAP
0600
0600
0000
7fc0
3040
3040
3000
3000
3080
3f80
3080
3000
3000
3000
3020
3020
7fe0
0000
0000
0000
0000
0000
ENDCHAR
STARTCHAR U0117
ENCODING 279
SWIDTH 500 0
DWIDTH 12 0
BBX 12 22 0 -5
BITMAP
0000
0000
0000
0000
0600
0600
0000
0f00
30c0
6060
6060
7fe0
6000
6000
3000
1860
0f80
0000
0000
0000
0000
0000
ENDCHAR
STARTCHAR U0118
ENCODING 280
SWIDTH 500 0
DWIDTH 12 0
BBX 12 22 0 -5
BITMAP
0000
0000
0000
7fc0
3040
3040
3000
3000
3080
3f80
3080
3000
3000
3000
3020
3020
7fe0
00c0
0180
0300
01e0
0000
ENDCHAR
STARTCHAR U0119
ENCODING 281
SWIDTH 500 0
DWIDTH 12 0
BBX 12 22 0 -5
BITMAP
0000
0000
0000
0000
0000
0000
0000
0f00
30c0
6060
6060
7fe0
6000
6000
3000
1860
0f80
0600
0c00
1800
0f00
0000
ENDCHAR
STARTCHAR U011a
ENCODING 282
SWIDTH 500 0
DWIDTH 12 0
BBX 12 22 0 -5
BITMAP
18c0
0d80
0700
7fc0
3040
3040
3000
3000
3080
3f80
3080
3000
3000
3000
3020
3020
7fe0
0000
0000
0000
0000
0000
ENDCHAR
STARTCHAR U011b
ENCODING 283
SWIDTH 500 0
DWIDTH 12 0
BBX 12 22 0 -5
BITMAP
0000
0000
18c0
0d80
0700
0200
0000
0f00
30c0
6060
6060
7fe0
6000
6000
3000
1860
0f80
0000
0000
0000
0000
0000
ENDCHAR
STARTCHAR U011c
ENCODING 284
SWIDTH 500 0
DWIDTH 12 0
BBX 12 22 0 -5
BITMAP
0700
0d80
0000
0fc0
1060
2020
2000
6000
6000
6000
6000
61f0
6060
2060
3060
1860
0f80
0000
0000
0000
0000
0000
ENDCHAR
STARTCHAR U011d
ENCODING 285
SWIDTH 500 0
DWIDTH 12 0
BBX 12 22 0 -5
BITMAP
0000
0000
0200
0700
0d80
18c0
0000
1f20
31e0
60c0
60c0
60c0
3180
3f00
6000
7fc0
3fe0
2060
4020
4020
7fc0
3f80
ENDCHAR
STARTCHAR U011e
ENCODING 286
SWIDTH 500 0
DWIDTH 12 0
BBX 12 22 0 -5
BITMAP
0cc0
0cc0
0780
0fc0
1060
2020
2000
6000
6000
6000
6000
61f0
6060
2060
3060
1860
0f80
0000
0000
0000
0000
0000
ENDCHAR
STARTCHAR U011f
ENCODING 287
SWIDTH 500 0
DWIDTH 12 0
BBX 12 22 0 -5
BITMAP
0000
0000
1980
1980
0f00
0000
0000
1f20
31e0
60c0
60c0
60c0
3180
3f00
6000
7fc0
3fe0
2060
4020
4020
7fc0
3f80
ENDCHAR
STARTCHAR U0120
ENCODING 288
SWIDTH 500 0
DWIDTH 12 0
BBX 12 22 0 -5
BITMAP
0300
0300
0000
0fc0
1060
2020
2000
6000
6000
6000
6000
61f0
6060
2060
3060
1860
0f80
0000
0000
0000
0000
0000
ENDCHAR
STARTCHAR U0121
ENCODING 289
SWIDTH 500 0
DWIDTH 12 0
BBX 12 22 0 -5
BITMAP
0000
0000
0000
0000
0600
0600
0000
1f20
31e0
60c0
60c0
60c0
3180
3f00
6000
7fc0
3fe0
2060
4020
4020
7fc0
3f80
ENDCHAR
STARTCHAR U0122
ENCODING 290
SWIDTH 500 0
DWIDTH 12 0
BBX 12 22 0 -5
BITMAP
0000
0000
0000
0fc0
1060
2020
2000
6000
6000
6000
6000
61f0
6060
2060
3060
1860
0f80
0600
0300
0180
0f00
0000
ENDCHAR
STARTCHAR U0123
ENCODING 291
SWIDTH 500 0
DWIDTH 12 0
BBX 12 22 0 -5
BITMAP
0000
0000
0600
0c00
0e00
0e00
0000
1f20
31e0
60c0
60c0
60c0
3180
3f00
6000
7fc0
3fe0
2060
4020
4020
7fc0
3f80
ENDCHAR
STARTCHAR U0124
ENCODING 292
SWIDTH 500 0
DWIDTH 12 0
BBX 12 22 0 -5
BITMAP
0700
0d80
0000
f0f0
6060
6060
6060
6060
6060
7fe0
6060
6060
6060
6060
6060
6060
f0f0
0000
0000
0000
0000
0000
ENDCHAR
STARTCHAR U0125
ENCODING 293
SWIDTH 500 0
DWIDTH 12 0
BBX 12 22 0 -5
BITMAP
0000
0380
16c0
3000
7000
3000
3000
3780
39c0
30c0
30c0
30c0
30c0
30c0
30c0
30c0
79e0
0000
0000
0000
0000
0000
ENDCHAR
STARTCHAR U0126
ENCODING 294
SWIDTH 500 0
DWIDTH 12 0
BBX 12 22 0 -5
BITMAP
0000
0000
0000
f0f0
6060
6060
fff0
6060
6060
7fe0
6060
6060
6060
6060
6060
6060
f0f0
0000
0000
0000
0000
0000
ENDCHAR
STARTCHAR U0127
ENCODING 295
SWIDTH 500 0
DWIDTH 12 0
BBX 12 22 0 -5
BITMAP
0000
0000
1000
3000
7000
7e00
3000
3780
39c0
30c0
30c0
30c0
30c0
30c0
30c0
30c0
79e0
0000
0000
0000
0000
0000
ENDCHAR
STARTCHAR U0128
ENCODING 296
SWIDTH 500 0
DWIDTH 12 0
BBX 12 22 0 -5
BITMAP
0e40
1fc0
1380
0000
1f80
0600
0600
0600
0600
0600
0600
0600
0600
0600
0600
0600
1f80
0000
0000
0000
0000
0000
ENDCHAR
STARTCHAR U0129
ENCODING 297
SWIDTH 500 0
DWIDTH 12 0
BBX 12 22 0 -5
BITMAP
0000
0000
1c80
3f80
2700
0000
0000
1e00
0600
0600
0600
0600
0600
0600
0600
0600
1f80
0000
0000
0000
0000
0000
ENDCHAR
STARTCHAR U012a
ENCODING 298
SWIDTH 500 0
DWIDTH 12 0
BBX 12 22 0 -5
BITMAP
1f80
1f80
0000
1f80
0600
0600
0600
0600
0600
0600
0600
0600
0600
0600
0600
0600
1f80
0000
0000
0000
0000
0000
ENDCHAR
STARTCHAR U012b
ENCODING 299
SWIDTH 500 0
DWIDTH 12 0
BBX 12 22 0 -5
BITMAP
0000
0000
0000
1f80
1f80
0000
0000
1e00
0600
0600
0600
0600
0600
0600
0600
0600
1f80
0000
0000
0000
0000
0000
ENDCHAR
STARTCHAR U012c
ENCODING 300
SWIDTH 500 0
DWIDTH 12 0
BBX 12 22 0 -5
BITMAP
1980
1980
0f00
1f80
0600
0600
0600
0600
0600
0600
0600
0600
0600
0600
0600
0600
1f80
0000
0000
0000
0000
0000
ENDCHAR
STARTCHAR U012d
ENCODING 301
SWIDTH 500 0
DWIDTH 12 0
BBX 12 22 0 -5
BITMAP
0000
0000
1980
1980
0f00
0000
0000
1e00
0600
0600
0600
0600
0600
0600
0600
0600
1f80
0000
0000
0000
0000
0000
ENDCHAR
STARTCHAR U012e
ENCODING 302
SWIDTH 500 0
DWIDTH 12 0
BBX 12 22 0 -5
BITMAP
0000
0000
0000
1f80
0600
0600
0600
0600
0600
0600
0600
0600
0600
0600
0600
0600
1f80
0600
0c00
1800
0f00
0000
ENDCHAR
STARTCHAR U012f
ENCODING 303
SWIDTH 500 0
DWIDTH 12 0
BBX 12 22 0 -5
BITMAP
0000
0000
0000
0600
0600
0000
0000
1e00
0600
0600
0600
0600
0600
0600
0600
0600
1f80
0600
0c00
1800
0f00
0000
ENDCHAR
STARTCHAR U0130
ENCODING 304
SWIDTH 500 0
DWIDTH 12 0
BBX 12 22 0 -5
BITMAP
0600
0600
0000
1f80
0600
0600
0600
0600
0600
0600
0600
0600
0600
0600
0600
0600
1f80
0000
0000
0000
0000
0000
ENDCHAR
STARTCHAR U0131
ENCODING 305
SWIDTH 500 0
DWIDTH 12 0
BBX 12 22 0 -5
BITMAP
0000
0000
0000
0000
0000
0000
0000
1e00
0600
0600
0600
0600
0600
0600
0600
0600
1f80
0000
0000
0000
0000
0000
ENDCHAR
STARTCHAR U0132
ENCODING 306
SWIDTH 500 0
DWIDTH 12 0
BBX 12 22 0 -5
BITMAP
0000
0000
0000
78f0
3060
3060
3060
3060
3060
3060
3060
3060
3060
3060
3060
3360
79c0
0000
0000
0000
0000
0000
ENDCHAR
STARTCHAR U0133
ENCODING 307
SWIDTH 500 0
DWIDTH 12 0
BBX 12 22 0 -5
BITMAP
0000
0000
0000
3060
3060
0000
0000
70e0
3060
3060
3060
3060
3060
3060
3060
3060
7860
0060
0c60
0e40
07c0
0380
ENDCHAR
STARTCHAR U0134
ENCODING 308
SWIDTH 500 0
DWIDTH 12 0
BBX 12 22 0 -5
BITMAP
0e00
1b00
0000
1f80
0600
0600
0600
0600
0600
0600
0600
0600
0600
0600
0600
0600
0600
0600
0600
0400
3800
3000
ENDCHAR
STARTCHAR U0135
ENCODING 309
SWIDTH 500 0
DWIDTH 12 0
BBX 12 22 0 -5
BITMAP
0000
0000
0200
0700
0d80
18c0
0000
03c0
00c0
00c0
00c0
00c0
00c0
00c0
00c0
00c0
00c0
20c0
30c0
3880
1f00
0e00
ENDCHAR
STARTCHAR U0136
ENCODING 310
SWIDTH 500 0
DWIDTH 12 0
BBX 12 22 0 -5
BITMAP
0000
0000
0000
f0e0
6180
6300
6600
6c00
7800
7800
7c00
6e00
6700
6380
61c0
60e0
f070
0600
0300
0180
0f00
0000
ENDCHAR
STARTCHAR U0137
ENCODING 311
SWIDTH 500 0
DWIDTH 12 0
BBX 12 22 0 -5
BITMAP
0000
0000
6000
e000
6000
6000
6000
61c0
6300
6600
7c00
7800
7c00
6e00
6700
6380
f1e0
0600
0300
0180
0f00
0000
ENDCHAR
STARTCHAR U0138
ENCODING 312
SWIDTH 500 0
DWIDTH 12 0
BBX 12 22 0 -5
BITMAP
0000
0000
0000
0000
0000
0000
6000
e1c0
6300
6600
7c00
7800
7c00
6e00
6700
6380
f1e0
0000
0000
0000
0000
0000
ENDCHAR
STARTCHAR U0139
ENCODING 313
SWIDTH 500 0
DWIDTH 12 0
BBX 12 22 0 -5
BITMAP
0c00
1800
3000
7800
3000
3000
3000
3000
3000
3000
3000
3000
3000
3000
3020
3020
7fe0
0000
0000
0000
0000
0000
ENDCHAR
STARTCHAR U013a
ENCODING 314
SWIDTH 500 0
DWIDTH 12 0
BBX 12 22 0 -5
BITMAP
0300
0600
0c00
0000
1e00
0600
0600
0600
0600
0600
0600
0600
0600
0600
0600
0600
1f80
0000
0000
0000
0000
0000
ENDCHAR
STARTCHAR U013b
ENCODING 315
SWIDTH 500 0
DWIDTH 12 0
BBX 12 22 0 -5
BITMAP
0000
0000
0000
7800
3000
3000
3000
3000
3000
3000
3000
3000
3000
3000
3020
3020
7fe0
0600
0300
0180
0f00
0000
ENDCHAR
STARTCHAR U013c
ENCODING 316
SWIDTH 500 0
DWIDTH 12 0
BBX 12 22 0 -5
BITMAP
0000
0000
1e00
0600
0600
0600
0600
0600
0600
0600
0600
0600
0600
0600
0600
0600
1f80
0600
0300
0180
0f00
0000
ENDCHAR
STARTCHAR U013d
ENCODING 317
SWIDTH 500 0
DWIDTH 12 0
BBX 12 22 0 -5
BITMAP
0c60
06c0
0380
7900
3000
3000
3000
3000
3000
3000
3000
3000
3000
3000
3020
3020
7fe0
0000
0000
0000
0000
0000
ENDCHAR
STARTCHAR U013e
ENCODING 318
SWIDTH 500 0
DWIDTH 12 0
BBX 12 22 0 -5
BITMAP
18c0
0d80
0700
0000
1e00
0600
0600
0600
0600
0600
0600
0600
0600
0600
0600
0600
1f80
0000
0000
0000
0000
0000
ENDCHAR
STARTCHAR U013f
ENCODING 319
SWIDTH 500 0
DWIDTH 12 0
BBX 12 22 0 -5
BITMAP
0000
0000
0000
7800
3000
3000
3000
3000
3180
3180
3000
3000
3000
3000
3020
3020
7fe0
0000
0000
0000
0000
0000
ENDCHAR
STARTCHAR U0140
ENCODING 320
SWIDTH 500 0
DWIDTH 12 0
BBX 12 22 0 -5
BITMAP
0000
0000
1e00
0600
0600
0600
0600
0600
0660
0660
0600
0600
0600
0600
0600
0600
1f80
0000
0000
0000
0000
0000
ENDCHAR
STARTCHAR U0141
ENCODING 321
SWIDTH 500 0
DWIDTH 12 0
BBX 12 22 0 -5
BITMAP
0000
0000
0000
7800
3000
3000
3400
3800
3000
3000
7000
b000
3000
3000
3020
3020
7fe0
0000
0000
0000
0000
0000
ENDCHAR
STARTCHAR U0142
ENCODING 322
SWIDTH 500 0
DWIDTH 12 0
BBX 12 22 0 -5
BITMAP
0000
0000
1e00
0600
0600
0680
0700
0600
0600
0e00
1600
0600
0600
0600
0600
0600
1f80
0000
0000
0000
0000
0000
ENDCHAR
STARTCHAR U0143
ENCODING 323
SWIDTH 500 0
DWIDTH 12 0
BBX 12 22 0 -5
BITMAP
0180
0300
0600
c070
6020
7020
7820
5820
4c20
4620
4720
4320
41a0
40e0
40e0
4060
e030
0000
0000
0000
0000
0000
ENDCHAR
STARTCHAR U0144
ENCODING 324
SWIDTH 500 0
DWIDTH 12 0
BBX 12 22 0 -5
BITMAP
0000
0000
0000
0180
0300
0600
0000
2780
79c0
30c0
30c0
30c0
30c0
30c0
30c0
30c0
79e0
0000
0000
0000
0000
0000
ENDCHAR
STARTCHAR U0145
ENCODING 325
SWIDTH 500 0
DWIDTH 12 0
BBX 12 22 0 -5
BITMAP
0000
0000
0000
c070
6020
7020
7820
5820
4c20
4620
4720
4320
41a0
40e0
40e0
4060
e030
0600
0300
0180
0f00
0000
ENDCHAR
STARTCHAR U0146
ENCODING 326
SWIDTH 500 0
DWIDTH 12 0
BBX 12 22 0 -5
BITMAP
0000
0000
0000
0000
0000
0000
0000
2780
79c0
30c0
30c0
30c0
30c0
30c0
30c0
30c0
79e0
0600
0300
0180
0f00
0000
ENDCHAR
STARTCHAR U0147
ENCODING 327
SWIDTH 500 0
DWIDTH 12 0
BBX 12 22 0 -5
BITMAP
18c0
0d80
0700
c270
6020
7020
7820
5820
4c20
4620
4720
4320
41a0
40e0
40e0
4060
e030
0000
0000
0000
0000
0000
ENDCHAR
STARTCHAR U0148
ENCODING 328
SWIDTH 500 0
DWIDTH 12 0
BBX 12 22 0 -5
BITMAP
0000
0000
18c0
0d80
0700
0200
0000
2780
79c0
30c0
30c0
30c0
30c0
30c0
30c0
30c0
79e0
0000
0000
0000
0000
0000
ENDCHAR
STARTCHAR U0149
ENCODING 329
SWIDTH 500 0
DWIDTH 12 0
BBX 12 22 0 -5
BITMAP
0000
e000
e000
6000
6000
4000
8000
2780
79c0
30c0
30c0
30c0
30c0
30c0
30c0
30c0
79e0
0000
0000
0000
0000
0000
ENDCHAR
STARTCHAR U014a
ENCODING 330
SWIDTH 500 0
DWIDTH 12 0
BBX 12 22 0 -5
BITMAP
0000
0000
0000
c070
6020
7020
7820
5820
4c20
4620
4720
4320
41a0
40e0
40e0
4060
e060
0060
0060
0040
0380
0300
ENDCHAR
STARTCHAR U014b
ENCODING 331
SWIDTH 500 0
DWIDTH 12 0
BBX 12 22 0 -5
BITMAP
0000
0000
0000
0000
0000
0000
0000
2780
79c0
30c0
30c0
30c0
30c0
30c0
30c0
30c0
78c0
00c0
00c0
0080
0700
0600
ENDCHAR
STARTCHAR U014c
ENCODING 332
SWIDTH 500 0
DWIDTH 12 0
BBX 12 22 0 -5
BITMAP
1f80
1f80
0000
0f00
11c0
20c0
2060
6060
6060
6060
6060
6060
6060
2040
3040
1880
0f00
0000
0000
0000
0000
0000
ENDCHAR
STARTCHAR U014d
ENCODING 333
SWIDTH 500 0
DWIDTH 12 0
BBX 12 22 0 -5
BITMAP
0000
0000
0000
1f80
1f80
0000
0000
0f80
11c0
20e0
6060
6060
6060
6060
7040
3880
1f00
0000
0000
0000
0000
0000
ENDCHAR
STARTCHAR U014e
ENCODING 334
SWIDTH 500 0
DWIDTH 12 0
BBX 12 22 0 -5
BITMAP
0cc0
0cc0
0780
0f00
11c0
20c0
2060
6060
6060
6060
6060
6060
6060
2040
3040
1880
0f00
0000
0000
0000
0000
0000
ENDCHAR
STARTCHAR U014f
ENCODING 335
SWIDTH 500 0
DWIDTH 12 0
BBX 12 22 0 -5
BITMAP
0000
0000
0000
0cc0
0cc0
0780
0000
0f80
11c0
20e0
6060
6060
6060
6060
7040
3880
1f00
0000
0000
0000
0000
0000
ENDCHAR
STARTCHAR U0150
ENCODING 336
SWIDTH 500 0
DWIDTH 12 0
BBX 12 22 0 -5
BITMAP
0360
06c0
0d80
0f00
11c0
20c0
2060
6060
6060
6060
6060
6060
6060
2040
3040
1880
0f00
0000
0000
0000
0000
0000
ENDCHAR
STARTCHAR U0151
ENCODING 337
SWIDTH 500 0
DWIDTH 12 0
BBX 12 22 0 -5
BITMAP
0000
0000
0000
06c0
0d80
1b00
0000
0f80
11c0
20e0
6060
6060
6060
6060
7040
3880
1f00
0000
0000
0000
0000
0000
ENDCHAR
STARTCHAR U0152
ENCODING 338
SWIDTH 500 0
DWIDTH 12 0
BBX 12 22 0 -5
BITMAP
0000
0000
0000
1fe0
2620
4620
4600
c600
c610
c7f0
c610
c600
c600
4600
6610
3610
1ff0
0000
0000
0000
0000
0000
ENDCHAR
STARTCHAR U0153
ENCODING 339
SWIDTH 500 0
DWIDTH 12 0
BBX 12 22 0 -5
BITMAP
0000
0000
0000
0000
0000
0000
0000
1de0
2230
4230
c230
c3f0
c200
c200
e200
7330
3de0
0000
0000
0000
0000
0000
ENDCHAR
STARTCHAR U0154
ENCODING 340
SWIDTH 500 0
DWIDTH 12 0
BBX 12 22 0 -5
BITMAP
0180
0300
0600
ff00
6180
60c0
60c0
60c0
6080
7f00
7c00
6e00
6700
6380
61c0
60e0
f070
0000
0000
0000
0000
0000
ENDCHAR
STARTCHAR U0155
ENCODING 341
SWIDTH 500 0
DWIDTH 12 0
BBX 12 22 0 -5
BITMAP
0000
0000
0000
0300
0600
0c00
0000
7380
34c0
38c0
3000
3000
3000
3000
3000
3000
7800
0000
0000
0000
0000
0000
ENDCHAR
STARTCHAR U0156
ENCODING 342
SWIDTH 500 0
DWIDTH 12 0
BBX 12 22 0 -5
BITMAP
0000
0000
0000
ff00
6180
60c0
60c0
60c0
6080
7f00
7c00
6e00
6700
6380
61c0
60e0
f070
0600
0300
0180
0f00
0000
ENDCHAR
STARTCHAR U0157
ENCODING 343
SWIDTH 500 0
DWIDTH 12 0
BBX 12 22 0 -5
BITMAP
0000
0000
0000
0000
0000
0000
0000
7380
34c0
38c0
3000
3000
3000
3000
3000
3000
7800
1800
0c00
0600
3c00
0000
ENDCHAR
STARTCHAR U0158
ENCODING 344
SWIDTH 500 0
DWIDTH 12 0
BBX 12 22 0 -5
BITMAP
3180
1b00
0e00
ff00
6180
60c0
60c0
60c0
6080
7f00
7c00
6e00
6700
6380
61c0
60e0
f070
0000
0000
0000
0000
0000
ENDCHAR
STARTCHAR U0159
ENCODING 345
SWIDTH 500 0
DWIDTH 12 0
BBX 12 22 0 -5
BITMAP
0000
0000
3180
1b00
0e00
0400
0000
7380
34c0
38c0
3000
3000
3000
3000
3000
3000
7800
0000
0000
0000
0000
0000
ENDCHAR
STARTCHAR U015a
ENCODING 346
SWIDTH 500 0
DWIDTH 12 0
BBX 12 22 0 -5
BITMAP
0180
0300
0600
1fe0
3060
6020
6020
7000
3c00
1e00
0780
01c0
00e0
4060
4060
60c0
7f80
0000
0000
0000
0000
0000
ENDCHAR
STARTCHAR U015b
ENCODING 347
SWIDTH 500 0
DWIDTH 12 0
BBX 12 22 0 -5
BITMAP
0000
0000
0000
0180
0300
0600
0000
1fc0
30c0
3040
3800
1e00
0780
01c0
20c0
30c0
3f80
0000
0000
0000
0000
0000
ENDCHAR
STARTCHAR U015c
ENCODING 348
SWIDTH 500 0
DWIDTH 12 0
BBX 12 22 0 -5
BITMAP
0700
0d80
0000
1fe0
3060
6020
6020
7000
3c00
1e00
0780
01c0
00e0
4060
4060
60c0
7f80
0000
0000
0000
0000
0000
ENDCHAR
STARTCHAR U015d
ENCODING 349
SWIDTH 500 0
DWIDTH 12 0
BBX 12 22 0 -5
BITMAP
0000
0000
0200
0700
0d80
18c0
0000
1fc0
30c0
3040
3800
1e00
0780
01c0
20c0
30c0
3f80
0000
0000
0000
0000
0000
ENDCHAR
STARTCHAR U015e
ENCODING 350
SWIDTH 500 0
DWIDTH 12 0
BBX 12 22 0 -5
BITMAP
0000
0000
0000
1fe0
3060
6020
6020
7000
3c00
1e00
0780
01c0
00e0
4060
4060
60c0
7f80
0600
0300
0180
0f00
0000
ENDCHAR
STARTCHAR U015f
ENCODING 351
SWIDTH 500 0
DWIDTH 12 0
BBX 12 22 0 -5
BITMAP
0000
0000
0000
0000
0000
0000
0000
1fc0
30c0
3040
3800
1e00
0780
01c0
20c0
30c0
3f80
0600
0300
0180
0f00
0000
ENDCHAR
STARTCHAR U0160
ENCODING 352
SWIDTH 500 0
DWIDTH 12 0
BBX 12 22 0 -5
BITMAP
18c0
0d80
0700
1fe0
3060
6020
6020
7000
3c00
1e00
0780
01c0
00e0
4060
4060
60c0
7f80
0000
0000
0000
0000
0000
ENDCHAR
STARTCHAR U0161
ENCODING 353
SWIDTH 500 0
DWIDTH 12 0
BBX 12 22 0 -5
BITMAP
0000
0000
18c0
0d80
0700
0200
0000
1fc0
30c0
3040
3800
1e00
0780
01c0
20c0
30c0
3f80
0000
0000
0000
0000
0000
ENDCHAR
STARTCHAR U0162
ENCODING 354
SWIDTH 500 0
DWIDTH 12 0
BBX 12 22 0 -5
BITMAP
0000
0000
0000
7fe0
4620
0600
0600
0600
0600
0600
0600
0600
0600
0600
0600
0600
1f80
0600
0300
0180
0f00
0000
ENDCHAR
STARTCHAR U0163
ENCODING 355
SWIDTH 500 0
DWIDTH 12 0
BBX 12 22 0 -5
BITMAP
0000
0000
0000
0000
0400
0400
0c00
7fc0
0c00
0c00
0c00
0c00
0c00
0c00
0c20
0e40
0780
0600
0300
0180
0f00
0000
ENDCHAR
STARTCHAR U0164
ENCODING 356
SWIDTH 500 0
DWIDTH 12 0
BBX 12 22 0 -5
BITMAP
18c0
0d80
0700
7fe0
4620
0600
0600
0600
0600
0600
0600
0600
0600
0600
0600
0600
1f80
0000
0000
0000
0000
0000
ENDCHAR
STARTCHAR U0165
ENCODING 357
SWIDTH 500 0
DWIDTH 12 0
BBX 12 22 0 -5
BITMAP
3180
1b00
0e00
0000
0400
0400
0c00
7fc0
0c00
0c00
0c00
0c00
0c00
0c00
0c20
0e40
0780
0000
0000
0000
0000
0000
ENDCHAR
STARTCHAR U0166
ENCODING 358
SWIDTH 500 0
DWIDTH 12 0
BBX 12 22 0 -5
BITMAP
0000
0000
0000
7fe0
4620
0600
0600
0600
0600
3fc0
0600
0600
0600
0600
0600
0600
1f80
0000
0000
0000
0000
0000
ENDCHAR
STARTCHAR U0167
ENCODING 359
SWIDTH 500 0
DWIDTH 12 0
BBX 12 22 0 -5
BITMAP
0000
0000
0000
0000
0400
0400
0c00
7fc0
0c00
0c00
3f80
0c00
0c00
0c00
0c20
0e40
0780
0000
0000
0000
0000
0000
ENDCHAR
STARTCHAR U0168
ENCODING 360
SWIDTH 500 0
DWIDTH 12 0
BBX 12 22 0 -5
BITMAP
0e40
1fc0
1380
f070
6020
6020
6020
6020
6020
6020
6020
6020
6020
6020
7040
3fc0
1f80
0000
0000
0000
0000
0000
ENDCHAR
STARTCHAR U0169
ENCODING 361
SWIDTH 500 0
DWIDTH 12 0
BBX 12 22 0 -5
BITMAP
0000
0000
0000
0e40
1fc0
1380
0000
79e0
30c0
30c0
30c0
30c0
30c0
30c0
30c0
39c0
1e60
0000
0000
0000
0000
0000
ENDCHAR
STARTCHAR U016a
ENCODING 362
SWIDTH 500 0
DWIDTH 12 0
BBX 12 22 0 -5
BITMAP
1f80
1f80
0000
f070
6020
6020
6020
6020
6020
6020
6020
6020
6020
6020
7040
3fc0
1f80
0000
0000
0000
0000
0000
ENDCHAR
STARTCHAR U016b
ENCODING 363
SWIDTH 500 0
DWIDTH 12 0
BBX 12 22 0 -5
BITMAP
0000
0000
0000
1f80
1f80
0000
0000
79e0
30c0
30c0
30c0
30c0
30c0
30c0
30c0
39c0
1e60
0000
0000
0000
0000
0000
ENDCHAR
STARTCHAR U016c
ENCODING 364
SWIDTH 500 0
DWIDTH 12 0
BBX 12 22 0 -5
BITMAP
0cc0
0cc0
0780
f070
6020
6020
6020
6020
6020
6020
6020
6020
6020
6020
7040
3fc0
1f80
0000
0000
0000
0000
0000
ENDCHAR
STARTCHAR U016d
ENCODING 365
SWIDTH 500 0
DWIDTH 12 0
BBX 12 22 0 -5
BITMAP
0000
0000
0000
0cc0
0cc0
0780
0000
79e0
30c0
30c0
30c0
30c0
30c0
30c0
30c0
39c0
1e60
0000
0000
0000
0000
0000
ENDCHAR
STARTCHAR U016e
ENCODING 366
SWIDTH 500 0
DWIDTH 12 0
BBX 12 22 0 -5
BITMAP
0700
0d80
0d80
f770
6020
6020
6020
6020
6020
6020
6020
6020
6020
6020
7040
3fc0
1f80
0000
0000
0000
0000
0000
ENDCHAR
STARTCHAR U016f
ENCODING 367
SWIDTH 500 0
DWIDTH 12 0
BBX 12 22 0 -5
BITMAP
0000
0000
0700
0d80
0d80
0700
0000
79e0
30c0
30c0
30c0
30c0
30c0
30c0
30c0
39c0
1e60
0000
0000
0000
0000
0000
ENDCHAR
STARTCHAR U0170
ENCODING 368
SWIDTH 500 0
DWIDTH 12 0
BBX 12 22 0 -5
BITMAP
06c0
0d80
1b00
f070
6020
6020
6020
6020
6020
6020
6020
6020
6020
6020
7040
3fc0
1f80
0000
0000
0000
0000
0000
ENDCHAR
STARTCHAR U0171
ENCODING 369
SWIDTH 500 0
DWIDTH 12 0
BBX 12 22 0 -5
BITMAP
0000
0000
0000
06c0
0d80
1b00
0000
79e0
30c0
30c0
30c0
30c0
30c0
30c0
30c0
39c0
1e60
0000
0000
0000
0000
0000
ENDCHAR
STARTCHAR U0172
ENCODING 370
SWIDTH 500 0
DWIDTH 12 0
BBX 12 22 0 -5
BITMAP
0000
0000
0000
f070
6020
6020
6020
6020
6020
6020
6020
6020
6020
6020
7040
3fc0
1f80
0180
0300
0600
03c0
0000
ENDCHAR
STARTCHAR U0173
ENCODING 371
SWIDTH 500 0
DWIDTH 12 0
BBX 12 22 0 -5
BITMAP
0000
0000
0000
0000
0000
0000
0000
79e0
30c0
30c0
30c0
30c0
30c0
30c0
30c0
39c0
1e60
00c0
0180
0300
01e0
0000
ENDCHAR
STARTCHAR U0174
ENCODING 372
SWIDTH 500 0
DWIDTH 12 0
BBX 12 22 0 -5
BITMAP
0700
0d80
0000
fef0
6620
6620
6620
7620
7740
3340
3740
3bc0
3b80
1980
1980
1980
1980
0000
0000
0000
0000
0000
ENDCHAR
STARTCHAR U0175
ENCODING 373
SWIDTH 500 0
DWIDTH 12 0
BBX 12 22 0 -5
BITMAP
0000
0000
0200
0700
0d80
18c0
0000
ff70
6620
6620
6620
3740
3b40
3b40
1980
1980
1980
0000
0000
0000
0000
0000
ENDCHAR
STARTCHAR U0176
ENCODING 374
SWIDTH 500 0
DWIDTH 12 0
BBX 12 22 0 -5
BITMAP
0700
0d80
0000
f070
6020
3040
1880
1880
0d00
0600
0600
0600
0600
0600
0600
0600
0f00
0000
0000
0000
0000
0000
ENDCHAR
STARTCHAR U0177
ENCODING 375
SWIDTH 500 0
DWIDTH 12 0
BBX 12 22 0 -5
BITMAP
0000
0000
0200
0700
0d80
18c0
0000
f0f0
6020
3040
3040
1880
1880
0d00
0d00
0600
0600
0400
0c00
0800
7800
7000
ENDCHAR
STARTCHAR U0178
ENCODING 376
SWIDTH 500 0
DWIDTH 12 0
BBX 12 22 0 -5
BITMAP
1980
1980
0000
f070
6020
3040
1880
1880
0d00
0600
0600
0600
0600
0600
0600
0600
0f00
0000
0000
0000
0000
0000
ENDCHAR
STARTCHAR U0179
ENCODING 377
SWIDTH 500 0
DWIDTH 12 0
BBX 12 22 0 -5
BITMAP
0180
0300
0600
3fe0
20c0
00c0
0180
0180
0300
0300
0600
0600
0c00
0c00
1800
1820
3fe0
0000
0000
0000
0000
0000
ENDCHAR
STARTCHAR U017a
ENCODING 378
SWIDTH 500 0
DWIDTH 12 0
BBX 12 22 0 -5
BITMAP
0000
0000
0000
0300
0600
0c00
0000
7fe0
60e0
41c0
0380
0700
0e00
1c00
3820
7060
7fe0
0000
0000
0000
0000
0000
ENDCHAR
STARTCHAR U017b
ENCODING 379
SWIDTH 500 0
DWIDTH 12 0
BBX 12 22 0 -5
BITMAP
0300
0300
0000
3fe0
20c0
00c0
0180
0180
0300
0300
0600
0600
0c00
0c00
1800
1820
3fe0
0000
0000
0000
0000
0000
ENDCHAR
STARTCHAR U017c
ENCODING 380
SWIDTH 500 0
DWIDTH 12 0
BBX 12 22 0 -5
BITMAP
0000
0000
0000
0000
0600
0600
0000
7fe0
60e0
41c0
0380
0700
0e00
1c00
3820
7060
7fe0
0000
0000
0000
0000
0000
ENDCHAR
STARTCHAR U017d
ENCODING 381
SWIDTH 500 0
DWIDTH 12 0
BBX 12 22 0 -5
BITMAP
18c0
0d80
0700
3fe0
20c0
00c0
0180
0180
0300
0300
0600
0600
0c00
0c00
1800
1820
3fe0
0000
0000
0000
0000
0000
ENDCHAR
STARTCHAR U017e
ENCODING 382
SWIDTH 500 0
DWIDTH 12 0
BBX 12 22 0 -5
BITMAP
0000
0000
18c0
0d80
0700
0200
0000
7fe0
60e0
41c0
0380
0700
0e00
1c00
3820
7060
7fe0
0000
0000
0000
0000
0000
ENDCHAR
STARTCHAR U017f
ENCODING 383
SWIDTH 500 0
DWIDTH 12 0
BBX 12 22 0 -5
BITMAP
0000
0000
0380
04c0
04c0
0c00
0c00
0c00
0c00
3c00
0c00
0c00
0c00
0c00
0c00
0c00
1e00
0000
0000
0000
0000
0000
ENDCHAR
STARTCHAR U0180
ENCODING 384
SWIDTH 500 0
DWIDTH 12 0
BBX 12 22 0 -5
BITMAP
0000
0000
2000
6000
fe00
6000
6000
6780
6fc0
70e0
6060
6060
6060
6060
7060
78c0
4f80
0000
0000
0000
0000
0000
ENDCHAR
STARTCHAR U0181
ENCODING 385
SWIDTH 500 0
DWIDTH 12 0
BBX 12 22 0 -5
BITMAP
0000
0000
0000
7f80
d840
d860
1860
1860
18c0
1fc0
1860
1830
1830
1830
1830
1860
3fc0
0000
0000
0000
0000
0000
ENDCHAR
STARTCHAR U0182
ENCODING 386
SWIDTH 500 0
DWIDTH 12 0
BBX 12 22 0 -5
BITMAP
0000
0000
0000
ffc0
6040
6040
6000
6000
6000
7f80
60c0
6060
6060
6060
6060
60c0
ff80
0000
0000
0000
0000
0000
ENDCHAR
STARTCHAR U0183
ENCODING 387
SWIDTH 500 0
DWIDTH 12 0
BBX 12 22 0 -5
BITMAP
0000
0000
7fc0
6000
6000
6000
6000
6780
6fc0
70e0
6060
6060
6060
6060
7060
78c0
4f80
0000
0000
0000
0000
0000
ENDCHAR
STARTCHAR U0184
ENCODING 388
SWIDTH 500 0
DWIDTH 12 0
BBX 12 22 0 -5
BITMAP
0000
0000
1000
3000
7000
f000
b000
3380
37c0
38e0
3060
3060
3060
3060
3060
30c0
3f80
0000
0000
0000
0000
0000
ENDCHAR
STARTCHAR U0185
ENCODING 389
SWIDTH 500 0
DWIDTH 12 0
BBX 12 22 0 -5
BITMAP
0000
0000
0000
0000
1000
3000
7000
f000
b000
3380
37c0
38e0
3060
3060
3060
30c0
3f80
0000
0000
0000
0000
0000
ENDCHAR
STARTCHAR U0186
ENCODING 390
SWIDTH 500 0
DWIDTH 12 0
BBX 12 22 0 -5
BITMAP
0000
0000
0000
0f00
11c0
20c0
0060
0060
0060
0060
0060
0060
0060
0040
3040
1880
0f00
0000
0000
0000
0000
0000
ENDCHAR
STARTCHAR U0187
ENCODING 391
SWIDTH 500 0
DWIDTH 12 0
BBX 12 22 0 -5
BITMAP
0000
0030
0060
0f40
11c0
20c0
2000
6000
6000
6000
6000
6000
6000
6000
3040
3880
0f00
0000
0000
0000
0000
0000
ENDCHAR
STARTCHAR U0188
ENCODING 392
SWIDTH 500 0
DWIDTH 12 0
BBX 12 22 0 -5
BITMAP
0000
0000
0000
0000
0030
0060
0040
1fc0
31c0
20c0
6000
6000
6000
6000
7040
30c0
1f80
0000
0000
0000
0000
0000
ENDCHAR
STARTCHAR U0189
ENCODING 393
SWIDTH 500 0
DWIDTH 12 0
BBX 12 22 0 -5
BITMAP
0000
0000
0000
ff00
61c0
60c0
6060
6060
6060
fc60
6060
6060
6060
6060
6040
6180
fe00
0000
0000
0000
0000
0000
ENDCHAR
STARTCHAR U018a
ENCODING 394
SWIDTH 500 0
DWIDTH 12 0
BBX 12 22 0 -5
BITMAP
0000
0000
0000
7f80
d8e0
d860
1830
1830
1830
1830
1830
1830
1830
1830
1820
18c0
3f00
0000
0000
0000
0000
0000
ENDCHAR
STARTCHAR U018b
ENCODING 395
SWIDTH 500 0
DWIDTH 12 0
BBX 12 22 0 -5
BITMAP
0000
0000
0000
7fe0
40c0
40c0
00c0
00c0
00c0
3fc0
60c0
c0c0
c0c0
c0c0
c0c0
60c0
3fe0
0000
0000
0000
0000
0000
ENDCHAR
STARTCHAR U018c
ENCODING 396
SWIDTH 500 0
DWIDTH 12 0
BBX 12 22 0 -5
BITMAP
0000
0000
3fe0
0060
0060
0060
0060
1e60
3f60
70e0
6060
6060
6060
6060
60e0
31e0
1f20
0000
0000
0000
0000
0000
ENDCHAR
STARTCHAR U018d
ENCODING 397
SWIDTH 500 0
DWIDTH 12 0
BBX 12 22 0 -5
BITMAP
0000
0000
0000
0f80
11c0
20e0
6060
6060
6060
7040
3880
1f00
0e00
0700
0380
00c0
1f80
0000
0000
0000
0000
0000
ENDCHAR
STARTCHAR U018e
ENCODING 398
SWIDTH 500 0
DWIDTH 12 0
BBX 12 22 0 -5
BITMAP
0000
0000
0000
3fe0
20c0
20c0
00c0
00c0
10c0
1fc0
10c0
00c0
00c0
00c0
40c0
40c0
7fe0
0000
0000
0000
0000
0000
ENDCHAR
STARTCHAR U018f
ENCODING 399
SWIDTH 500 0
DWIDTH 12 0
BBX 12 22 0 -5
BITMAP
0000
0000
0000
0f00
11c0
20c0
2060
0060
0060
0060
0060
7fe0
6060
2040
3040
1880
0f00
0000
0000
0000
0000
0000
ENDCHAR
STARTCHAR U0190
ENCODING 400
SWIDTH 500 0
DWIDTH 12 0
BBX 12 22 0 -5
BITMAP
0000
0000
1f80
3fc0
7020
6060
6000
3000
1c00
1f80
3000
6000
6000
6020
2060
1fc0
0f80
0000
0000
0000
0000
0000
ENDCHAR
STARTCHAR U0191
ENCODING 401
SWIDTH 500 0
DWIDTH 12 0
BBX 12 22 0 -5
BITMAP
0000
0000
0000
3fe0
1820
1820
1800
1800
1840
1fc0
1840
1800
1800
1800
1800
1800
d800
d000
6000
0000
0000
0000
ENDCHAR
STARTCHAR U0192
ENCODING 402
SWIDTH 500 0
DWIDTH 12 0
BBX 12 22 0 -5
BITMAP
0000
0000
0380
04c0
04c0
0c00
0c00
0c00
0c00
1f80
0c00
0c00
0c00
0c00
0c00
0c00
6c00
6800
1000
0000
0000
0000
ENDCHAR
STARTCHAR U0193
ENCODING 403
SWIDTH 500 0
DWIDTH 12 0
BBX 12 22 0 -5
BITMAP
0000
0060
00b0
1fb0
2180
4080
4000
c000
c000
c000
c000
c3e0
c0c0
40c0
60c0
30c0
1f00
0000
0000
0000
0000
0000
ENDCHAR
STARTCHAR U0194
ENCODING 404
SWIDTH 500 0
DWIDTH 12 0
BBX 12 22 0 -5
BITMAP
0000
0000
0000
f070
6020
6020
6040
3040
3080
1880
1900
0d00
0e00
0600
0e00
1300
1300
2180
2180
1f00
0000
0000
ENDCHAR
STARTCHAR U0195
ENCODING 405
SWIDTH 500 0
DWIDTH 12 0
BBX 12 22 0 -5
BITMAP
0000
0000
2000
6000
e000
6000
6000
6e30
7330
6330
6330
6330
6330
6330
6330
6330
f1e0
0000
0000
0000
0000
0000
ENDCHAR
STARTCHAR U0196
ENCODING 406
SWIDTH 500 0
DWIDTH 12 0
BBX 12 22 0 -5
BITMAP
0000
0000
0000
1e00
0600
0600
0600
0600
0600
0600
0600
0600
0600
0600
0600
0600
1f80
0000
0000
0000
0000
0000
ENDCHAR
STARTCHAR U0197
ENCODING 407
SWIDTH 500 0
DWIDTH 12 0
BBX 12 22 0 -5
BITMAP
0000
0000
0000
1f80
0600
0600
0600
0600
0600
3fc0
0600
0600
0600
0600
0600
0600
1f80
0000
0000
0000
0000
0000
ENDCHAR
STARTCHAR U0198
ENCODING 408
SWIDTH 500 0
DWIDTH 12 0
BBX 12 22 0 -5
BITMAP
0000
0000
0000
f060
6190
6330
6600
6c00
7800
7800
7c00
6e00
6700
6380
61c0
60e0
f070
0000
0000
0000
0000
0000
ENDCHAR
STARTCHAR U0199
ENCODING 409
SWIDTH 500 0
DWIDTH 12 0
BBX 12 22 0 -5
BITMAP
1800
2400
6c00
6000
6000
6000
6000
61c0
6300
6600
7c00
7800
7c00
6e00
6700
6380
f1e0
0000
0000
0000
0000
0000
ENDCHAR
STARTCHAR U019a
ENCODING 410
SWIDTH 500 0
DWIDTH 12 0
BBX 12 22 0 -5
BITMAP
0000
0000
1e00
0600
0600
0600
0600
0600
3fc0
0600
0600
0600
0600
0600
0600
0600
1f80
0000
0000
0000
0000
0000
ENDCHAR
STARTCHAR U019b
ENCODING 411
SWIDTH 500 0
DWIDTH 12 0
BBX 12 22 0 -5
BITMAP
0000
0000
0000
1c00
1c00
0e30
06c0
0700
0e00
3b00
cb00
1180
1180
1180
20c0
20c0
71e0
0000
0000
0000
0000
0000
ENDCHAR
STARTCHAR U019c
ENCODING 412
SWIDTH 500 0
DWIDTH 12 0
BBX 12 22 0 -5
BITMAP
0000
0000
ef70
6660
6660
6660
6660
6660
6660
6660
6660
6660
6660
6660
6660
7760
3bb0
0000
0000
0000
0000
0000
ENDCHAR
STARTCHAR U019d
ENCODING 413
SWIDTH 500 0
DWIDTH 12 0
BBX 12 22 0 -5
BITMAP
0000
0000
0000
6070
3020
3820
3c20
2c20
2620
2220
2320
2320
21a0
20e0
20e0
2060
2030
e000
c000
0000
0000
0000
ENDCHAR
STARTCHAR U019e
ENCODING 414
SWIDTH 500 0
DWIDTH 12 0
BBX 12 22 0 -5
BITMAP
0000
0000
0000
0000
0000
0000
0000
2780
79c0
30c0
30c0
30c0
30c0
30c0
30c0
30c0
78c0
00c0
00c0
00c0
00c0
01e0
ENDCHAR
STARTCHAR U019f
ENCODING 415
SWIDTH 500 0
DWIDTH 12 0
BBX 12 22 0 -5
BITMAP
0000
0000
0000
0f00
11c0
20c0
2060
6060
6160
6d60
6b60
6860
6060
2040
3040
1880
0f00
0000
0000
0000
0000
0000
ENDCHAR
STARTCHAR U01a0
ENCODING 416
SWIDTH 500 0
DWIDTH 12 0
BBX 12 22 0 -5
BITMAP
0000
0000
0000
1e30
23b0
41a0
40c0
c0c0
c0c0
c0c0
c0c0
c0c0
c0c0
4080
6080
3100
1e00
0000
0000
0000
0000
0000
ENDCHAR
STARTCHAR U01a1
ENCODING 417
SWIDTH 500 0
DWIDTH 12 0
BBX 12 22 0 -5
BITMAP
0000
0000
0000
0000
0000
0000
0000
1f30
23b0
41e0
c0c0
c0c0
c0c0
c0c0
e080
7100
3e00
0000
0000
0000
0000
0000
ENDCHAR
STARTCHAR U01a2
ENCODING 418
SWIDTH 500 0
DWIDTH 12 0
BBX 12 22 0 -5
BITMAP
0000
0000
0000
1c10
2730
4370
43b0
c1b0
c1b0
c1b0
c1b0
c1b0
c1b0
41b0
6330
3230
1c30
0030
0030
0030
0030
0070
ENDCHAR
STARTCHAR U01a3
ENCODING 419
SWIDTH 500 0
DWIDTH 12 0
BBX 12 22 0 -5
BITMAP
0000
0000
0000
0000
0000
0000
0000
0000
1c10
2730
4370
41b0
c1b0
c1b0
41b0
6330
3c30
0030
0030
0030
0030
0070
ENDCHAR
STARTCHAR U01a4
ENCODING 420
SWIDTH 500 0
DWIDTH 12 0
BBX 12 22 0 -5
BITMAP
0000
0000
0000
7fc0
9860
d830
d830
1830
1860
1bc0
1800
1800
1800
1800
1800
1800
3c00
0000
0000
0000
0000
0000
ENDCHAR
STARTCHAR U01a5
ENCODING 421
SWIDTH 500 0
DWIDTH 12 0
BBX 12 22 0 -5
BITMAP
0000
0000
0000
0000
1800
2c00
6000
6f80
71c0
60e0
6060
6060
6060
6060
6040
7080
7f00
6000
6000
6000
6000
f000
ENDCHAR
STARTCHAR U01a6
ENCODING 422
SWIDTH 500 0
DWIDTH 12 0
BBX 12 22 0 -5
BITMAP
0000
0000
f800
6000
7f00
6180
60c0
60c0
6080
7f00
7000
7800
6c00
6600
6300
6180
e0c0
0060
0030
0000
0000
0000
ENDCHAR
STARTCHAR U01a7
ENCODING 423
SWIDTH 500 0
DWIDTH 12 0
BBX 12 22 0 -5
BITMAP
0000
0000
0000
7f80
60c0
4060
4060
00e0
03c0
0780
1e00
3800
7000
6020
6020
3060
1fe0
0000
0000
0000
0000
0000
ENDCHAR
STARTCHAR U01a8
ENCODING 424
SWIDTH 500 0
DWIDTH 12 0
BBX 12 22 0 -5
BITMAP
0000
0000
0000
0000
0000
0000
0000
3f80
30c0
20c0
01c0
0780
1e00
3800
3040
30c0
1fc0
0000
0000
0000
0000
0000
ENDCHAR
STARTCHAR U01a9
ENCODING 425
SWIDTH 500 0
DWIDTH 12 0
BBX 12 22 0 -5
BITMAP
0000
0000
0000
7fe0
6020
3020
1800
1800
0c00
0700
0700
0400
0800
1000
2020
4020
7fe0
0000
0000
0000
0000
0000
ENDCHAR
STARTCHAR U01aa
ENCODING 426
SWIDTH 500 0
DWIDTH 12 0
BBX 12 22 0 -5
BITMAP
0000
0000
3800
6400
6400
3e00
0600
0600
0600
0600
0600
0600
0600
0600
0600
0600
0600
0660
0260
01c0
0000
0000
ENDCHAR
STARTCHAR U01ab
ENCODING 427
SWIDTH 500 0
DWIDTH 12 0
BBX 12 22 0 -5
BITMAP
0000
0000
0000
0000
0400
0400
0c00
7fc0
0c00
0c00
0c00
0c00
0c00
0c00
0c20
0e60
07a0
0020
00c0
0380
0000
0000
ENDCHAR
STARTCHAR U01ac
ENCODING 428
SWIDTH 500 0
DWIDTH 12 0
BBX 12 22 0 -5
BITMAP
0000
0000
0000
3fe0
4620
6600
6600
0600
0600
0600
0600
0600
0600
0600
0600
0600
1f80
0000
0000
0000
0000
0000
ENDCHAR
STARTCHAR U01ad
ENCODING 429
SWIDTH 500 0
DWIDTH 12 0
BBX 12 22 0 -5
BITMAP
0000
0000
01c0
02c0
04c0
0400
0c00
7fc0
0c00
0c00
0c00
0c00
0c00
0c00
0c20
0e60
0780
0000
0000
0000
0000
0000
ENDCHAR
STARTCHAR U01ae
ENCODING 430
SWIDTH 500 0
DWIDTH 12 0
BBX 12 22 0 -5
BITMAP
0000
0000
0000
7fe0
4620
0600
0600
0600
0600
0600
0600
0600
0600
0600
0600
0600
06c0
02c0
01c0
0000
0000
0000
ENDCHAR
STARTCHAR U01af
ENCODING 431
SWIDTH 500 0
DWIDTH 12 0
BBX 12 22 0 -5
BITMAP
0060
00d0
0010
f070
6020
6020
6020
6020
6020
6020
6020
6020
6020
6020
7040
3fc0
1f80
0000
0000
0000
0000
0000
ENDCHAR
STARTCHAR U01b0
ENCODING 432
SWIDTH 500 0
DWIDTH 12 0
BBX 12 22 0 -5
BITMAP
0000
0000
0000
0000
0060
00d0
0010
79e0
30c0
30c0
30c0
30c0
30c0
30c0
30c0
39c0
1e60
0000
0000
0000
0000
0000
ENDCHAR
STARTCHAR U01b1
ENCODING 433
SWIDTH 500 0
DWIDTH 12 0
BBX 12 22 0 -5
BITMAP
0000
0000
0000
79e0
4920
0900
1180
20c0
2040
6060
6060
6060
6060
6040
3040
3880
0f00
0000
0000
0000
0000
0000
ENDCHAR
STARTCHAR U01b2
ENCODING 434
SWIDTH 500 0
DWIDTH 12 0
BBX 12 22 0 -5
BITMAP
0000
0000
0000
f060
60d0
60d0
6010
6010
6010
6020
6020
6020
6040
6040
7080
3f00
1e00
0000
0000
0000
0000
0000
ENDCHAR
STARTCHAR U01b3
ENCODING 435
SWIDTH 500 0
DWIDTH 12 0
BBX 12 22 0 -5
BITMAP
0000
0000
0000
f1e0
6090
3130
3130
1a00
1a00
1a00
0c00
0c00
0c00
0c00
0c00
0c00
1e00
0000
0000
0000
0000
0000
ENDCHAR
STARTCHAR U01b4
ENCODING 436
SWIDTH 500 0
DWIDTH 12 0
BBX 12 22 0 -5
BITMAP
0000
0000
0000
0000
0000
0000
0000
e1e0
c050
60b0
60b0
3100
3100
1a00
1a00
0c00
0c00
0800
1800
1000
f000
e000
ENDCHAR
STARTCHAR U01b5
ENCODING 437
SWIDTH 500 0
DWIDTH 12 0
BBX 12 22 0 -5
BITMAP
0000
0000
0000
3fe0
20c0
00c0
0180
0180
0300
1fe0
0600
0600
0c00
0c00
1800
1820
3fe0
0000
0000
0000
0000
0000
ENDCHAR
STARTCHAR U01b6
ENCODING 438
SWIDTH 500 0
DWIDTH 12 0
BBX 12 22 0 -5
BITMAP
0000
0000
0000
0000
0000
0000
0000
7fe0
60e0
41c0
0380
3fe0
0e00
1c00
3820
7060
7fe0
0000
0000
0000
0000
0000
ENDCHAR
STARTCHAR U01b7
ENCODING 439
SWIDTH 500 0
DWIDTH 12 0
BBX 12 22 0 -5
BITMAP
0000
0000
0000
3fe0
20c0
00c0
0180
0180
0300
0300
07c0
0fc0
00e0
0060
0060
4060
6040
3f80
1f00
0000
0000
0000
ENDCHAR
STARTCHAR U01b8
ENCODING 440
SWIDTH 500 0
DWIDTH 12 0
BBX 12 22 0 -5
BITMAP
0000
0000
0000
7fc0
3040
3000
1800
1800
0c00
0c00
3e00
3f00
7000
6000
6000
6020
2060
1fc0
0f80
0000
0000
0000
ENDCHAR
STARTCHAR U01b9
ENCODING 441
SWIDTH 500 0
DWIDTH 12 0
BBX 12 22 0 -5
BITMAP
0000
0000
0000
0000
0000
0000
0000
0000
7fc0
3040
1800
0c00
0600
3f00
7000
6000
6040
20c0
1f80
0f00
0000
0000
ENDCHAR
STARTCHAR U01ba
ENCODING 442
SWIDTH 500 0
DWIDTH 12 0
BBX 12 22 0 -5
BITMAP
0000
0000
0000
0000
0000
0000
0000
7fc0
4180
0300
0600
0c00
1800
3f80
01c0
00c0
0780
3c00
7000
6040
38c0
0f80
ENDCHAR
STARTCHAR U01bb
ENCODING 443
SWIDTH 500 0
DWIDTH 12 0
BBX 12 22 0 -5
BITMAP
0000
0000
1f00
3f80
61c0
40c0
00c0
00c0
00c0
0180
1fe0
0600
0c00
1800
3020
7fe0
7fe0
0000
0000
0000
0000
0000
ENDCHAR
STARTCHAR U01bc
ENCODING 444
SWIDTH 500 0
DWIDTH 12 0
BBX 12 22 0 -5
BITMAP
0000
0000
7fc0
7fc0
2000
2000
2000
3f80
31c0
00e0
0060
0060
0060
4060
6060
30c0
1f80
0000
0000
0000
0000
0000
ENDCHAR
STARTCHAR U01bd
ENCODING 445
SWIDTH 500 0
DWIDTH 12 0
BBX 12 22 0 -5
BITMAP
0000
0000
0000
0000
0000
7f80
7f80
2000
2000
3f80
31c0
00e0
0060
2060
3060
18c0
0f80
0000
0000
0000
0000
0000
ENDCHAR
STARTCHAR U01be
ENCODING 446
SWIDTH 500 0
DWIDTH 12 0
BBX 12 22 0 -5
BITMAP
0000
0000
0000
0000
0000
0800
0800
1800
ff80
1800
1c00
0f00
03c0
00e0
1060
1860
1fc0
0000
0000
0000
0000
0000
ENDCHAR
STARTCHAR U01bf
ENCODING 447
SWIDTH 500 0
DWIDTH 12 0
BBX 12 22 0 -5
BITMAP
0000
0000
0000
0000
0000
0000
0000
ef80
71c0
60e0
6060
6060
6060
6060
6040
6080
6100
6600
7800
6000
6000
f000
ENDCHAR
STARTCHAR U01c0
ENCODING 448
SWIDTH 500 0
DWIDTH 12 0
BBX 12 22 0 -5
BITMAP
0000
0000
0600
0600
0600
0600
0600
0600
0600
0600
0600
0600
0600
0600
0600
0600
0600
0000
0000
0000
0000
0000
ENDCHAR
STARTCHAR U01c1
ENCODING 449
SWIDTH 500 0
DWIDTH 12 0
BBX 12 22 0 -5
BITMAP
0000
0000
1980
1980
1980
1980
1980
1980
1980
1980
1980
1980
1980
1980
1980
1980
1980
0000
0000
0000
0000
0000
ENDCHAR
STARTCHAR U01c2
ENCODING 450
SWIDTH 500 0
DWIDTH 12 0
BBX 12 22 0 -5
BITMAP
0000
0000
0600
0600
0600
0600
0600
3fc0
0600
0600
3fc0
0600
0600
0600
0600
0600
0600
0000
0000
0000
0000
0000
ENDCHAR
STARTCHAR U01c3
ENCODING 451
SWIDTH 500 0
DWIDTH 12 0
BBX 12 22 0 -5
BITMAP
0000
0000
0600
0600
0600
0600
0600
0600
0600
0600
0600
0600
0600
0000
0000
0600
0600
0000
0000
0000
0000
0000
ENDCHAR
STARTCHAR U01c4
ENCODING 452
SWIDTH 500 0
DWIDTH 12 0
BBX 12 22 0 -5
BITMAP
0c30
0660
0180
f3f0
da10
cc10
c620
c620
c620
c640
c640
c640
c680
c680
c480
d910
e1f0
0000
0000
0000
0000
0000
ENDCHAR
STARTCHAR U01c5
ENCODING 453
SWIDTH 500 0
DWIDTH 12 0
BBX 12 22 0 -5
BITMAP
0000
0000
0630
f360
d9c0
cc00
c400
c5f0
c510
c420
c420
c440
c440
c480
c480
d910
e1f0
0000
0000
0000
0000
0000
ENDCHAR
STARTCHAR U01c6
ENCODING 454
SWIDTH 500 0
DWIDTH 12 0
BBX 12 22 0 -5
BITMAP
0c30
0660
0180
0c00
1c00
0c00
0c00
6df0
dd10
8c20
8c20
8c40
8c40
8c80
8c80
dd10
7bf0
0000
0000
0000
0000
0000
ENDCHAR
STARTCHAR U01c7
ENCODING 455
SWIDTH 500 0
DWIDTH 12 0
BBX 12 22 0 -5
BITMAP
0000
0000
0000
f1f0
6060
6060
6060
6060
6060
6060
6060
6060
6060
6060
6160
6160
ff60
0060
0060
0040
0380
0300
ENDCHAR
STARTCHAR U01c8
ENCODING 456
SWIDTH 500 0
DWIDTH 12 0
BBX 12 22 0 -5
BITMAP
0000
0000
0000
f030
6030
6000
6000
60f0
6030
6030
6030
6030
6030
6030
60b0
60b0
ffb0
0830
0c30
0e20
07c0
0380
ENDCHAR
STARTCHAR U01c9
ENCODING 457
SWIDTH 500 0
DWIDTH 12 0
BBX 12 22 0 -5
BITMAP
0000
0000
0000
7860
1860
1800
1800
19e0
1860
1860
1860
1860
1860
1860
1860
1860
7e60
1060
1860
1c40
0f80
0700
ENDCHAR
STARTCHAR U01ca
ENCODING 458
SWIDTH 500 0
DWIDTH 12 0
BBX 12 22 0 -5
BITMAP
0000
0000
0000
e3f0
c130
e130
e130
b130
b130
9930
9930
8d30
8d30
8730
8730
8330
c7b0
0030
0030
0020
01c0
0180
ENDCHAR
STARTCHAR U01cb
ENCODING 459
SWIDTH 500 0
DWIDTH 12 0
BBX 12 22 0 -5
BITMAP
0000
0000
0000
e330
c130
e100
e100
b170
b130
9930
9930
8d30
8d30
8730
8730
8330
c7b0
0830
0c30
0e20
07c0
0380
ENDCHAR
STARTCHAR U01cc
ENCODING 460
SWIDTH 500 0
DWIDTH 12 0
BBX 12 22 0 -5
BITMAP
0000
0000
0000
0030
0030
0000
0000
4f70
f3b0
61b0
61b0
61b0
61b0
61b0
61b0
61b0
f3f0
0830
0c30
0e20
07c0
0380
ENDCHAR
STARTCHAR U01cd
ENCODING 461
SWIDTH 500 0
DWIDTH 12 0
BBX 12 22 0 -5
BITMAP
18c0
0d80
0700
0600
0600
0b00
0b00
0900
1180
1180
1080
3fc0
20c0
2040
4060
4060
e0f0
0000
0000
0000
0000
0000
ENDCHAR
STARTCHAR U01ce
ENCODING 462
SWIDTH 500 0
DWIDTH 12 0
BBX 12 22 0 -5
BITMAP
0000
0000
18c0
0d80
0700
0000
0000
0f80
18c0
10c0
03c0
1cc0
30c0
30c0
30c0
39c0
1ee0
0000
0000
0000
0000
0000
ENDCHAR
STARTCHAR U01cf
ENCODING 463
SWIDTH 500 0
DWIDTH 12 0
BBX 12 22 0 -5
BITMAP
18c0
0d80
0700
1f80
0600
0600
0600
0600
0600
0600
0600
0600
0600
0600
0600
0600
1f80
0000
0000
0000
0000
0000
ENDCHAR
STARTCHAR U01d0
ENCODING 464
SWIDTH 500 0
DWIDTH 12 0
BBX 12 22 0 -5
BITMAP
0000
0000
3180
1b00
0e00
0000
0000
1e00
0600
0600
0600
0600
0600
0600
0600
0600
1f80
0000
0000
0000
0000
0000
ENDCHAR
STARTCHAR U01d1
ENCODING 465
SWIDTH 500 0
DWIDTH 12 0
BBX 12 22 0 -5
BITMAP
3180
1b00
0e00
0f00
11c0
20c0
2060
6060
6060
6060
6060
6060
6060
2040
3040
1880
0f00
0000
0000
0000
0000
0000
ENDCHAR
STARTCHAR U01d2
ENCODING 466
SWIDTH 500 0
DWIDTH 12 0
BBX 12 22 0 -5
BITMAP
0000
0000
3180
1b00
0e00
0000
0000
0f80
11c0
20e0
6060
6060
6060
6060
7040
3880
1f00
0000
0000
0000
0000
0000
ENDCHAR
STARTCHAR U01d3
ENCODING 467
SWIDTH 500 0
DWIDTH 12 0
BBX 12 22 0 -5
BITMAP
18c0
0d80
0700
f070
6020
6020
6020
6020
6020
6020
6020
6020
6020
6020
7040
3fc0
1f80
0000
0000
0000
0000
0000
ENDCHAR
STARTCHAR U01d4
ENCODING 468
SWIDTH 500 0
DWIDTH 12 0
BBX 12 22 0 -5
BITMAP
0000
0000
18c0
0d80
0700
0000
0000
79e0
30c0
30c0
30c0
30c0
30c0
30c0
30c0
39c0
1e60
0000
0000
0000
0000
0000
ENDCHAR
STARTCHAR U01d5
ENCODING 469
SWIDTH 500 0
DWIDTH 12 0
BBX 12 22 0 -5
BITMAP
7fe0
30c0
30c0
0000
f070
6020
6020
6020
6020
6020
6020
6020
6020
6020
7040
3fc0
1f80
0000
0000
0000
0000
0000
ENDCHAR
STARTCHAR U01d6
ENCODING 470
SWIDTH 500 0
DWIDTH 12 0
BBX 12 22 0 -5
BITMAP
0000
7fe0
0000
30c0
30c0
0000
0000
79e0
30c0
30c0
30c0
30c0
30c0
30c0
30c0
39c0
1e60
0000
0000
0000
0000
0000
ENDCHAR
STARTCHAR U01d7
ENCODING 471
SWIDTH 500 0
DWIDTH 12 0
BBX 12 22 0 -5
BITMAP
0300
6660
6c60
0000
f070
6020
6020
6020
6020
6020
6020
6020
6020
6020
7040
3fc0
1f80
0000
0000
0000
0000
0000
ENDCHAR
STARTCHAR U01d8
ENCODING 472
SWIDTH 500 0
DWIDTH 12 0
BBX 12 22 0 -5
BITMAP
0000
0180
0300
36c0
30c0
0000
0000
79e0
30c0
30c0
30c0
30c0
30c0
30c0
30c0
39c0
1e60
0000
0000
0000
0000
0000
ENDCHAR
STARTCHAR U01d9
ENCODING 473
SWIDTH 500 0
DWIDTH 12 0
BBX 12 22 0 -5
BITMAP
18c0
0d80
6760
6060
0000
f070
6020
6020
6020
6020
6020
6020
6020
6020
7040
3fc0
1f80
0000
0000
0000
0000
0000
ENDCHAR
STARTCHAR U01da
ENCODING 474
SWIDTH 500 0
DWIDTH 12 0
BBX 12 22 0 -5
BITMAP
0000
18c0
0d80
0700
6060
6060
0000
79e0
30c0
30c0
30c0
30c0
30c0
30c0
30c0
39c0
1e60
0000
0000
0000
0000
0000
ENDCHAR
STARTCHAR U01db
ENCODING 475
SWIDTH 500 0
DWIDTH 12 0
BBX 12 22 0 -5
BITMAP
0c00
0600
6360
6060
0000
f070
6020
6020
6020
6020
6020
6020
6020
6020
7040
3fc0
1f80
0000
0000
0000
0000
0000
ENDCHAR
STARTCHAR U01dc
ENCODING 476
SWIDTH 500 0
DWIDTH 12 0
BBX 12 22 0 -5
BITMAP
0000
0c00
0600
0300
6060
6060
0000
79e0
30c0
30c0
30c0
30c0
30c0
30c0
30c0
39c0
1e60
0000
0000
0000
0000
0000
ENDCHAR
STARTCHAR U01dd
ENCODING 477
SWIDTH 500 0
DWIDTH 12 0
BBX 12 22 0 -5
BITMAP
0000
0000
0000
0000
0000
0000
0000
1f00
6180
00c0
0060
0060
7fe0
6060
6060
30c0
0f00
0000
0000
0000
0000
0000
ENDCHAR
STARTCHAR U01de
ENCODING 478
SWIDTH 500 0
DWIDTH 12 0
BBX 12 22 0 -5
BITMAP
7fe0
0000
6060
6660
0600
0b00
0b00
0900
1180
1180
1080
3fc0
20c0
2040
4060
4060
e0f0
0000
0000
0000
0000
0000
ENDCHAR
STARTCHAR U01df
ENCODING 479
SWIDTH 500 0
DWIDTH 12 0
BBX 12 22 0 -5
BITMAP
0000
7fe0
0000
1980
1980
0000
0000
0f80
18c0
10c0
03c0
1cc0
30c0
30c0
30c0
39c0
1ee0
0000
0000
0000
0000
0000
ENDCHAR
STARTCHAR U01e0
ENCODING 480
SWIDTH 500 0
DWIDTH 12 0
BBX 12 22 0 -5
BITMAP
7fe0
0000
0f00
0f00
0600
0b00
0b00
0900
1180
1180
1080
3fc0
20c0
2040
4060
4060
e0f0
0000
0000
0000
0000
0000
ENDCHAR
STARTCHAR U01e1
ENCODING 481
SWIDTH 500 0
DWIDTH 12 0
BBX 12 22 0 -5
BITMAP
7fe0
0000
0600
0f00
0f00
0600
0000
0f80
18c0
10c0
03c0
1cc0
30c0
30c0
30c0
39c0
1ee0
0000
0000
0000
0000
0000
ENDCHAR
STARTCHAR U01e2
ENCODING 482
SWIDTH 500 0
DWIDTH 12 0
BBX 12 22 0 -5
BITMAP
7fe0
0000
0000
0fe0
0e20
1620
1600
1600
1640
27c0
2640
3e00
2600
4600
4610
4610
e7f0
0000
0000
0000
0000
0000
ENDCHAR
STARTCHAR U01e3
ENCODING 483
SWIDTH 500 0
DWIDTH 12 0
BBX 12 22 0 -5
BITMAP
0000
0000
0000
0000
7fe0
0000
0000
1f80
3640
2660
0e60
3fe0
6600
6600
6600
6760
3fc0
0000
0000
0000
0000
0000
ENDCHAR
STARTCHAR U01e4
ENCODING 484
SWIDTH 500 0
DWIDTH 12 0
BBX 12 22 0 -5
BITMAP
0000
0000
0000
0fc0
1060
2020
2000
6000
6000
6000
61f0
6060
6060
27f0
3060
1860
0f80
0000
0000
0000
0000
0000
ENDCHAR
STARTCHAR U01e5
ENCODING 485
SWIDTH 500 0
DWIDTH 12 0
BBX 12 22 0 -5
BITMAP
0000
0000
0000
0000
0000
0000
0000
1f20
31e0
60c0
60c0
60c0
3180
3f00
6000
7fc0
3fe0
2060
fff0
4020
7fc0
3f80
ENDCHAR
STARTCHAR U01e6
ENCODING 486
SWIDTH 500 0
DWIDTH 12 0
BBX 12 22 0 -5
BITMAP
18c0
0d80
0700
0fc0
1060
2020
2000
6000
6000
6000
6000
61f0
6060
2060
3060
1860
0f80
0000
0000
0000
0000
0000
ENDCHAR
STARTCHAR U01e7
ENCODING 487
SWIDTH 500 0
DWIDTH 12 0
BBX 12 22 0 -5
BITMAP
0000
0000
18c0
0d80
0700
0000
0000
1f20
31e0
60c0
60c0
60c0
3180
3f00
6000
7fc0
3fe0
2060
4020
4020
7fc0
3f80
ENDCHAR
STARTCHAR U01e8
ENCODING 488
SWIDTH 500 0
DWIDTH 12 0
BBX 12 22 0 -5
BITMAP
18c0
0d80
0700
f0e0
6180
6300
6600
6c00
7800
7800
7c00
6e00
6700
6380
61c0
60e0
f070
0000
0000
0000
0000
0000
ENDCHAR
STARTCHAR U01e9
ENCODING 489
SWIDTH 500 0
DWIDTH 12 0
BBX 12 22 0 -5
BITMAP
18c0
0d80
6700
e000
6000
6000
6000
61c0
6300
6600
7c00
7800
7c00
6e00
6700
6380
f1e0
0000
0000
0000
0000
0000
ENDCHAR
STARTCHAR U01ea
ENCODING 490
SWIDTH 500 0
DWIDTH 12 0
BBX 12 22 0 -5
BITMAP
0000
0000
0000
0f00
11c0
20c0
2060
6060
6060
6060
6060
6060
6060
2040
3040
1880
0f00
0600
0c00
1800
0f00
0000
ENDCHAR
STARTCHAR U01eb
ENCODING 491
SWIDTH 500 0
DWIDTH 12 0
BBX 12 22 0 -5
BITMAP
0000
0000
0000
0000
0000
0000
0000
0f80
11c0
20e0
6060
6060
6060
6060
7040
3880
1f00
0600
0c00
1800
0f00
0000
ENDCHAR
STARTCHAR U01ec
ENCODING 492
SWIDTH 500 0
DWIDTH 12 0
BBX 12 22 0 -5
BITMAP
7fe0
0000
0000
0f00
11c0
20c0
2060
6060
6060
6060
6060
6060
6060
2040
3040
1880
0f00
0600
0c00
1800
0f00
0000
ENDCHAR
STARTCHAR U01ed
ENCODING 493
SWIDTH 500 0
DWIDTH 12 0
BBX 12 22 0 -5
BITMAP
0000
0000
0000
0000
7fe0
0000
0000
0f80
11c0
20e0
6060
6060
6060
6060
7040
3880
1f00
0600
0c00
1800
0f00
0000
ENDCHAR
STARTCHAR U01ee
ENCODING 494
SWIDTH 500 0
DWIDTH 12 0
BBX 12 22 0 -5
BITMAP
18c0
0d80
0700
3fe0
20c0
00c0
0180
0180
0300
0300
07c0
0fc0
00e0
0060
0060
4060
6040
3f80
1f00
0000
0000
0000
ENDCHAR
STARTCHAR U01ef
ENCODING 495
SWIDTH 500 0
DWIDTH 12 0
BBX 12 22 0 -5
BITMAP
0000
0000
0000
3180
1b00
0e00
0000
0000
7fc0
4180
0300
0600
0c00
1f80
01c0
00c0
40c0
6080
3f00
1e00
0000
0000
ENDCHAR
STARTCHAR U01f0
ENCODING 496
SWIDTH 500 0
DWIDTH 12 0
BBX 12 22 0 -5
BITMAP
0000
0000
0c60
06c0
0380
0000
0000
0780
0180
0180
0180
0180
0180
0180
0180
0180
0180
4180
6180
7100
3e00
1c00
ENDCHAR
STARTCHAR U01f1
ENCODING 497
SWIDTH 500 0
DWIDTH 12 0
BBX 12 22 0 -5
BITMAP
0000
0000
0000
f3f0
da10
cc10
c620
c620
c620
c640
c640
c640
c680
c680
c480
d910
e1f0
0000
0000
0000
0000
0000
ENDCHAR
STARTCHAR U01f2
ENCODING 498
SWIDTH 500 0
DWIDTH 12 0
BBX 12 22 0 -5
BITMAP
0000
0000
0000
f000
d800
cc00
c400
c5f0
c510
c420
c420
c440
c440
c480
c480
d910
e1f0
0000
0000
0000
0000
0000
ENDCHAR
STARTCHAR U01f3
ENCODING 499
SWIDTH 500 0
DWIDTH 12 0
BBX 12 22 0 -5
BITMAP
0000
0000
0000
0c00
1c00
0c00
0c00
6df0
dd10
8c20
8c20
8c40
8c40
8c80
8c80
dd10
7bf0
0000
0000
0000
0000
0000
ENDCHAR
STARTCHAR U01f4
ENCODING 500
SWIDTH 500 0
DWIDTH 12 0
BBX 12 22 0 -5
BITMAP
0380
0f00
1c00
0fc0
1060
2020
2000
6000
6000
6000
6000
61f0
6060
2060
3060
1860
0f80
0000
0000
0000
0000
0000
ENDCHAR
STARTCHAR U01f5
ENCODING 501
SWIDTH 500 0
DWIDTH 12 0
BBX 12 22 0 -5
BITMAP
0000
0000
0380
0f00
1c00
0000
0000
1f20
31e0
60c0
60c0
60c0
3180
3f00
6000
7fc0
3fe0
2060
4020
4020
7fc0
3f80
ENDCHAR
STARTCHAR U01f6
ENCODING 502
SWIDTH 500 0
DWIDTH 12 0
BBX 12 22 0 -5
BITMAP
0000
0000
0000
ef00
c600
c600
c600
c600
c670
fe30
c630
c630
c630
c630
c630
c630
efe0
0000
0000
0000
0000
0000
ENDCHAR
STARTCHAR U01f7
ENCODING 503
SWIDTH 500 0
DWIDTH 12 0
BBX 12 22 0 -5
BITMAP
0000
0000
0000
ef80
71c0
60e0
6060
6060
6060
6060
6060
60c0
60c0
6100
6100
6600
7800
6000
6000
6000
6000
f000
ENDCHAR
STARTCHAR U01f8
ENCODING 504
SWIDTH 500 0
DWIDTH 12 0
BBX 12 22 0 -5
BITMAP
3800
1e00
0700
c070
6020
7020
7820
5820
4c20
4620
4720
4320
41a0
40e0
40e0
4060
e030
0000
0000
0000
0000
0000
ENDCHAR
STARTCHAR U01f9
ENCODING 505
SWIDTH 500 0
DWIDTH 12 0
BBX 12 22 0 -5
BITMAP
0000
0000
3800
1e00
0700
0000
0000
2780
79c0
30c0
30c0
30c0
30c0
30c0
30c0
30c0
79e0
0000
0000
0000
0000
0000
ENDCHAR
STARTCHAR U01fa
ENCODING 506
SWIDTH 500 0
DWIDTH 12 0
BBX 12 22 0 -5
BITMAP
0600
1800
6600
0900
0900
0600
0600
0b00
0900
1180
1180
3fc0
20c0
2040
4060
4060
e0f0
0000
0000
0000
0000
0000
ENDCHAR
STARTCHAR U01fb
ENCODING 507
SWIDTH 500 0
DWIDTH 12 0
BBX 12 22 0 -5
BITMAP
0380
0f00
1c00
0900
0900
0600
0000
0f80
18c0
10c0
03c0
1cc0
30c0
30c0
30c0
39c0
1ee0
0000
0000
0000
0000
0000
ENDCHAR
STARTCHAR U01fc
ENCODING 508
SWIDTH 500 0
DWIDTH 12 0
BBX 12 22 0 -5
BITMAP
0380
0f00
1c00
0fe0
0e20
1620
1600
1600
1640
27c0
2640
3e00
2600
4600
4610
4610
e7f0
0000
0000
0000
0000
0000
ENDCHAR
STARTCHAR U01fd
ENCODING 509
SWIDTH 500 0
DWIDTH 12 0
BBX 12 22 0 -5
BITMAP
0000
0000
0380
0f00
1c00
0000
0000
1f80
3640
2660
0e60
3fe0
6600
6600
6600
6760
3fc0
0000
0000
0000
0000
0000
ENDCHAR
STARTCHAR U01fe
ENCODING 510
SWIDTH 500 0
DWIDTH 12 0
BBX 12 22 0 -5
BITMAP
0380
0f00
1c60
0fc0
11c0
21c0
21e0
6360
6360
6660
6c60
6c60
7860
3840
3040
3880
6f00
0000
0000
0000
0000
0000
ENDCHAR
STARTCHAR U01ff
ENCODING 511
SWIDTH 500 0
DWIDTH 12 0
BBX 12 22 0 -5
BITMAP
0000
0000
0380
0f00
1c00
0000
0000
0fe0
11c0
21e0
6360
6660
6660
6c60
7840
3880
7f00
0000
0000
0000
0000
0000
ENDCHAR
STARTCHAR U0200
ENCODING 512
SWIDTH 500 0
DWIDTH 12 0
BBX 12 22 0 -5
BITMAP
e380
79e0
1c70
0600
0600
0b00
0b00
0900
1180
1180
1080
3fc0
20c0
2040
4060
4060
e0f0
0000
0000
0000
0000
0000
ENDCHAR
STARTCHAR U0201
ENCODING 513
SWIDTH 500 0
DWIDTH 12 0
BBX 12 22 0 -5
BITMAP
0000
0000
e380
79e0
1c70
0000
0000
0f80
18c0
10c0
03c0
1cc0
30c0
30c0
30c0
39c0
1ee0
0000
0000
0000
0000
0000
ENDCHAR
STARTCHAR U0202
ENCODING 514
SWIDTH 500 0
DWIDTH 12 0
BBX 12 22 0 -5
BITMAP
0f00
1980
1980
0600
0600
0b00
0b00
0900
1180
1180
1080
3fc0
20c0
2040
4060
4060
e0f0
0000
0000
0000
0000
0000
ENDCHAR
STARTCHAR U0203
ENCODING 515
SWIDTH 500 0
DWIDTH 12 0
BBX 12 22 0 -5
BITMAP
0000
0000
0f00
1980
1980
0000
0000
0f80
18c0
10c0
03c0
1cc0
30c0
30c0
30c0
39c0
1ee0
0000
0000
0000
0000
0000
ENDCHAR
STARTCHAR U0204
ENCODING 516
SWIDTH 500 0
DWIDTH 12 0
BBX 12 22 0 -5
BITMAP
e380
79e0
1c70
7fc0
3040
3040
3000
3000
3080
3f80
3080
3000
3000
3000
3020
3020
7fe0
0000
0000
0000
0000
0000
ENDCHAR
STARTCHAR U0205
ENCODING 517
SWIDTH 500 0
DWIDTH 12 0
BBX 12 22 0 -5
BITMAP
0000
0000
e380
79e0
1c70
0000
0000
0f00
30c0
6060
6060
7fe0
6000
6000
3000
1860
0f80
0000
0000
0000
0000
0000
ENDCHAR
STARTCHAR U0206
ENCODING 518
SWIDTH 500 0
DWIDTH 12 0
BBX 12 22 0 -5
BITMAP
0f00
1980
1980
0000
7fc0
3040
3040
3000
3000
3080
3f80
3080
3000
3000
3020
3020
7fe0
0000
0000
0000
0000
0000
ENDCHAR
STARTCHAR U0207
ENCODING 519
SWIDTH 500 0
DWIDTH 12 0
BBX 12 22 0 -5
BITMAP
0000
0000
0f00
1980
1980
0000
0000
0f00
30c0
6060
6060
7fe0
6000
6000
3000
1860
0f80
0000
0000
0000
0000
0000
ENDCHAR
STARTCHAR U0208
ENCODING 520
SWIDTH 500 0
DWIDTH 12 0
BBX 12 22 0 -5
BITMAP
e380
79e0
1c70
0000
1f80
0600
0600
0600
0600
0600
0600
0600
0600
0600
0600
0600
1f80
0000
0000
0000
0000
0000
ENDCHAR
STARTCHAR U0209
ENCODING 521
SWIDTH 500 0
DWIDTH 12 0
BBX 12 22 0 -5
BITMAP
0000
0000
e380
79e0
1c70
0000
0000
1e00
0600
0600
0600
0600
0600
0600
0600
0600
1f80
0000
0000
0000
0000
0000
ENDCHAR
STARTCHAR U020a
ENCODING 522
SWIDTH 500 0
DWIDTH 12 0
BBX 12 22 0 -5
BITMAP
0f00
1980
1980
0000
1f80
0600
0600
0600
0600
0600
0600
0600
0600
0600
0600
0600
1f80
0000
0000
0000
0000
0000
ENDCHAR
STARTCHAR U020b
ENCODING 523
SWIDTH 500 0
DWIDTH 12 0
BBX 12 22 0 -5
BITMAP
0000
0000
0f00
1980
1980
0000
0000
1e00
0600
0600
0600
0600
0600
0600
0600
0600
1f80
0000
0000
0000
0000
0000
ENDCHAR
STARTCHAR U020c
ENCODING 524
SWIDTH 500 0
DWIDTH 12 0
BBX 12 22 0 -5
BITMAP
e380
79e0
1c70
0f00
11c0
20c0
2060
6060
6060
6060
6060
6060
6060
2040
3040
1880
0f00
0000
0000
0000
0000
0000
ENDCHAR
STARTCHAR U020d
ENCODING 525
SWIDTH 500 0
DWIDTH 12 0
BBX 12 22 0 -5
BITMAP
0000
0000
e380
79e0
1c70
0000
0000
0f80
11c0
20e0
6060
6060
6060
6060
7040
3880
1f00
0000
0000
0000
0000
0000
ENDCHAR
STARTCHAR U020e
ENCODING 526
SWIDTH 500 0
DWIDTH 12 0
BBX 12 22 0 -5
BITMAP
0f00
1980
1980
0000
0f00
11c0
20c0
2060
6060
6060
6060
6060
6060
2040
3040
1880
0f00
0000
0000
0000
0000
0000
ENDCHAR
STARTCHAR U020f
ENCODING 527
SWIDTH 500 0
DWIDTH 12 0
BBX 12 22 0 -5
BITMAP
0000
0000
0f00
1980
1980
0000
0000
0f80
11c0
20e0
6060
6060
6060
6060
7040
3880
1f00
0000
0000
0000
0000
0000
ENDCHAR
STARTCHAR U0210
ENCODING 528
SWIDTH 500 0
DWIDTH 12 0
BBX 12 22 0 -5
BITMAP
e380
79e0
1c70
ff00
6180
60c0
60c0
60c0
6080
7f00
7c00
6e00
6700
6380
61c0
60e0
f070
0000
0000
0000
0000
0000
ENDCHAR
STARTCHAR U0211
ENCODING 529
SWIDTH 500 0
DWIDTH 12 0
BBX 12 22 0 -5
BITMAP
0000
0000
e380
79e0
1c70
0000
0000
7380
34c0
38c0
3000
3000
3000
3000
3000
3000
7800
0000
0000
0000
0000
0000
ENDCHAR
STARTCHAR U0212
ENCODING 530
SWIDTH 500 0
DWIDTH 12 0
BBX 12 22 0 -5
BITMAP
0f00
1980
1980
0000
ff00
6180
60c0
60c0
6080
7f00
7c00
6e00
6700
6380
61c0
60e0
f070
0000
0000
0000
0000
0000
ENDCHAR
STARTCHAR U0213
ENCODING 531
SWIDTH 500 0
DWIDTH 12 0
BBX 12 22 0 -5
BITMAP
0000
0000
0f00
1980
1980
0000
0000
7380
34c0
38c0
3000
3000
3000
3000
3000
3000
7800
0000
0000
0000
0000
0000
ENDCHAR
STARTCHAR U0214
ENCODING 532
SWIDTH 500 0
DWIDTH 12 0
BBX 12 22 0 -5
BITMAP
e380
79e0
1c70
0000
f070
6020
6020
6020
6020
6020
6020
6020
6020
6020
7040
3fc0
1f80
0000
0000
0000
0000
0000
ENDCHAR
STARTCHAR U0215
ENCODING 533
SWIDTH 500 0
DWIDTH 12 0
BBX 12 22 0 -5
BITMAP
0000
0000
e380
79e0
1c70
0000
0000
79e0
30c0
30c0
30c0
30c0
30c0
30c0
30c0
39c0
1e60
0000
0000
0000
0000
0000
ENDCHAR
STARTCHAR U0216
ENCODING 534
SWIDTH 500 0
DWIDTH 12 0
BBX 12 22 0 -5
BITMAP
0f00
1980
1980
0000
f070
6020
6020
6020
6020
6020
6020
6020
6020
6020
7040
3fc0
1f80
0000
0000
0000
0000
0000
ENDCHAR
STARTCHAR U0217
ENCODING 535
SWIDTH 500 0
DWIDTH 12 0
BBX 12 22 0 -5
BITMAP
0000
0000
0f00
1980
1980
0000
0000
79e0
30c0
30c0
30c0
30c0
30c0
30c0
30c0
39c0
1e60
0000
0000
0000
0000
0000
ENDCHAR
STARTCHAR U0218
ENCODING 536
SWIDTH 500 0
DWIDTH 12 0
BBX 12 22 0 -5
BITMAP
0000
0000
0000
1fe0
3060
6020
6020
7000
3c00
1e00
0780
01c0
00e0
4060
4060
60c0
7f80
0000
0f00
0f00
0300
1e00
ENDCHAR
STARTCHAR U0219
ENCODING 537
SWIDTH 500 0
DWIDTH 12 0
BBX 12 22 0 -5
BITMAP
0000
0000
0000
0000
0000
0000
0000
1fc0
30c0
3040
3800
1e00
0780
01c0
20c0
30c0
3f80
0000
0f00
0f00
0300
1e00
ENDCHAR
STARTCHAR U021a
ENCODING 538
SWIDTH 500 0
DWIDTH 12 0
BBX 12 22 0 -5
BITMAP
0000
0000
0000
7fe0
4620
0600
0600
0600
0600
0600
0600
0600
0600
0600
0600
0600
1f80
0000
0f00
0f00
0300
1e00
ENDCHAR
STARTCHAR U021b
ENCODING 539
SWIDTH 500 0
DWIDTH 12 0
BBX 12 22 0 -5
BITMAP
0000
0000
0000
0000
0400
0400
0c00
7fc0
0c00
0c00
0c00
0c00
0c00
0c00
0c20
0e40
0780
0000
0f00
0f00
0300
1e00
ENDCHAR
STARTCHAR U021c
ENCODING 540
SWIDTH 500 0
DWIDTH 12 0
BBX 12 22 0 -5
BITMAP
0000
0000
2000
3f80
20c0
0060
0060
0060
01c0
0700
3e00
0180
0060
0060
0060
00e0
01c0
0700
3c00
0000
0000
0000
ENDCHAR
STARTCHAR U021d
ENCODING 541
SWIDTH 500 0
DWIDTH 12 0
BBX 12 22 0 -5
BITMAP
0000
0000
0000
0000
2000
3f80
20c0
0060
0060
01c0
0700
3e00
0180
0060
0060
00e0
01c0
0700
3c00
0000
0000
0000
ENDCHAR
STARTCHAR U021e
ENCODING 542
SWIDTH 500 0
DWIDTH 12 0
BBX 12 22 0 -5
BITMAP
3180
1b00
0e00
f0f0
6060
6060
6060
6060
6060
7fe0
6060
6060
6060
6060
6060
6060
f0f0
0000
0000
0000
0000
0000
ENDCHAR
STARTCHAR U021f
ENCODING 543
SWIDTH 500 0
DWIDTH 12 0
BBX 12 22 0 -5
BITMAP
18c0
0d80
1700
3000
7000
3000
3000
3780
39c0
30c0
30c0
30c0
30c0
30c0
30c0
30c0
79e0
0000
0000
0000
0000
0000
ENDCHAR
STARTCHAR U0220
ENCODING 544
SWIDTH 500 0
DWIDTH 12 0
BBX 12 22 0 -5
BITMAP
0000
0000
0000
2780
79c0
30c0
30c0
30c0
30c0
30c0
30c0
30c0
30c0
30c0
30c0
30c0
78c0
00c0
00c0
00c0
00c0
01e0
ENDCHAR
STARTCHAR U0221
ENCODING 545
SWIDTH 500 0
DWIDTH 12 0
BBX 12 22 0 -5
BITMAP
0000
0000
0180
0380
0180
0180
0180
1d80
6780
4380
c180
c180
c180
c1e0
e390
7590
39e0
0200
0400
0000
0000
0000
ENDCHAR
STARTCHAR U0222
ENCODING 546
SWIDTH 500 0
DWIDTH 12 0
BBX 12 22 0 -5
BITMAP
0000
0000
0900
1180
30c0
30c0
30c0
1880
0d00
0600
0b00
1180
30c0
30c0
30c0
1880
0f00
0000
0000
0000
0000
0000
ENDCHAR
STARTCHAR U0223
ENCODING 547
SWIDTH 500 0
DWIDTH 12 0
BBX 12 22 0 -5
BITMAP
0000
0000
0000
0000
0900
1180
30c0
30c0
1880
0d00
0600
0b00
1180
30c0
30c0
1880
0f00
0000
0000
0000
0000
0000
ENDCHAR
STARTCHAR U0224
ENCODING 548
SWIDTH 500 0
DWIDTH 12 0
BBX 12 22 0 -5
BITMAP
0000
0000
0000
3fe0
20c0
00c0
0180
0180
0300
0300
0600
0600
0c00
0c00
1800
1800
3fc0
0060
0060
01c0
0000
0000
ENDCHAR
STARTCHAR U0225
ENCODING 549
SWIDTH 500 0
DWIDTH 12 0
BBX 12 22 0 -5
BITMAP
0000
0000
0000
0000
0000
0000
0000
7fe0
60e0
41c0
0380
0700
0e00
1c00
3800
7000
7fc0
0060
0060
01c0
0000
0000
ENDCHAR
STARTCHAR U0226
ENCODING 550
SWIDTH 500 0
DWIDTH 12 0
BBX 12 22 0 -5
BITMAP
0600
0f00
0600
0000
0600
0600
0b00
0b00
0900
1180
1080
3fc0
20c0
2040
4060
4060
e0f0
0000
0000
0000
0000
0000
ENDCHAR
STARTCHAR U0227
ENCODING 551
SWIDTH 500 0
DWIDTH 12 0
BBX 12 22 0 -5
BITMAP
0000
0000
0600
0f00
0f00
0600
0000
0f80
18c0
10c0
03c0
1cc0
30c0
30c0
30c0
39c0
1ee0
0000
0000
0000
0000
0000
ENDCHAR
STARTCHAR U0228
ENCODING 552
SWIDTH 500 0
DWIDTH 12 0
BBX 12 22 0 -5
BITMAP
0000
0000
0000
7fc0
3040
3040
3000
3000
3080
3f80
3080
3000
3000
3000
3020
3020
7fe0
0200
0300
0180
0980
0700
ENDCHAR
STARTCHAR U0229
ENCODING 553
SWIDTH 500 0
DWIDTH 12 0
BBX 12 22 0 -5
BITMAP
0000
0000
0000
0000
0000
0000
0000
0f00
30c0
6060
6060
7fe0
6000
6000
3000
1860
0f80
0200
0300
0180
0980
0700
ENDCHAR
STARTCHAR U022a
ENCODING 554
SWIDTH 500 0
DWIDTH 12 0
BBX 12 22 0 -5
BITMAP
7fe0
0000
6060
6060
0f00
11c0
20c0
2060
6060
6060
6060
6060
6060
2040
3040
1880
0f00
0000
0000
0000
0000
0000
ENDCHAR
STARTCHAR U022b
ENCODING 555
SWIDTH 500 0
DWIDTH 12 0
BBX 12 22 0 -5
BITMAP
0000
0000
3fc0
0000
30c0
30c0
0000
0f80
11c0
20e0
6060
6060
6060
6060
7040
3880
1f00
0000
0000
0000
0000
0000
ENDCHAR
STARTCHAR U022c
ENCODING 556
SWIDTH 500 0
DWIDTH 12 0
BBX 12 22 0 -5
BITMAP
7fe0
0000
3c60
63c0
0f00
11c0
20c0
2060
6060
6060
6060
6060
6060
2040
3040
1880
0f00
0000
0000
0000
0000
0000
ENDCHAR
STARTCHAR U022d
ENCODING 557
SWIDTH 500 0
DWIDTH 12 0
BBX 12 22 0 -5
BITMAP
0000
3fc0
0000
0cc0
1f80
3300
0000
0f80
11c0
20e0
6060
6060
6060
6060
7040
3880
1f00
0000
0000
0000
0000
0000
ENDCHAR
STARTCHAR U022e
ENCODING 558
SWIDTH 500 0
DWIDTH 12 0
BBX 12 22 0 -5
BITMAP
0600
0f00
0600
0000
0f00
11c0
20c0
2060
6060
6060
6060
6060
6060
2040
3040
1880
0f00
0000
0000
0000
0000
0000
ENDCHAR
STARTCHAR U022f
ENCODING 559
SWIDTH 500 0
DWIDTH 12 0
BBX 12 22 0 -5
BITMAP
0000
0000
0600
0f00
0600
0000
0000
0f80
11c0
20e0
6060
6060
6060
6060
7040
3880
1f00
0000
0000
0000
0000
0000
ENDCHAR
STARTCHAR U0230
ENCODING 560
SWIDTH 500 0
DWIDTH 12 0
BBX 12 22 0 -5
BITMAP
3fc0
0000
0f00
0f00
0000
0f00
11c0
20c0
2060
6060
6060
6060
6060
2040
3040
1880
0f00
0000
0000
0000
0000
0000
ENDCHAR
STARTCHAR U0231
ENCODING 561
SWIDTH 500 0
DWIDTH 12 0
BBX 12 22 0 -5
BITMAP
3fc0
0000
0600
0f00
0600
0000
0000
0f80
11c0
20e0
6060
6060
6060
6060
7040
3880
1f00
0000
0000
0000
0000
0000
ENDCHAR
STARTCHAR U0232
ENCODING 562
SWIDTH 500 0
DWIDTH 12 0
BBX 12 22 0 -5
BITMAP
3fc0
0000
0000
f070
6020
3040
1880
1880
0d00
0600
0600
0600
0600
0600
0600
0600
0f00
0000
0000
0000
0000
0000
ENDCHAR
STARTCHAR U0233
ENCODING 563
SWIDTH 500 0
DWIDTH 12 0
BBX 12 22 0 -5
BITMAP
0000
0000
0000
0000
3fc0
0000
0000
f0f0
6020
3040
3040
1880
1880
0d00
0d00
0600
0600
0400
0c00
0800
7800
7000
ENDCHAR
STARTCHAR U0234
ENCODING 564
SWIDTH 500 0
DWIDTH 12 0
BBX 12 22 0 -5
BITMAP
0000
0000
1e00
0600
0600
0600
0600
0600
0600
0600
0600
0600
0600
06c0
0760
0640
1f80
0400
0800
0000
0000
0000
ENDCHAR
STARTCHAR U0235
ENCODING 565
SWIDTH 500 0
DWIDTH 12 0
BBX 12 22 0 -5
BITMAP
0000
0000
0000
0000
0000
0000
0000
2780
79c0
30c0
30c0
30c0
30c0
30e0
30d0
30d0
79e0
0100
0200
0000
0000
0000
ENDCHAR
STARTCHAR U0236
ENCODING 566
SWIDTH 500 0
DWIDTH 12 0
BBX 12 22 0 -5
BITMAP
0000
0000
0000
0000
0400
0400
0c00
7fc0
0c00
0c00
0c00
0c00
0c00
0cc0
0d60
0e40
0780
0800
1000
0000
0000
0000
ENDCHAR
STARTCHAR U0237
ENCODING 567
SWIDTH 500 0
DWIDTH 12 0
BBX 12 22 0 -5
BITMAP
0000
0000
0000
0000
0000
0000
0000
03c0
00c0
00c0
00c0
00c0
00c0
00c0
00c0
00c0
00c0
20c0
30c0
3880
1f00
0e00
ENDCHAR
STARTCHAR U0238
ENCODING 568
SWIDTH 500 0
DWIDTH 12 0
BBX 12 22 0 -5
BITMAP
0000
0000
0600
0e00
0600
0600
0600
36c0
7fe0
4f20
c630
c630
c630
c630
ef70
79e0
30c0
0000
0000
0000
0000
0000
ENDCHAR
STARTCHAR U0239
ENCODING 569
SWIDTH 500 0
DWIDTH 12 0
BBX 12 22 0 -5
BITMAP
0000
0000
0000
0000
0000
0000
0000
30c0
79e0
ef70
c630
c630
c630
c630
4f20
7fe0
36c0
0600
0600
0600
0600
0f00
ENDCHAR
STARTCHAR U023a
ENCODING 570
SWIDTH 500 0
DWIDTH 12 0
BBX 12 22 0 -5
BITMAP
0000
0000
0010
0620
0640
0680
0f00
0b00
1580
1980
1080
3fc0
60c0
a040
4060
4060
e0f0
0000
0000
0000
0000
0000
ENDCHAR
STARTCHAR U023b
ENCODING 571
SWIDTH 500 0
DWIDTH 12 0
BBX 12 22 0 -5
BITMAP
0000
0040
0040
0fc0
10e0
20a0
2080
6100
6100
6100
6200
6200
6200
2400
3420
1c40
0f80
0800
0800
0000
0000
0000
ENDCHAR
STARTCHAR U023c
ENCODING 572
SWIDTH 500 0
DWIDTH 12 0
BBX 12 22 0 -5
BITMAP
0000
0000
0000
0000
0000
0040
0080
1f80
31c0
21c0
6200
6200
6400
6400
7840
38c0
1f80
1000
2000
0000
0000
0000
ENDCHAR
STARTCHAR U023d
ENCODING 573
SWIDTH 500 0
DWIDTH 12 0
BBX 12 22 0 -5
BITMAP
0000
0000
0000
3c00
1800
1800
1800
1800
1800
ff00
1800
1800
1800
1800
1810
1810
3ff0
0000
0000
0000
0000
0000
ENDCHAR
STARTCHAR U023e
ENCODING 574
SWIDTH 500 0
DWIDTH 12 0
BBX 12 22 0 -5
BITMAP
0000
0020
0020
7fe0
4640
0680
0680
0700
0700
0600
0600
0e00
0e00
1600
1600
2600
3f80
4000
4000
0000
0000
0000
ENDCHAR
STARTCHAR U023f
ENCODING 575
SWIDTH 500 0
DWIDTH 12 0
BBX 12 22 0 -5
BITMAP
0000
0000
0000
0000
0000
0000
0000
1fc0
30c0
3040
3800
1e00
0780
01c0
20c0
30c0
3f80
1800
0c00
0660
03c0
0000
ENDCHAR
STARTCHAR U0240
ENCODING 576
SWIDTH 500 0
DWIDTH 12 0
BBX 12 22 0 -5
BITMAP
0000
0000
0000
0000
0000
0000
0000
7fe0
60e0
41c0
0380
0700
0e00
1c00
3800
7000
7000
1800
0c00
0660
03c0
0000
ENDCHAR
STARTCHAR U0241
ENCODING 577
SWIDTH 500 0
DWIDTH 12 0
BBX 12 22 0 -5
BITMAP
0000
0000
1e00
7180
6040
6060
0060
0060
00c0
0180
0f00
0c00
0c00
0c00
0c00
0c00
1e00
0000
0000
0000
0000
0000
ENDCHAR
STARTCHAR U0242
ENCODING 578
SWIDTH 500 0
DWIDTH 12 0
BBX 12 22 0 -5
BITMAP
0000
0000
0000
0000
0000
0000
1e00
7180
60c0
00c0
00c0
0180
0e00
0800
0800
1c00
0000
0000
0000
0000
0000
0000
ENDCHAR
STARTCHAR U0243
ENCODING 579
SWIDTH 500 0
DWIDTH 12 0
BBX 12 22 0 -5
BITMAP
0000
0000
0000
ff00
6080
60c0
60c0
60c0
6180
7f80
60c0
6060
fc60
6060
6060
60c0
ff80
0000
0000
0000
0000
0000
ENDCHAR
STARTCHAR U0244
ENCODING 580
SWIDTH 500 0
DWIDTH 12 0
BBX 12 22 0 -5
BITMAP
0000
0000
0000
f070
6020
6020
6020
6020
fff0
6020
6020
6020
6020
6020
7040
3fc0
1f80
0000
0000
0000
0000
0000
ENDCHAR
STARTCHAR U0245
ENCODING 581
SWIDTH 500 0
DWIDTH 12 0
BBX 12 22 0 -5
BITMAP
0000
0000
0000
0200
0200
0200
0700
0700
0700
0980
0980
0980
10c0
10c0
10c0
2060
7070
0000
0000
0000
0000
0000
ENDCHAR
STARTCHAR U0246
ENCODING 582
SWIDTH 500 0
DWIDTH 12 0
BBX 12 22 0 -5
BITMAP
0000
0080
0080
7fc0
3140
3140
3100
3200
3280
3f80
3480
3400
3400
3800
3820
3820
7fe0
1000
1000
0000
0000
0000
ENDCHAR
STARTCHAR U0247
ENCODING 583
SWIDTH 500 0
DWIDTH 12 0
BBX 12 22 0 -5
BITMAP
0000
0000
0000
0000
0080
0080
0100
0f00
32c0
6260
6460
7fe0
6800
6800
3000
1860
2f80
2000
0000
0000
0000
0000
ENDCHAR
STARTCHAR U0248
ENCODING 584
SWIDTH 500 0
DWIDTH 12 0
BBX 12 22 0 -5
BITMAP
0000
0000
0000
1f80
0600
0600
0600
0600
0600
0600
0600
3fc0
0600
0600
0600
0600
0600
0600
0600
0400
3800
3000
ENDCHAR
STARTCHAR U0249
ENCODING 585
SWIDTH 500 0
DWIDTH 12 0
BBX 12 22 0 -5
BITMAP
0000
0000
0000
0180
0180
0000
0000
0780
0180
0180
0180
0ff0
0180
0180
0180
0180
0180
4180
6180
7100
3e00
1c00
ENDCHAR
STARTCHAR U024a
ENCODING 586
SWIDTH 500 0
DWIDTH 12 0
BBX 12 22 0 -5
BITMAP
0000
0000
1cc0
2780
4380
4180
c180
c180
c180
c180
c180
c180
c180
e180
7380
3f80
0180
0180
0180
01b0
00b0
0060
ENDCHAR
STARTCHAR U024b
ENCODING 587
SWIDTH 500 0
DWIDTH 12 0
BBX 12 22 0 -5
BITMAP
0000
0000
0000
0000
0000
0000
0000
1cc0
2780
4380
c180
c180
c180
c180
e180
7380
3f80
0180
0180
01b0
00b0
0060
ENDCHAR
STARTCHAR U024c
ENCODING 588
SWIDTH 500 0
DWIDTH 12 0
BBX 12 22 0 -5
BITMAP
0000
0000
0000
ff00
6180
60c0
60c0
60c0
6080
ff00
7c00
6e00
6700
6380
61c0
60e0
f070
0000
0000
0000
0000
0000
ENDCHAR
STARTCHAR U024d
ENCODING 589
SWIDTH 500 0
DWIDTH 12 0
BBX 12 22 0 -5
BITMAP
0000
0000
0000
0000
0000
0000
0000
39c0
1a60
1c60
1800
ff00
1800
1800
1800
1800
3c00
0000
0000
0000
0000
0000
ENDCHAR
STARTCHAR U024e
ENCODING 590
SWIDTH 500 0
DWIDTH 12 0
BBX 12 22 0 -5
BITMAP
0000
0000
0000
f070
6020
3040
fff0
1880
0d00
0600
0600
0600
0600
0600
0600
0600
0f00
0000
0000
0000
0000
0000
ENDCHAR
STARTCHAR U024f
ENCODING 591
SWIDTH 500 0
DWIDTH 12 0
BBX 12 22 0 -5
BITMAP
0000
0000
0000
0000
0000
0000
0000
f0f0
6020
3040
3040
fff0
1880
0d00
0d00
0600
0600
0400
0c00
0800
7800
7000
ENDCHAR
STARTCHAR U0250
ENCODING 592
SWIDTH 500 0
DWIDTH 12 0
BBX 12 22 0 -5
BITMAP
0000
0000
0000
0000
0000
0000
0000
7780
39c0
30c0
30c0
30c0
3380
3c00
3080
3180
1f00
0000
0000
0000
0000
0000
ENDCHAR
STARTCHAR U0251
ENCODING 593
SWIDTH 500 0
DWIDTH 12 0
BBX 12 22 0 -5
BITMAP
0000
0000
0000
0000
0000
0000
0000
3f20
63a0
c1c0
c1c0
c180
c180
c180
c3c0
e4c0
7860
0000
0000
0000
0000
0000
ENDCHAR
STARTCHAR U0252
ENCODING 594
SWIDTH 500 0
DWIDTH 12 0
BBX 12 22 0 -5
BITMAP
0000
0000
0000
0000
0000
0000
0000
c3c0
64e0
7860
3060
3060
3060
7060
7060
b8c0
9f80
0000
0000
0000
0000
0000
ENDCHAR
STARTCHAR U0253
ENCODING 595
SWIDTH 500 0
DWIDTH 12 0
BBX 12 22 0 -5
BITMAP
0000
0000
1e00
2300
6300
6000
6000
6780
6fc0
70e0
6060
6060
6060
6060
7060
78c0
4f80
0000
0000
0000
0000
0000
ENDCHAR
STARTCHAR U0254
ENCODING 596
SWIDTH 500 0
DWIDTH 12 0
BBX 12 22 0 -5
BITMAP
0000
0000
0000
0000
0000
0000
0000
3f00
6180
41c0
00c0
00c0
00c0
00c0
6080
7180
3f00
0000
0000
0000
0000
0000
ENDCHAR
STARTCHAR U0255
ENCODING 597
SWIDTH 500 0
DWIDTH 12 0
BBX 12 22 0 -5
BITMAP
0000
0000
0000
0000
0000
0000
0000
1f80
31c0
20c0
6000
6000
6000
6380
7440
38c0
5f80
0000
0000
0000
0000
0000
ENDCHAR
STARTCHAR U0256
ENCODING 598
SWIDTH 500 0
DWIDTH 12 0
BBX 12 22 0 -5
BITMAP
0000
0000
00c0
01c0
00c0
00c0
00c0
1ec0
63c0
41c0
c0c0
c0c0
c0c0
c0c0
e1c0
72c0
3cc0
00d0
0050
0070
0000
0000
ENDCHAR
STARTCHAR U0257
ENCODING 599
SWIDTH 500 0
DWIDTH 12 0
BBX 12 22 0 -5
BITMAP
0000
0000
0070
00d0
00d0
00d0
00c0
1ec0
63c0
41c0
c0c0
c0c0
c0c0
c0c0
e1c0
72c0
3ce0
0000
0000
0000
0000
0000
ENDCHAR
STARTCHAR U0258
ENCODING 600
SWIDTH 500 0
DWIDTH 12 0
BBX 12 22 0 -5
BITMAP
0000
0000
0000
0000
0000
0000
0000
0f00
30c0
6060
6060
7fe0
0060
0060
00c0
6180
1f00
0000
0000
0000
0000
0000
ENDCHAR
STARTCHAR U0259
ENCODING 601
SWIDTH 500 0
DWIDTH 12 0
BBX 12 22 0 -5
BITMAP
0000
0000
0000
0000
0000
0000
0000
1f00
6180
00c0
0060
0060
7fe0
6060
6060
30c0
0f00
0000
0000
0000
0000
0000
ENDCHAR
STARTCHAR U025a
ENCODING 602
SWIDTH 500 0
DWIDTH 12 0
BBX 12 22 0 -5
BITMAP
0000
0000
0000
0000
0000
0000
0000
3c00
c690
0350
0320
0d80
3180
c180
c180
6300
1c00
0000
0000
0000
0000
0000
ENDCHAR
STARTCHAR U025b
ENCODING 603
SWIDTH 500 0
DWIDTH 12 0
BBX 12 22 0 -5
BITMAP
0000
0000
0000
0000
0000
0000
0000
0f80
1fc0
2060
6000
3f00
3f00
6000
6020
3fc0
1f00
0000
0000
0000
0000
0000
ENDCHAR
STARTCHAR U025c
ENCODING 604
SWIDTH 500 0
DWIDTH 12 0
BBX 12 22 0 -5
BITMAP
0000
0000
0000
0000
0000
0000
0000
1f00
3f80
6040
0060
0fc0
0fc0
0060
4060
3fc0
0f80
0000
0000
0000
0000
0000
ENDCHAR
STARTCHAR U025d
ENCODING 605
SWIDTH 500 0
DWIDTH 12 0
BBX 12 22 0 -5
BITMAP
0000
0000
0000
0000
0000
0000
0000
3e10
7f50
c0b0
00d0
1f80
1f80
00c0
80c0
7f80
1f00
0000
0000
0000
0000
0000
ENDCHAR
STARTCHAR U025e
ENCODING 606
SWIDTH 500 0
DWIDTH 12 0
BBX 12 22 0 -5
BITMAP
0000
0000
0000
0000
0000
0000
0000
1f00
3f80
6040
c060
cfc0
cfc0
c060
4060
3fc0
0f80
0000
0000
0000
0000
0000
ENDCHAR
STARTCHAR U025f
ENCODING 607
SWIDTH 500 0
DWIDTH 12 0
BBX 12 22 0 -5
BITMAP
0000
0000
0780
0300
0300
0300
0300
0300
0300
1f80
0300
0300
0300
0300
3200
3200
1c00
0000
0000
0000
0000
0000
ENDCHAR
STARTCHAR U0260
ENCODING 608
SWIDTH 500 0
DWIDTH 12 0
BBX 12 22 0 -5
BITMAP
0000
0000
0000
0000
00e0
0130
0130
1f80
31c0
60c0
60c0
60c0
60c0
60c0
61c0
33c0
1ec0
0040
2040
30c0
1f80
0f00
ENDCHAR
STARTCHAR U0261
ENCODING 609
SWIDTH 500 0
DWIDTH 12 0
BBX 12 22 0 -5
BITMAP
0000
0000
0000
0000
0000
0000
0000
1f80
31c0
60c0
60c0
60c0
60c0
60c0
61c0
33c0
1ec0
0040
2040
30c0
1f80
0f00
ENDCHAR
STARTCHAR U0262
ENCODING 610
SWIDTH 500 0
DWIDTH 12 0
BBX 12 22 0 -5
BITMAP
0000
0000
0000
0000
0000
0000
0000
0fc0
1060
2020
6000
6000
61f0
6060
3060
1860
0f80
0000
0000
0000
0000
0000
ENDCHAR
STARTCHAR U0263
ENCODING 611
SWIDTH 500 0
DWIDTH 12 0
BBX 12 22 0 -5
BITMAP
0000
0000
0000
0000
0000
0000
0000
70e0
3040
3040
1880
1880
1900
0d00
0e00
0600
0e00
1300
1300
2180
2180
1f00
ENDCHAR
STARTCHAR U0264
ENCODING 612
SWIDTH 500 0
DWIDTH 12 0
BBX 12 22 0 -5
BITMAP
0000
0000
0000
0000
0000
0000
0000
0000
0000
7060
d8b0
9890
9910
0d00
0e00
0600
0e00
1300
1300
2180
2180
1f00
ENDCHAR
STARTCHAR U0265
ENCODING 613
SWIDTH 500 0
DWIDTH 12 0
BBX 12 22 0 -5
BITMAP
0000
0000
79e0
30c0
30c0
30c0
30c0
30c0
30c0
30c0
39c0
1ec0
00c0
00c0
00e0
00c0
0080
0000
0000
0000
0000
0000
ENDCHAR
STARTCHAR U0266
ENCODING 614
SWIDTH 500 0
DWIDTH 12 0
BBX 12 22 0 -5
BITMAP
0000
0000
1e00
3300
3300
3000
3000
3780
39c0
30c0
30c0
30c0
30c0
30c0
30c0
30c0
79e0
0000
0000
0000
0000
0000
ENDCHAR
STARTCHAR U0267
ENCODING 615
SWIDTH 500 0
DWIDTH 12 0
BBX 12 22 0 -5
BITMAP
0000
0000
1000
3000
7000
3000
3000
3780
39c0
30c0
30c0
30c0
30c0
30c0
30c0
30c0
78c0
00c0
0380
0700
0000
0000
ENDCHAR
STARTCHAR U0268
ENCODING 616
SWIDTH 500 0
DWIDTH 12 0
BBX 12 22 0 -5
BITMAP
0000
0000
0000
0600
0600
0000
0000
1e00
0600
0600
0600
3fc0
0600
0600
0600
0600
1f80
0000
0000
0000
0000
0000
ENDCHAR
STARTCHAR U0269
ENCODING 617
SWIDTH 500 0
DWIDTH 12 0
BBX 12 22 0 -5
BITMAP
0000
0000
0000
0000
0000
0000
0000
1e00
0600
0600
0600
0600
0600
0600
0600
0600
1f80
0000
0000
0000
0000
0000
ENDCHAR
STARTCHAR U026a
ENCODING 618
SWIDTH 500 0
DWIDTH 12 0
BBX 12 22 0 -5
BITMAP
0000
0000
0000
0000
0000
0000
0000
1f80
0600
0600
0600
0600
0600
0600
0600
0600
1f80
0000
0000
0000
0000
0000
ENDCHAR
STARTCHAR U026b
ENCODING 619
SWIDTH 500 0
DWIDTH 12 0
BBX 12 22 0 -5
BITMAP
0000
0000
1e00
0600
0600
0600
0600
0600
1e60
6780
0600
0600
0600
0600
0600
0600
1f80
0000
0000
0000
0000
0000
ENDCHAR
STARTCHAR U026c
ENCODING 620
SWIDTH 500 0
DWIDTH 12 0
BBX 12 22 0 -5
BITMAP
0000
0000
1e00
0600
0600
0600
0600
0600
3e00
6600
3fc0
0600
0600
0600
0600
0600
1f80
0000
0000
0000
0000
0000
ENDCHAR
STARTCHAR U026d
ENCODING 621
SWIDTH 500 0
DWIDTH 12 0
BBX 12 22 0 -5
BITMAP
0000
0000
1e00
0600
0600
0600
0600
0600
0600
0600
0600
0600
0600
0600
0600
0600
0660
0660
03c0
0180
0000
0000
ENDCHAR
STARTCHAR U026e
ENCODING 622
SWIDTH 500 0
DWIDTH 12 0
BBX 12 22 0 -5
BITMAP
0000
0000
f000
3000
3000
3000
3000
3ff0
3060
30c0
3180
3300
3600
3380
30e0
3070
fc70
0070
1860
19c0
0f80
0000
ENDCHAR
STARTCHAR U026f
ENCODING 623
SWIDTH 500 0
DWIDTH 12 0
BBX 12 22 0 -5
BITMAP
0000
0000
0000
0000
0000
0000
0000
ef70
6660
6660
6660
6660
6660
6660
6660
7760
3bb0
0000
0000
0000
0000
0000
ENDCHAR
STARTCHAR U0270
ENCODING 624
SWIDTH 500 0
DWIDTH 12 0
BBX 12 22 0 -5
BITMAP
0000
0000
0000
0000
0000
0000
0000
ef70
6660
6660
6660
6660
6660
6660
6660
76e0
3b60
0060
0060
0060
0030
0000
ENDCHAR
STARTCHAR U0271
ENCODING 625
SWIDTH 500 0
DWIDTH 12 0
BBX 12 22 0 -5
BITMAP
0000
0000
0000
0000
0000
0000
0000
ddc0
6ee0
6660
6660
6660
6660
6660
6660
6660
ef60
0060
0660
0660
03c0
0000
ENDCHAR
STARTCHAR U0272
ENCODING 626
SWIDTH 500 0
DWIDTH 12 0
BBX 12 22 0 -5
BITMAP
0000
0000
0000
0000
0000
0000
0000
13c0
3ce0
1860
1860
1860
1860
1860
1860
1860
18f0
d800
d800
7000
0000
0000
ENDCHAR
STARTCHAR U0273
ENCODING 627
SWIDTH 500 0
DWIDTH 12 0
BBX 12 22 0 -5
BITMAP
0000
0000
0000
0000
0000
0000
0000
4f00
f380
6180
6180
6180
6180
6180
6180
6180
f180
01b0
01b0
00e0
0000
0000
ENDCHAR
STARTCHAR U0274
ENCODING 628
SWIDTH 500 0
DWIDTH 12 0
BBX 12 22 0 -5
BITMAP
0000
0000
0000
0000
0000
0000
0000
c0e0
6040
7040
5840
4c40
4640
4340
41c0
40c0
e060
0000
0000
0000
0000
0000
ENDCHAR
STARTCHAR U0275
ENCODING 629
SWIDTH 500 0
DWIDTH 12 0
BBX 12 22 0 -5
BITMAP
0000
0000
0000
0000
0000
0000
0000
0f80
11c0
20e0
6060
7fe0
7fe0
6060
7040
3880
1f00
0000
0000
0000
0000
0000
ENDCHAR
STARTCHAR U0276
ENCODING 630
SWIDTH 500 0
DWIDTH 12 0
BBX 12 22 0 -5
BITMAP
0000
0000
0000
0000
0000
0000
0000
1de0
2330
4200
c210
c3f0
c210
c200
e200
7330
3de0
0000
0000
0000
0000
0000
ENDCHAR
STARTCHAR U0277
ENCODING 631
SWIDTH 500 0
DWIDTH 12 0
BBX 12 22 0 -5
BITMAP
0000
0000
0000
0000
0000
0f00
3fc0
6060
c030
c630
c630
c630
c630
c630
6620
7fc0
1980
0000
0000
0000
0000
0000
ENDCHAR
STARTCHAR U0278
ENCODING 632
SWIDTH 500 0
DWIDTH 12 0
BBX 12 22 0 -5
BITMAP
0000
0000
0000
0000
0600
0600
0f80
17c0
26e0
6660
6660
6660
6660
7640
3e80
1f00
0600
0600
0000
0000
0000
0000
ENDCHAR
STARTCHAR U0279
ENCODING 633
SWIDTH 500 0
DWIDTH 12 0
BBX 12 22 0 -5
BITMAP
0000
0000
0000
0000
0000
0000
0000
03c0
0180
0180
0180
0180
0180
0180
6380
6580
39c0
0000
0000
0000
0000
0000
ENDCHAR
STARTCHAR U027a
ENCODING 634
SWIDTH 500 0
DWIDTH 12 0
BBX 12 22 0 -5
BITMAP
0000
0000
0000
0000
03c0
0180
0180
0180
0180
0180
0180
0180
0180
0180
6380
6580
39c0
0000
0000
0000
0000
0000
ENDCHAR
STARTCHAR U027b
ENCODING 635
SWIDTH 500 0
DWIDTH 12 0
BBX 12 22 0 -5
BITMAP
0000
0000
0000
0000
0000
0000
0000
0780
0300
0300
0300
0300
0300
0300
c700
cb00
7300
0330
0330
01e0
0000
0000
ENDCHAR
STARTCHAR U027c
ENCODING 636
SWIDTH 500 0
DWIDTH 12 0
BBX 12 22 0 -5
BITMAP
0000
0000
0000
0000
0000
0000
0000
7380
34c0
38c0
3000
3000
3000
3000
3000
3000
3000
3000
3000
7800
0000
0000
ENDCHAR
STARTCHAR U027d
ENCODING 637
SWIDTH 500 0
DWIDTH 12 0
BBX 12 22 0 -5
BITMAP
0000
0000
0000
0000
0000
0000
0000
7380
34c0
38c0
3000
3000
3000
3000
3000
3000
3000
3180
1b80
0e00
0000
0000
ENDCHAR
STARTCHAR U027e
ENCODING 638
SWIDTH 500 0
DWIDTH 12 0
BBX 12 22 0 -5
BITMAP
0000
0000
0000
0000
0000
0000
0380
04c0
04c0
0c00
0c00
0c00
0c00
0c00
0c00
0c00
1e00
0000
0000
0000
0000
0000
ENDCHAR
STARTCHAR U027f
ENCODING 639
SWIDTH 500 0
DWIDTH 12 0
BBX 12 22 0 -5
BITMAP
0000
0000
0000
0000
0000
0000
1c00
3200
3200
0300
0300
0300
0300
0300
0300
0300
0300
0300
0300
0780
0000
0000
ENDCHAR
STARTCHAR U0280
ENCODING 640
SWIDTH 500 0
DWIDTH 12 0
BBX 12 22 0 -5
BITMAP
0000
0000
0000
0000
0000
0000
0000
7f80
30c0
3060
3040
3f80
3e00
3700
3380
31c0
78e0
0000
0000
0000
0000
0000
ENDCHAR
STARTCHAR U0281
ENCODING 641
SWIDTH 500 0
DWIDTH 12 0
BBX 12 22 0 -5
BITMAP
0000
0000
0000
0000
0000
0000
0000
78e0
31c0
3380
3700
3e00
3f80
3040
3060
30c0
7f80
0000
0000
0000
0000
0000
ENDCHAR
STARTCHAR U0282
ENCODING 642
SWIDTH 500 0
DWIDTH 12 0
BBX 12 22 0 -5
BITMAP
0000
0000
0000
0000
0000
0000
0000
1fc0
30c0
3040
3800
1e00
0780
01c0
20c0
30c0
3f80
1000
1000
1300
0e00
0000
ENDCHAR
STARTCHAR U0283
ENCODING 643
SWIDTH 500 0
DWIDTH 12 0
BBX 12 22 0 -5
BITMAP
0000
0000
01c0
0260
0660
0600
0600
0600
0600
0600
0600
0600
0600
0600
0600
0600
0600
0600
0600
6400
6400
3800
ENDCHAR
STARTCHAR U0284
ENCODING 644
SWIDTH 500 0
DWIDTH 12 0
BBX 12 22 0 -5
BITMAP
0000
0000
01c0
0260
0660
0600
0600
0600
0600
0600
0600
0600
0600
0600
0600
3fc0
0600
0600
0600
6400
6400
3800
ENDCHAR
STARTCHAR U0285
ENCODING 645
SWIDTH 500 0
DWIDTH 12 0
BBX 12 22 0 -5
BITMAP
0000
0000
3800
6400
6400
0600
0600
0600
0600
0600
0600
0600
0600
0600
0600
0600
0600
0600
0600
0660
0260
01c0
ENDCHAR
STARTCHAR U0286
ENCODING 646
SWIDTH 500 0
DWIDTH 12 0
BBX 12 22 0 -5
BITMAP
0000
0000
01c0
0260
0660
0600
0600
0600
0600
0600
0600
0600
0600
0600
0600
0600
0600
3fc0
6660
6460
6400
3800
ENDCHAR
STARTCHAR U0287
ENCODING 647
SWIDTH 500 0
DWIDTH 12 0
BBX 12 22 0 -5
BITMAP
0000
0000
0000
0000
1e00
2700
4300
0300
0300
0300
0300
0300
0300
3fe0
0300
0200
0200
0000
0000
0000
0000
0000
ENDCHAR
STARTCHAR U0288
ENCODING 648
SWIDTH 500 0
DWIDTH 12 0
BBX 12 22 0 -5
BITMAP
0000
0000
0000
0000
0400
0400
0c00
7fc0
0c00
0c00
0c00
0c00
0c00
0c00
0c00
0c00
0cc0
04c0
0380
0000
0000
0000
ENDCHAR
STARTCHAR U0289
ENCODING 649
SWIDTH 500 0
DWIDTH 12 0
BBX 12 22 0 -5
BITMAP
0000
0000
0000
0000
0000
0000
0000
79e0
30c0
30c0
30c0
fff0
30c0
30c0
30c0
39c0
1e60
0000
0000
0000
0000
0000
ENDCHAR
STARTCHAR U028a
ENCODING 650
SWIDTH 500 0
DWIDTH 12 0
BBX 12 22 0 -5
BITMAP
0000
0000
0000
0000
0000
0000
0000
79e0
0900
1880
3040
6060
6060
2060
20c0
11c0
0f00
0000
0000
0000
0000
0000
ENDCHAR
STARTCHAR U028b
ENCODING 651
SWIDTH 500 0
DWIDTH 12 0
BBX 12 22 0 -5
BITMAP
0000
0000
0000
0000
0000
0000
0000
78c0
31c0
3060
3060
3060
3060
3060
30e0
39c0
1f00
0000
0000
0000
0000
0000
ENDCHAR
STARTCHAR U028c
ENCODING 652
SWIDTH 500 0
DWIDTH 12 0
BBX 12 22 0 -5
BITMAP
0000
0000
0000
0000
0000
0000
0000
0600
0600
0b00
0b00
1180
1180
20c0
20c0
4060
e0f0
0000
0000
0000
0000
0000
ENDCHAR
STARTCHAR U028d
ENCODING 653
SWIDTH 500 0
DWIDTH 12 0
BBX 12 22 0 -5
BITMAP
0000
0000
0000
0000
0000
0000
0000
1980
1980
1980
2dc0
2dc0
2ec0
4660
4660
4660
eff0
0000
0000
0000
0000
0000
ENDCHAR
STARTCHAR U028e
ENCODING 654
SWIDTH 500 0
DWIDTH 12 0
BBX 12 22 0 -5
BITMAP
0000
0000
00e0
01e0
0100
0300
0200
0600
0600
0b00
0b00
1180
1180
20c0
20c0
4060
f0f0
0000
0000
0000
0000
0000
ENDCHAR
STARTCHAR U028f
ENCODING 655
SWIDTH 500 0
DWIDTH 12 0
BBX 12 22 0 -5
BITMAP
0000
0000
0000
0000
0000
0000
0000
f070
6020
3040
1880
0d00
0600
0600
0600
0600
0f00
0000
0000
0000
0000
0000
ENDCHAR
STARTCHAR U0290
ENCODING 656
SWIDTH 500 0
DWIDTH 12 0
BBX 12 22 0 -5
BITMAP
0000
0000
0000
0000
0000
0000
0000
7fe0
60e0
41c0
0380
0700
0e00
1c00
3800
7040
7f80
0190
00f0
0060
0000
0000
ENDCHAR
STARTCHAR U0291
ENCODING 657
SWIDTH 500 0
DWIDTH 12 0
BBX 12 22 0 -5
BITMAP
0000
0000
0000
0000
0000
0000
0000
7fe0
60e0
41c0
0380
0700
0e00
1c00
3860
7090
7fe0
0200
0400
0000
0000
0000
ENDCHAR
STARTCHAR U0292
ENCODING 658
SWIDTH 500 0
DWIDTH 12 0
BBX 12 22 0 -5
BITMAP
0000
0000
0000
0000
0000
0000
0000
0000
7fc0
4180
0300
0600
0c00
1f80
01c0
00c0
40c0
6080
3f00
1e00
0000
0000
ENDCHAR
STARTCHAR U0293
ENCODING 659
SWIDTH 500 0
DWIDTH 12 0
BBX 12 22 0 -5
BITMAP
0000
0000
0000
0000
0000
0000
0000
0000
7fc0
4180
0300
0600
0c00
1f80
01c0
38c0
44c0
6280
3f00
1e80
0040
0000
ENDCHAR
STARTCHAR U0294
ENCODING 660
SWIDTH 500 0
DWIDTH 12 0
BBX 12 22 0 -5
BITMAP
0000
0000
1e00
7180
6040
6060
0060
0060
00c0
0180
0f00
0c00
0c00
0c00
0c00
0c00
1e00
0000
0000
0000
0000
0000
ENDCHAR
STARTCHAR U0295
ENCODING 661
SWIDTH 500 0
DWIDTH 12 0
BBX 12 22 0 -5
BITMAP
0000
0000
0780
18e0
2060
6060
6000
6000
3000
1800
0f00
0300
0300
0300
0300
0300
0780
0000
0000
0000
0000
0000
ENDCHAR
STARTCHAR U0296
ENCODING 662
SWIDTH 500 0
DWIDTH 12 0
BBX 12 22 0 -5
BITMAP
0000
0000
1e00
0c00
0c00
0c00
0c00
0c00
0f00
0180
00c0
0060
0060
6060
6040
7180
1e00
0000
0000
0000
0000
0000
ENDCHAR
STARTCHAR U0297
ENCODING 663
SWIDTH 500 0
DWIDTH 12 0
BBX 12 22 0 -5
BITMAP
0000
0000
0000
0000
0000
0000
0fc0
1060
2020
2000
6000
6000
6000
6000
6000
6000
6000
6000
2000
3020
1840
0f80
ENDCHAR
STARTCHAR U0298
ENCODING 664
SWIDTH 500 0
DWIDTH 12 0
BBX 12 22 0 -5
BITMAP
0000
0000
0000
0f00
11c0
20c0
2060
6060
6660
6660
6060
6060
6060
2040
3040
1880
0f00
0000
0000
0000
0000
0000
ENDCHAR
STARTCHAR U0299
ENCODING 665
SWIDTH 500 0
DWIDTH 12 0
BBX 12 22 0 -5
BITMAP
0000
0000
0000
0000
0000
0000
0000
ff00
6080
60c0
6180
7f80
60c0
6060
6060
60c0
ff80
0000
0000
0000
0000
0000
ENDCHAR
STARTCHAR U029a
ENCODING 666
SWIDTH 500 0
DWIDTH 12 0
BBX 12 22 0 -5
BITMAP
0000
0000
0000
0000
0000
0000
0000
1f00
3f80
40c0
c060
7e60
7e60
c060
c040
7f80
3e00
0000
0000
0000
0000
0000
ENDCHAR
STARTCHAR U029b
ENCODING 667
SWIDTH 500 0
DWIDTH 12 0
BBX 12 22 0 -5
BITMAP
0000
0000
0000
0000
0000
0070
0090
0fc0
1060
2020
6000
6000
61f0
6060
3060
1860
0f80
0000
0000
0000
0000
0000
ENDCHAR
STARTCHAR U029c
ENCODING 668
SWIDTH 500 0
DWIDTH 12 0
BBX 12 22 0 -5
BITMAP
0000
0000
0000
0000
0000
0000
0000
f1e0
60c0
60c0
60c0
7fc0
60c0
60c0
60c0
60c0
f1e0
0000
0000
0000
0000
0000
ENDCHAR
STARTCHAR U029d
ENCODING 669
SWIDTH 500 0
DWIDTH 12 0
BBX 12 22 0 -5
BITMAP
0000
0000
0000
0300
0300
0000
0000
0f00
0300
0300
0300
0300
0300
0300
0300
0300
07c0
1b00
2300
2200
1c00
0000
ENDCHAR
STARTCHAR U029e
ENCODING 670
SWIDTH 500 0
DWIDTH 12 0
BBX 12 22 0 -5
BITMAP
0000
0000
f1e0
38c0
1cc0
0ec0
07c0
03c0
07c0
0cc0
18c0
70c0
00c0
00c0
00c0
00e0
00c0
0000
0000
0000
0000
0000
ENDCHAR
STARTCHAR U029f
ENCODING 671
SWIDTH 500 0
DWIDTH 12 0
BBX 12 22 0 -5
BITMAP
0000
0000
0000
0000
0000
0000
0000
7800
3000
3000
3000
3000
3000
3000
3000
3040
7fc0
0000
0000
0000
0000
0000
ENDCHAR
STARTCHAR U02a0
ENCODING 672
SWIDTH 500 0
DWIDTH 12 0
BBX 12 22 0 -5
BITMAP
0000
0000
0000
0000
0030
0050
0050
1e40
23c0
41c0
c0c0
c0c0
c0c0
c0c0
e0c0
71c0
3fc0
00c0
00c0
00c0
00c0
01e0
ENDCHAR
STARTCHAR U02a1
ENCODING 673
SWIDTH 500 0
DWIDTH 12 0
BBX 12 22 0 -5
BITMAP
0000
0000
1e00
7180
6040
6060
0060
0060
00c0
0180
0f00
0c00
7f80
0c00
0c00
0c00
1e00
0000
0000
0000
0000
0000
ENDCHAR
STARTCHAR U02a2
ENCODING 674
SWIDTH 500 0
DWIDTH 12 0
BBX 12 22 0 -5
BITMAP
0000
0000
0780
18e0
2060
6060
6000
6000
3000
1800
0f00
0300
1fe0
0300
0300
0300
0780
0000
0000
0000
0000
0000
ENDCHAR
STARTCHAR U02a3
ENCODING 675
SWIDTH 500 0
DWIDTH 12 0
BBX 12 22 0 -5
BITMAP
0000
0000
0000
0c00
1c00
0c00
0c00
6df0
dd10
8c20
8c20
8c40
8c40
8c80
8c80
dd10
7bf0
0000
0000
0000
0000
0000
ENDCHAR
STARTCHAR U02a4
ENCODING 676
SWIDTH 500 0
DWIDTH 12 0
BBX 12 22 0 -5
BITMAP
0000
0000
0000
0c00
1c00
0c00
0c00
6df0
dd10
8c20
8c20
8c40
8c40
8cc0
8c60
dc30
7a10
0010
0c20
0640
0180
0000
ENDCHAR
STARTCHAR U02a5
ENCODING 677
SWIDTH 500 0
DWIDTH 12 0
BBX 12 22 0 -5
BITMAP
0000
0000
0000
0c00
1c00
0c00
0c00
6df0
dd10
8c20
8c20
8c40
8c40
8c80
8ce0
dd90
7bf0
0100
0200
0000
0000
0000
ENDCHAR
STARTCHAR U02a6
ENCODING 678
SWIDTH 500 0
DWIDTH 12 0
BBX 12 22 0 -5
BITMAP
0000
0000
0000
0000
2000
2000
6000
fff0
6630
6610
6700
6380
60e0
6070
6230
6630
3fe0
0000
0000
0000
0000
0000
ENDCHAR
STARTCHAR U02a7
ENCODING 679
SWIDTH 500 0
DWIDTH 12 0
BBX 12 22 0 -5
BITMAP
0000
0000
00e0
0130
2330
2300
6300
ff00
6300
6300
6300
6300
6300
6300
6300
7300
3f00
0300
0300
3200
3200
1c00
ENDCHAR
STARTCHAR U02a8
ENCODING 680
SWIDTH 500 0
DWIDTH 12 0
BBX 12 22 0 -5
BITMAP
0000
0000
0000
0000
2000
2000
6000
f9e0
6330
6210
6600
6600
6600
6660
6290
63b0
3de0
0100
0200
0000
0000
0000
ENDCHAR
STARTCHAR U02a9
ENCODING 681
SWIDTH 500 0
DWIDTH 12 0
BBX 12 22 0 -5
BITMAP
0000
0000
1800
2600
2600
6000
6000
6000
6000
fbc0
6660
6660
6660
6660
6660
6660
f760
0060
0060
0c60
0cc0
0780
ENDCHAR
STARTCHAR U02aa
ENCODING 682
SWIDTH 500 0
DWIDTH 12 0
BBX 12 22 0 -5
BITMAP
0000
0000
0000
0000
e000
6000
6000
63f0
6630
6610
6700
6380
60e0
6070
6430
6630
3fe0
0000
0000
0000
0000
0000
ENDCHAR
STARTCHAR U02ab
ENCODING 683
SWIDTH 500 0
DWIDTH 12 0
BBX 12 22 0 -5
BITMAP
0000
0000
0000
0000
e000
6000
6000
67f0
6630
6430
6070
60e0
61c0
6380
6710
6630
3ff0
0000
0000
0000
0000
0000
ENDCHAR
STARTCHAR U02ac
ENCODING 684
SWIDTH 500 0
DWIDTH 12 0
BBX 12 22 0 -5
BITMAP
0000
0000
ff70
6620
6620
3740
3b40
1980
1980
0000
ff70
6620
6620
3740
3b40
1980
1980
0000
0000
0000
0000
0000
ENDCHAR
STARTCHAR U02ad
ENCODING 685
SWIDTH 500 0
DWIDTH 12 0
BBX 12 22 0 -5
BITMAP
0000
0000
0000
0000
0000
0000
7fe0
7fe0
6060
6060
0000
0000
7fe0
7fe0
6060
6060
0000
0000
0000
0000
0000
0000
ENDCHAR
STARTCHAR U02ae
ENCODING 686
SWIDTH 500 0
DWIDTH 12 0
BBX 12 22 0 -5
BITMAP
0000
6000
a1e0
b0c0
b0c0
30c0
30c0
30c0
30c0
30c0
39c0
1ec0
00c0
00c0
00e0
00c0
0080
0000
0000
0000
0000
0000
ENDCHAR
STARTCHAR U02af
ENCODING 687
SWIDTH 500 0
DWIDTH 12 0
BBX 12 22 0 -5
BITMAP
0000
6000
a1e0
b0c0
b0c0
30c0
30c0
30c0
30c0
30c0
39c0
1ec0
00c0
00c0
00d0
0050
0050
0060
0000
0000
0000
0000
ENDCHAR
STARTCHAR U02b0
ENCODING 688
SWIDTH 500 0
DWIDTH 12 0
BBX 12 22 0 -5
BITMAP
0000
0000
1000
3000
7000
3000
3780
39c0
30c0
30c0
30c0
30c0
79e0
0000
0000
0000
0000
0000
0000
0000
0000
0000
ENDCHAR
STARTCHAR U02b1
ENCODING 689
SWIDTH 500 0
DWIDTH 12 0
BBX 12 22 0 -5
BITMAP
0000
0f00
1380
3000
3000
3000
3780
39c0
30c0
30c0
30c0
30c0
79e0
0000
0000
0000
0000
0000
0000
0000
0000
0000
ENDCHAR
STARTCHAR U02b2
ENCODING 690
SWIDTH 500 0
DWIDTH 12 0
BBX 12 22 0 -5
BITMAP
0000
00c0
00c0
0000
03c0
00c0
00c0
00c0
00c0
00c0
00c0
10c0
1880
0f00
0000
0000
0000
0000
0000
0000
0000
0000
ENDCHAR
STARTCHAR U02b3
ENCODING 691
SWIDTH 500 0
DWIDTH 12 0
BBX 12 22 0 -5
BITMAP
0000
0000
3380
1cc0
1800
1800
1800
1800
1800
3c00
0000
0000
0000
0000
0000
0000
0000
0000
0000
0000
0000
0000
ENDCHAR
STARTCHAR U02b4
ENCODING 692
SWIDTH 500 0
DWIDTH 12 0
BBX 12 22 0 -5
BITMAP
0000
0000
03c0
0180
0180
0180
0180
0180
3380
1cc0
0000
0000
0000
0000
0000
0000
0000
0000
0000
0000
0000
0000
ENDCHAR
STARTCHAR U02b5
ENCODING 693
SWIDTH 500 0
DWIDTH 12 0
BBX 12 22 0 -5
BITMAP
0000
0000
0780
0300
0300
0300
0300
0300
6700
3b00
0300
0160
0080
0000
0000
0000
0000
0000
0000
0000
0000
0000
ENDCHAR
STARTCHAR U02b6
ENCODING 694
SWIDTH 500 0
DWIDTH 12 0
BBX 12 22 0 -5
BITMAP
0000
0000
78e0
31c0
3380
3700
3e00
3f80
3040
3060
30c0
7f80
0000
0000
0000
0000
0000
0000
0000
0000
0000
0000
ENDCHAR
STARTCHAR U02b7
ENCODING 695
SWIDTH 500 0
DWIDTH 12 0
BBX 12 22 0 -5
BITMAP
0000
0000
eff0
4660
4660
2ec0
2dc0
2dc0
1980
1980
1980
0000
0000
0000
0000
0000
0000
0000
0000
0000
0000
0000
ENDCHAR
STARTCHAR U02b8
ENCODING 696
SWIDTH 500 0
DWIDTH 12 0
BBX 12 22 0 -5
BITMAP
0000
0000
78f0
3020
1840
0c80
0d00
0500
0600
0600
0c00
3800
3000
0000
0000
0000
0000
0000
0000
0000
0000
0000
ENDCHAR
STARTCHAR U02b9
ENCODING 697
SWIDTH 500 0
DWIDTH 12 0
BBX 12 22 0 -5
BITMAP
0000
0000
0300
0300
0600
0600
0c00
0c00
0000
0000
0000
0000
0000
0000
0000
0000
0000
0000
0000
0000
0000
0000
ENDCHAR
STARTCHAR U02ba
ENCODING 698
SWIDTH 500 0
DWIDTH 12 0
BBX 12 22 0 -5
BITMAP
0000
0000
0c60
0c60
18c0
18c0
3180
3180
0000
0000
0000
0000
0000
0000
0000
0000
0000
0000
0000
0000
0000
0000
ENDCHAR
STARTCHAR U02bb
ENCODING 699
SWIDTH 500 0
DWIDTH 12 0
BBX 12 22 0 -5
BITMAP
0000
0000
0100
0300
0600
0c00
0c00
0f00
0f00
0600
0000
0000
0000
0000
0000
0000
0000
0000
0000
0000
0000
0000
ENDCHAR
STARTCHAR U02bc
ENCODING 700
SWIDTH 500 0
DWIDTH 12 0
BBX 12 22 0 -5
BITMAP
0000
0000
0600
0f00
0f00
0300
0300
0600
0c00
0800
0000
0000
0000
0000
0000
0000
0000
0000
0000
0000
0000
0000
ENDCHAR
STARTCHAR U02bd
ENCODING 701
SWIDTH 500 0
DWIDTH 12 0
BBX 12 22 0 -5
BITMAP
0000
0000
0600
0f00
0f00
0c00
0c00
0600
0300
0100
0000
0000
0000
0000
0000
0000
0000
0000
0000
0000
0000
0000
ENDCHAR
STARTCHAR U02be
ENCODING 702
SWIDTH 500 0
DWIDTH 12 0
BBX 12 22 0 -5
BITMAP
0000
0000
0e00
0380
0180
0180
0380
0e00
0000
0000
0000
0000
0000
0000
0000
0000
0000
0000
0000
0000
0000
0000
ENDCHAR
STARTCHAR U02bf
ENCODING 703
SWIDTH 500 0
DWIDTH 12 0
BBX 12 22 0 -5
BITMAP
0000
0000
0700
1c00
1800
1800
1c00
0700
0000
0000
0000
0000
0000
0000
0000
0000
0000
0000
0000
0000
0000
0000
ENDCHAR
STARTCHAR U02c0
ENCODING 704
SWIDTH 500 0
DWIDTH 12 0
BBX 12 22 0 -5
BITMAP
0000
0000
1e00
7180
60c0
00c0
0180
0e00
0800
0800
0800
0000
0000
0000
0000
0000
0000
0000
0000
0000
0000
0000
ENDCHAR
STARTCHAR U02c1
ENCODING 705
SWIDTH 500 0
DWIDTH 12 0
BBX 12 22 0 -5
BITMAP
0000
0000
0780
18e0
3060
3000
1800
0700
0100
0100
0100
0000
0000
0000
0000
0000
0000
0000
0000
0000
0000
0000
ENDCHAR
STARTCHAR U02c2
ENCODING 706
SWIDTH 500 0
DWIDTH 12 0
BBX 12 22 0 -5
BITMAP
0000
0000
00e0
0380
0e00
3800
0e00
0380
00e0
0000
0000
0000
0000
0000
0000
0000
0000
0000
0000
0000
0000
0000
ENDCHAR
STARTCHAR U02c3
ENCODING 707
SWIDTH 500 0
DWIDTH 12 0
BBX 12 22 0 -5
BITMAP
0000
0000
7000
1c00
0700
01c0
0700
1c00
7000
0000
0000
0000
0000
0000
0000
0000
0000
0000
0000
0000
0000
0000
ENDCHAR
STARTCHAR U02c4
ENCODING 708
SWIDTH 500 0
DWIDTH 12 0
BBX 12 22 0 -5
BITMAP
0000
0000
0600
0f00
1980
30c0
6060
0000
0000
0000
0000
0000
0000
0000
0000
0000
0000
0000
0000
0000
0000
0000
ENDCHAR
STARTCHAR U02c5
ENCODING 709
SWIDTH 500 0
DWIDTH 12 0
BBX 12 22 0 -5
BITMAP
0000
0000
6060
30c0
1980
0f00
0600
0000
0000
0000
0000
0000
0000
0000
0000
0000
0000
0000
0000
0000
0000
0000
ENDCHAR
STARTCHAR U02c6
ENCODING 710
SWIDTH 500 0
DWIDTH 12 0
BBX 12 22 0 -5
BITMAP
0000
0000
0600
1f80
30c0
0000
0000
0000
0000
0000
0000
0000
0000
0000
0000
0000
0000
0000
0000
0000
0000
0000
ENDCHAR
STARTCHAR U02c7
ENCODING 711
SWIDTH 500 0
DWIDTH 12 0
BBX 12 22 0 -5
BITMAP
0000
0000
30c0
1980
0600
0000
0000
0000
0000
0000
0000
0000
0000
0000
0000
0000
0000
0000
0000
0000
0000
0000
ENDCHAR
STARTCHAR U02c8
ENCODING 712
SWIDTH 500 0
DWIDTH 12 0
BBX 12 22 0 -5
BITMAP
0000
0000
0600
0600
0600
0600
0600
0600
0000
0000
0000
0000
0000
0000
0000
0000
0000
0000
0000
0000
0000
0000
ENDCHAR
STARTCHAR U02c9
ENCODING 713
SWIDTH 500 0
DWIDTH 12 0
BBX 12 22 0 -5
BITMAP
0000
0000
3fc0
3fc0
0000
0000
0000
0000
0000
0000
0000
0000
0000
0000
0000
0000
0000
0000
0000
0000
0000
0000
ENDCHAR
STARTCHAR U02ca
ENCODING 714
SWIDTH 500 0
DWIDTH 12 0
BBX 12 22 0 -5
BITMAP
0380
0f00
1c00
0000
0000
0000
0000
0000
0000
0000
0000
0000
0000
0000
0000
0000
0000
0000
0000
0000
0000
0000
ENDCHAR
STARTCHAR U02cb
ENCODING 715
SWIDTH 500 0
DWIDTH 12 0
BBX 12 22 0 -5
BITMAP
1c00
0f00
0380
0000
0000
0000
0000
0000
0000
0000
0000
0000
0000
0000
0000
0000
0000
0000
0000
0000
0000
0000
ENDCHAR
STARTCHAR U02cc
ENCODING 716
SWIDTH 500 0
DWIDTH 12 0
BBX 12 22 0 -5
BITMAP
0000
0000
0000
0000
0000
0000
0000
0000
0000
0000
0000
0000
0000
0000
0000
0000
0000
0600
0600
0600
0600
0600
ENDCHAR
STARTCHAR U02cd
ENCODING 717
SWIDTH 500 0
DWIDTH 12 0
BBX 12 22 0 -5
BITMAP
0000
0000
0000
0000
0000
0000
0000
0000
0000
0000
0000
0000
0000
0000
0000
0000
0000
0000
0000
3fc0
3fc0
0000
ENDCHAR
STARTCHAR U02ce
ENCODING 718
SWIDTH 500 0
DWIDTH 12 0
BBX 12 22 0 -5
BITMAP
1c00
0f00
0380
0000
0000
0000
0000
0000
0000
0000
0000
0000
0000
0000
0000
0000
0000
0000
0000
0000
0000
0000
ENDCHAR
STARTCHAR U02cf
ENCODING 719
SWIDTH 500 0
DWIDTH 12 0
BBX 12 22 0 -5
BITMAP
0380
0f00
1c00
0000
0000
0000
0000
0000
0000
0000
0000
0000
0000
0000
0000
0000
0000
0000
0000
0000
0000
0000
ENDCHAR
STARTCHAR U02d0
ENCODING 720
SWIDTH 500 0
DWIDTH 12 0
BBX 12 22 0 -5
BITMAP
0000
0000
0000
0000
0000
0000
0000
1f80
0f00
0600
0000
0000
0000
0000
0600
0f00
1f80
0000
0000
0000
0000
0000
ENDCHAR
STARTCHAR U02d1
ENCODING 721
SWIDTH 500 0
DWIDTH 12 0
BBX 12 22 0 -5
BITMAP
0000
0000
0000
0000
0000
0000
0000
1f80
0f00
0600
0000
0000
0000
0000
0000
0000
0000
0000
0000
0000
0000
0000
ENDCHAR
STARTCHAR U02d2
ENCODING 722
SWIDTH 500 0
DWIDTH 12 0
BBX 12 22 0 -5
BITMAP
0000
0000
0000
0000
0000
0000
0000
0000
0e00
0380
0180
0180
0380
0e00
0000
0000
0000
0000
0000
0000
0000
0000
ENDCHAR
STARTCHAR U02d3
ENCODING 723
SWIDTH 500 0
DWIDTH 12 0
BBX 12 22 0 -5
BITMAP
0000
0000
0000
0000
0000
0000
0000
0000
0700
1c00
1800
1800
1c00
0700
0000
0000
0000
0000
0000
0000
0000
0000
ENDCHAR
STARTCHAR U02d4
ENCODING 724
SWIDTH 500 0
DWIDTH 12 0
BBX 12 22 0 -5
BITMAP
0000
0000
0000
0000
0000
0000
0000
0000
0600
0600
0600
0600
1f80
1f80
0000
0000
0000
0000
0000
0000
0000
0000
ENDCHAR
STARTCHAR U02d5
ENCODING 725
SWIDTH 500 0
DWIDTH 12 0
BBX 12 22 0 -5
BITMAP
0000
0000
0000
0000
0000
0000
0000
0000
1f80
1f80
0600
0600
0600
0600
0000
0000
0000
0000
0000
0000
0000
0000
ENDCHAR
STARTCHAR U02d6
ENCODING 726
SWIDTH 500 0
DWIDTH 12 0
BBX 12 22 0 -5
BITMAP
0000
0000
0000
0000
0000
0000
0000
0000
0600
0600
1f80
1f80
0600
0600
0000
0000
0000
0000
0000
0000
0000
0000
ENDCHAR
STARTCHAR U02d7
ENCODING 727
SWIDTH 500 0
DWIDTH 12 0
BBX 12 22 0 -5
BITMAP
0000
0000
0000
0000
0000
0000
0000
0000
0000
0000
1f80
1f80
0000
0000
0000
0000
0000
0000
0000
0000
0000
0000
ENDCHAR
STARTCHAR U02d8
ENCODING 728
SWIDTH 500 0
DWIDTH 12 0
BBX 12 22 0 -5
BITMAP
1980
1980
0f00
0000
0000
0000
0000
0000
0000
0000
0000
0000
0000
0000
0000
0000
0000
0000
0000
0000
0000
0000
ENDCHAR
STARTCHAR U02d9
ENCODING 729
SWIDTH 500 0
DWIDTH 12 0
BBX 12 22 0 -5
BITMAP
0600
0f00
0600
0000
0000
0000
0000
0000
0000
0000
0000
0000
0000
0000
0000
0000
0000
0000
0000
0000
0000
0000
ENDCHAR
STARTCHAR U02da
ENCODING 730
SWIDTH 500 0
DWIDTH 12 0
BBX 12 22 0 -5
BITMAP
0f00
1980
1980
0f00
0000
0000
0000
0000
0000
0000
0000
0000
0000
0000
0000
0000
0000
0000
0000
0000
0000
0000
ENDCHAR
STARTCHAR U02db
ENCODING 731
SWIDTH 500 0
DWIDTH 12 0
BBX 12 22 0 -5
BITMAP
0000
0000
0000
0000
0000
0000
0000
0000
0000
0000
0000
0000
0000
0000
0000
0000
0000
0600
0300
0180
0f00
0000
ENDCHAR
STARTCHAR U02dc
ENCODING 732
SWIDTH 500 0
DWIDTH 12 0
BBX 12 22 0 -5
BITMAP
1c60
36c0
6380
0000
0000
0000
0000
0000
0000
0000
0000
0000
0000
0000
0000
0000
0000
0000
0000
0000
0000
0000
ENDCHAR
STARTCHAR U02dd
ENCODING 733
SWIDTH 500 0
DWIDTH 12 0
BBX 12 22 0 -5
BITMAP
1c70
79e0
e380
0000
0000
0000
0000
0000
0000
0000
0000
0000
0000
0000
0000
0000
0000
0000
0000
0000
0000
0000
ENDCHAR
STARTCHAR U02de
ENCODING 734
SWIDTH 500 0
DWIDTH 12 0
BBX 12 22 0 -5
BITMAP
0000
0000
0000
0000
0000
0000
0000
0000
0000
1c00
36c0
0380
0100
0000
0000
0000
0000
0000
0000
0000
0000
0000
ENDCHAR
STARTCHAR U02df
ENCODING 735
SWIDTH 500 0
DWIDTH 12 0
BBX 12 22 0 -5
BITMAP
30c0
1980
0f00
0600
0f00
1980
30c0
0000
0000
0000
0000
0000
0000
0000
0000
0000
0000
0000
0000
0000
0000
0000
ENDCHAR
STARTCHAR U02e0
ENCODING 736
SWIDTH 500 0
DWIDTH 12 0
BBX 12 22 0 -5
BITMAP
0000
0000
70e0
3040
1880
1900
0d00
0e00
0600
0e00
1300
2180
1f00
0000
0000
0000
0000
0000
0000
0000
0000
0000
ENDCHAR
STARTCHAR U02e1
ENCODING 737
SWIDTH 500 0
DWIDTH 12 0
BBX 12 22 0 -5
BITMAP
0000
1e00
0600
0600
0600
0600
0600
0600
0600
0600
0600
1f80
0000
0000
0000
0000
0000
0000
0000
0000
0000
0000
ENDCHAR
STARTCHAR U02e2
ENCODING 738
SWIDTH 500 0
DWIDTH 12 0
BBX 12 22 0 -5
BITMAP
0000
0000
1fc0
30c0
3800
1e00
0780
01c0
30c0
3f80
0000
0000
0000
0000
0000
0000
0000
0000
0000
0000
0000
0000
ENDCHAR
STARTCHAR U02e3
ENCODING 739
SWIDTH 500 0
DWIDTH 12 0
BBX 12 22 0 -5
BITMAP
0000
0000
79c0
3080
1900
0e00
0700
0980
10c0
39e0
0000
0000
0000
0000
0000
0000
0000
0000
0000
0000
0000
0000
ENDCHAR
STARTCHAR U02e4
ENCODING 740
SWIDTH 500 0
DWIDTH 12 0
BBX 12 22 0 -5
BITMAP
0000
0000
0700
18c0
18c0
1800
0e00
0200
0200
0000
0000
0000
0000
0000
0000
0000
0000
0000
0000
0000
0000
0000
ENDCHAR
STARTCHAR U02e5
ENCODING 741
SWIDTH 500 0
DWIDTH 12 0
BBX 12 22 0 -5
BITMAP
0000
0000
0000
0000
3f80
0180
0180
0180
0180
0180
0180
0180
0180
0180
0180
0180
0180
0000
0000
0000
0000
0000
ENDCHAR
STARTCHAR U02e6
ENCODING 742
SWIDTH 500 0
DWIDTH 12 0
BBX 12 22 0 -5
BITMAP
0000
0000
0000
0000
0180
0180
0180
3f80
0180
0180
0180
0180
0180
0180
0180
0180
0180
0000
0000
0000
0000
0000
ENDCHAR
STARTCHAR U02e7
ENCODING 743
SWIDTH 500 0
DWIDTH 12 0
BBX 12 22 0 -5
BITMAP
0000
0000
0000
0000
0180
0180
0180
0180
0180
0180
3f80
0180
0180
0180
0180
0180
0180
0000
0000
0000
0000
0000
ENDCHAR
STARTCHAR U02e8
ENCODING 744
SWIDTH 500 0
DWIDTH 12 0
BBX 12 22 0 -5
BITMAP
0000
0000
0000
0000
0180
0180
0180
0180
0180
0180
0180
0180
0180
3f80
0180
0180
0180
0000
0000
0000
0000
0000
ENDCHAR
STARTCHAR U02e9
ENCODING 745
SWIDTH 500 0
DWIDTH 12 0
BBX 12 22 0 -5
BITMAP
0000
0000
0000
0000
0180
0180
0180
0180
0180
0180
0180
0180
0180
0180
0180
0180
3f80
0000
0000
0000
0000
0000
ENDCHAR
STARTCHAR U02ea
ENCODING 746
SWIDTH 500 0
DWIDTH 12 0
BBX 12 22 0 -5
BITMAP
0000
0000
0000
0000
0000
0000
0000
0000
0000
0000
3000
3000
3000
3000
3000
3000
3f80
0000
0000
0000
0000
0000
ENDCHAR
STARTCHAR U02eb
ENCODING 747
SWIDTH 500 0
DWIDTH 12 0
BBX 12 22 0 -5
BITMAP
0000
0000
0000
0000
0000
0000
0000
0000
0000
0000
3000
3000
3000
3f80
3000
3000
3000
0000
0000
0000
0000
0000
ENDCHAR
STARTCHAR U02ec
ENCODING 748
SWIDTH 500 0
DWIDTH 12 0
BBX 12 22 0 -5
BITMAP
0000
0000
0000
0000
0000
0000
0000
0000
0000
0000
0000
0000
0000
0000
0000
0000
0000
60c0
3180
1b00
0e00
0400
ENDCHAR
STARTCHAR U02ed
ENCODING 749
SWIDTH 500 0
DWIDTH 12 0
BBX 12 22 0 -5
BITMAP
0000
7fe0
0000
7fe0
0000
0000
0000
0000
0000
0000
0000
0000
0000
0000
0000
0000
0000
0000
0000
0000
0000
0000
ENDCHAR
STARTCHAR U02ee
ENCODING 750
SWIDTH 500 0
DWIDTH 12 0
BBX 12 22 0 -5
BITMAP
0000
0000
30c0
79e0
79e0
1860
1860
30c0
6180
4100
0000
0000
0000
0000
0000
0000
0000
0000
0000
0000
0000
0000
ENDCHAR
STARTCHAR U02ef
ENCODING 751
SWIDTH 500 0
DWIDTH 12 0
BBX 12 22 0 -5
BITMAP
0000
0000
0000
0000
0000
0000
0000
0000
0000
0000
0000
0000
0000
0000
0000
0000
0000
6060
30c0
1980
0f00
0600
ENDCHAR
STARTCHAR U02f0
ENCODING 752
SWIDTH 500 0
DWIDTH 12 0
BBX 12 22 0 -5
BITMAP
0000
0000
0000
0000
0000
0000
0000
0000
0000
0000
0000
0000
0000
0000
0000
0000
0000
0600
0f00
1980
30c0
6060
ENDCHAR
STARTCHAR U02f1
ENCODING 753
SWIDTH 500 0
DWIDTH 12 0
BBX 12 22 0 -5
BITMAP
0000
0000
0000
0000
0000
0000
0000
0000
0000
0000
0000
0000
0000
0000
0000
00e0
0380
0e00
3800
0e00
0380
00e0
ENDCHAR
STARTCHAR U02f2
ENCODING 754
SWIDTH 500 0
DWIDTH 12 0
BBX 12 22 0 -5
BITMAP
0000
0000
0000
0000
0000
0000
0000
0000
0000
0000
0000
0000
0000
0000
0000
7000
1c00
0700
01c0
0700
1c00
7000
ENDCHAR
STARTCHAR U02f3
ENCODING 755
SWIDTH 500 0
DWIDTH 12 0
BBX 12 22 0 -5
BITMAP
0000
0000
0000
0000
0000
0000
0000
0000
0000
0000
0000
0000
0000
0000
0000
0000
0000
0000
0f00
1980
1980
0f00
ENDCHAR
STARTCHAR U02f4
ENCODING 756
SWIDTH 500 0
DWIDTH 12 0
BBX 12 22 0 -5
BITMAP
0000
0000
0000
0000
0000
0000
0000
0000
1c00
0f00
0380
0000
0000
0000
0000
0000
0000
0000
0000
0000
0000
0000
ENDCHAR
STARTCHAR U02f5
ENCODING 757
SWIDTH 500 0
DWIDTH 12 0
BBX 12 22 0 -5
BITMAP
0000
0000
0000
0000
0000
0000
0000
0000
e380
79e0
1c70
0000
0000
0000
0000
0000
0000
0000
0000
0000
0000
0000
ENDCHAR
STARTCHAR U02f6
ENCODING 758
SWIDTH 500 0
DWIDTH 12 0
BBX 12 22 0 -5
BITMAP
0000
0000
0000
0000
0000
0000
0000
0000
1c70
79e0
e380
0000
0000
0000
0000
0000
0000
0000
0000
0000
0000
0000
ENDCHAR
STARTCHAR U02f7
ENCODING 759
SWIDTH 500 0
DWIDTH 12 0
BBX 12 22 0 -5
BITMAP
0000
0000
0000
0000
0000
0000
0000
0000
0000
0000
0000
0000
0000
0000
0000
0000
0000
0000
0000
1c60
36c0
6380
ENDCHAR
STARTCHAR U02f8
ENCODING 760
SWIDTH 500 0
DWIDTH 12 0
BBX 12 22 0 -5
BITMAP
0000
0000
0c00
1e00
1e00
0c00
0000
0000
0c00
1e00
1e00
0c00
0000
0000
0000
0000
0000
0000
0000
0000
0000
0000
ENDCHAR
STARTCHAR U02f9
ENCODING 761
SWIDTH 500 0
DWIDTH 12 0
BBX 12 22 0 -5
BITMAP
0000
0000
3f80
3f80
3000
3000
3000
3000
3000
0000
0000
0000
0000
0000
0000
0000
0000
0000
0000
0000
0000
0000
ENDCHAR
STARTCHAR U02fa
ENCODING 762
SWIDTH 500 0
DWIDTH 12 0
BBX 12 22 0 -5
BITMAP
0000
0000
1fc0
1fc0
00c0
00c0
00c0
00c0
00c0
0000
0000
0000
0000
0000
0000
0000
0000
0000
0000
0000
0000
0000
ENDCHAR
STARTCHAR U02fb
ENCODING 763
SWIDTH 500 0
DWIDTH 12 0
BBX 12 22 0 -5
BITMAP
0000
0000
0000
0000
0000
0000
0000
0000
0000
0000
3000
3000
3000
3000
3000
3f80
3f80
0000
0000
0000
0000
0000
ENDCHAR
STARTCHAR U02fc
ENCODING 764
SWIDTH 500 0
DWIDTH 12 0
BBX 12 22 0 -5
BITMAP
0000
0000
0000
0000
0000
0000
0000
0000
0000
0000
00c0
00c0
00c0
00c0
00c0
1fc0
1fc0
0000
0000
0000
0000
0000
ENDCHAR
STARTCHAR U02fd
ENCODING 765
SWIDTH 500 0
DWIDTH 12 0
BBX 12 22 0 -5
BITMAP
0000
0000
0000
0000
0000
0000
0000
0000
0000
0000
6060
6060
6060
6060
6060
7fe0
7fe0
0000
0000
0000
0000
0000
ENDCHAR
STARTCHAR U02fe
ENCODING 766
SWIDTH 500 0
DWIDTH 12 0
BBX 12 22 0 -5
BITMAP
0000
0000
0000
0000
0000
0000
0000
0000
0000
0000
6000
6000
6000
6000
6000
7fe0
7fe0
0000
0000
0000
0000
0000
ENDCHAR
STARTCHAR U02ff
ENCODING 767
SWIDTH 500 0
DWIDTH 12 0
BBX 12 22 0 -5
BITMAP
0000
0000
0000
0000
0000
0000
0000
0000
0000
0000
0000
0000
0000
0000
0000
0000
0000
1000
3000
7fe0
3000
1000
ENDCHAR
STARTCHAR U0300
ENCODING 768
SWIDTH 500 0
DWIDTH 12 0
BBX 12 22 0 -5
BITMAP
0c00
0600
0300
0000
0000
0000
0000
0000
0000
0000
0000
0000
0000
0000
0000
0000
0000
0000
0000
0000
0000
0000
ENDCHAR
STARTCHAR U0301
ENCODING 769
SWIDTH 500 0
DWIDTH 12 0
BBX 12 22 0 -5
BITMAP
0300
0600
0c00
0000
0000
0000
0000
0000
0000
0000
0000
0000
0000
0000
0000
0000
0000
0000
0000
0000
0000
0000
ENDCHAR
STARTCHAR U0302
ENCODING 770
SWIDTH 500 0
DWIDTH 12 0
BBX 12 22 0 -5
BITMAP
0400
0e00
1b00
3180
0000
0000
0000
0000
0000
0000
0000
0000
0000
0000
0000
0000
0000
0000
0000
0000
0000
0000
ENDCHAR
STARTCHAR U0303
ENCODING 771
SWIDTH 500 0
DWIDTH 12 0
BBX 12 22 0 -5
BITMAP
1c80
3f80
2700
0000
0000
0000
0000
0000
0000
0000
0000
0000
0000
0000
0000
0000
0000
0000
0000
0000
0000
0000
ENDCHAR
STARTCHAR U0304
ENCODING 772
SWIDTH 500 0
DWIDTH 12 0
BBX 12 22 0 -5
BITMAP
0000
1f80
1f80
0000
0000
0000
0000
0000
0000
0000
0000
0000
0000
0000
0000
0000
0000
0000
0000
0000
0000
0000
ENDCHAR
STARTCHAR U0305
ENCODING 773
SWIDTH 500 0
DWIDTH 12 0
BBX 12 22 0 -5
BITMAP
0000
7fe0
7fe0
0000
0000
0000
0000
0000
0000
0000
0000
0000
0000
0000
0000
0000
0000
0000
0000
0000
0000
0000
ENDCHAR
STARTCHAR U0306
ENCODING 774
SWIDTH 500 0
DWIDTH 12 0
BBX 12 22 0 -5
BITMAP
1980
1980
0f00
0000
0000
0000
0000
0000
0000
0000
0000
0000
0000
0000
0000
0000
0000
0000
0000
0000
0000
0000
ENDCHAR
STARTCHAR U0307
ENCODING 775
SWIDTH 500 0
DWIDTH 12 0
BBX 12 22 0 -5
BITMAP
0600
0600
0000
0000
0000
0000
0000
0000
0000
0000
0000
0000
0000
0000
0000
0000
0000
0000
0000
0000
0000
0000
ENDCHAR
STARTCHAR U0308
ENCODING 776
SWIDTH 500 0
DWIDTH 12 0
BBX 12 22 0 -5
BITMAP
1980
1980
0000
0000
0000
0000
0000
0000
0000
0000
0000
0000
0000
0000
0000
0000
0000
0000
0000
0000
0000
0000
ENDCHAR
STARTCHAR U0309
ENCODING 777
SWIDTH 500 0
DWIDTH 12 0
BBX 12 22 0 -5
BITMAP
0e00
1300
0300
0600
0000
0000
0000
0000
0000
0000
0000
0000
0000
0000
0000
0000
0000
0000
0000
0000
0000
0000
ENDCHAR
STARTCHAR U030a
ENCODING 778
SWIDTH 500 0
DWIDTH 12 0
BBX 12 22 0 -5
BITMAP
0e00
1b00
1b00
0e00
0000
0000
0000
0000
0000
0000
0000
0000
0000
0000
0000
0000
0000
0000
0000
0000
0000
0000
ENDCHAR
STARTCHAR U030b
ENCODING 779
SWIDTH 500 0
DWIDTH 12 0
BBX 12 22 0 -5
BITMAP
1c70
79e0
e380
0000
0000
0000
0000
0000
0000
0000
0000
0000
0000
0000
0000
0000
0000
0000
0000
0000
0000
0000
ENDCHAR
STARTCHAR U030c
ENCODING 780
SWIDTH 500 0
DWIDTH 12 0
BBX 12 22 0 -5
BITMAP
3180
1b00
0e00
0400
0000
0000
0000
0000
0000
0000
0000
0000
0000
0000
0000
0000
0000
0000
0000
0000
0000
0000
ENDCHAR
STARTCHAR U030d
ENCODING 781
SWIDTH 500 0
DWIDTH 12 0
BBX 12 22 0 -5
BITMAP
0600
0600
0600
0600
0000
0000
0000
0000
0000
0000
0000
0000
0000
0000
0000
0000
0000
0000
0000
0000
0000
0000
ENDCHAR
STARTCHAR U030e
ENCODING 782
SWIDTH 500 0
DWIDTH 12 0
BBX 12 22 0 -5
BITMAP
1980
1980
1980
1980
0000
0000
0000
0000
0000
0000
0000
0000
0000
0000
0000
0000
0000
0000
0000
0000
0000
0000
ENDCHAR
STARTCHAR U030f
ENCODING 783
SWIDTH 500 0
DWIDTH 12 0
BBX 12 22 0 -5
BITMAP
e380
79e0
1c70
0000
0000
0000
0000
0000
0000
0000
0000
0000
0000
0000
0000
0000
0000
0000
0000
0000
0000
0000
ENDCHAR
STARTCHAR U0310
ENCODING 784
SWIDTH 500 0
DWIDTH 12 0
BBX 12 22 0 -5
BITMAP
6660
30c0
1f80
0000
0000
0000
0000
0000
0000
0000
0000
0000
0000
0000
0000
0000
0000
0000
0000
0000
0000
0000
ENDCHAR
STARTCHAR U0311
ENCODING 785
SWIDTH 500 0
DWIDTH 12 0
BBX 12 22 0 -5
BITMAP
0f00
1980
1980
0000
0000
0000
0000
0000
0000
0000
0000
0000
0000
0000
0000
0000
0000
0000
0000
0000
0000
0000
ENDCHAR
STARTCHAR U0312
ENCODING 786
SWIDTH 500 0
DWIDTH 12 0
BBX 12 22 0 -5
BITMAP
0700
0c00
0f00
0f00
0000
0000
0000
0000
0000
0000
0000
0000
0000
0000
0000
0000
0000
0000
0000
0000
0000
0000
ENDCHAR
STARTCHAR U0313
ENCODING 787
SWIDTH 500 0
DWIDTH 12 0
BBX 12 22 0 -5
BITMAP
0f00
0f00
0300
0e00
0000
0000
0000
0000
0000
0000
0000
0000
0000
0000
0000
0000
0000
0000
0000
0000
0000
0000
ENDCHAR
STARTCHAR U0314
ENCODING 788
SWIDTH 500 0
DWIDTH 12 0
BBX 12 22 0 -5
BITMAP
0f00
0f00
0c00
0700
0000
0000
0000
0000
0000
0000
0000
0000
0000
0000
0000
0000
0000
0000
0000
0000
0000
0000
ENDCHAR
STARTCHAR U0315
ENCODING 789
SWIDTH 500 0
DWIDTH 12 0
BBX 12 22 0 -5
BITMAP
01e0
01e0
0060
01c0
0000
0000
0000
0000
0000
0000
0000
0000
0000
0000
0000
0000
0000
0000
0000
0000
0000
0000
ENDCHAR
STARTCHAR U0316
ENCODING 790
SWIDTH 500 0
DWIDTH 12 0
BBX 12 22 0 -5
BITMAP
0000
0000
0000
0000
0000
0000
0000
0000
0000
0000
0000
0000
0000
0000
0000
0000
0000
0000
0000
1c00
0f00
0380
ENDCHAR
STARTCHAR U0317
ENCODING 791
SWIDTH 500 0
DWIDTH 12 0
BBX 12 22 0 -5
BITMAP
0000
0000
0000
0000
0000
0000
0000
0000
0000
0000
0000
0000
0000
0000
0000
0000
0000
0000
0000
0380
0f00
1c00
ENDCHAR
STARTCHAR U0318
ENCODING 792
SWIDTH 500 0
DWIDTH 12 0
BBX 12 22 0 -5
BITMAP
0000
0000
0000
0000
0000
0000
0000
0000
0000
0000
0000
0000
0000
0000
0000
0000
0000
0080
0080
0f80
0080
0080
ENDCHAR
STARTCHAR U0319
ENCODING 793
SWIDTH 500 0
DWIDTH 12 0
BBX 12 22 0 -5
BITMAP
0000
0000
0000
0000
0000
0000
0000
0000
0000
0000
0000
0000
0000
0000
0000
0000
0000
1000
1000
1f00
1000
1000
ENDCHAR
STARTCHAR U031a
ENCODING 794
SWIDTH 500 0
DWIDTH 12 0
BBX 12 22 0 -5
BITMAP
00f0
0010
0010
0010
0000
0000
0000
0000
0000
0000
0000
0000
0000
0000
0000
0000
0000
0000
0000
0000
0000
0000
ENDCHAR
STARTCHAR U031b
ENCODING 795
SWIDTH 500 0
DWIDTH 12 0
BBX 12 22 0 -5
BITMAP
0000
0000
0000
00f0
00f0
0030
00e0
0000
0000
0000
0000
0000
0000
0000
0000
0000
0000
0000
0000
0000
0000
0000
ENDCHAR
STARTCHAR U031c
ENCODING 796
SWIDTH 500 0
DWIDTH 12 0
BBX 12 22 0 -5
BITMAP
0000
0000
0000
0000
0000
0000
0000
0000
0000
0000
0000
0000
0000
0000
0000
0000
0000
0700
1c00
1800
1c00
0700
ENDCHAR
STARTCHAR U031d
ENCODING 797
SWIDTH 500 0
DWIDTH 12 0
BBX 12 22 0 -5
BITMAP
0000
0000
0000
0000
0000
0000
0000
0000
0000
0000
0000
0000
0000
0000
0000
0000
0000
0400
0400
0400
0400
1f00
ENDCHAR
STARTCHAR U031e
ENCODING 798
SWIDTH 500 0
DWIDTH 12 0
BBX 12 22 0 -5
BITMAP
0000
0000
0000
0000
0000
0000
0000
0000
0000
0000
0000
0000
0000
0000
0000
0000
0000
1f00
0400
0400
0400
0400
ENDCHAR
STARTCHAR U031f
ENCODING 799
SWIDTH 500 0
DWIDTH 12 0
BBX 12 22 0 -5
BITMAP
0000
0000
0000
0000
0000
0000
0000
0000
0000
0000
0000
0000
0000
0000
0000
0000
0000
0400
0400
1f00
0400
0400
ENDCHAR
STARTCHAR U0320
ENCODING 800
SWIDTH 500 0
DWIDTH 12 0
BBX 12 22 0 -5
BITMAP
0000
0000
0000
0000
0000
0000
0000
0000
0000
0000
0000
0000
0000
0000
0000
0000
0000
0000
0000
1f00
0000
0000
ENDCHAR
STARTCHAR U0321
ENCODING 801
SWIDTH 500 0
DWIDTH 12 0
BBX 12 22 0 -5
BITMAP
0000
0000
0000
0000
0000
0000
0000
0000
0000
0000
0000
0000
0000
0000
0000
0000
0000
0080
0080
0080
0100
1e00
ENDCHAR
STARTCHAR U0322
ENCODING 802
SWIDTH 500 0
DWIDTH 12 0
BBX 12 22 0 -5
BITMAP
0000
0000
0000
0000
0000
0000
0000
0000
0000
0000
0000
0000
0000
0000
0000
0000
0000
0200
0200
0200
0100
00f0
ENDCHAR
STARTCHAR U0323
ENCODING 803
SWIDTH 500 0
DWIDTH 12 0
BBX 12 22 0 -5
BITMAP
0000
0000
0000
0000
0000
0000
0000
0000
0000
0000
0000
0000
0000
0000
0000
0000
0000
0000
0000
0600
0600
0000
ENDCHAR
STARTCHAR U0324
ENCODING 804
SWIDTH 500 0
DWIDTH 12 0
BBX 12 22 0 -5
BITMAP
0000
0000
0000
0000
0000
0000
0000
0000
0000
0000
0000
0000
0000
0000
0000
0000
0000
0000
0000
1980
1980
0000
ENDCHAR
STARTCHAR U0325
ENCODING 805
SWIDTH 500 0
DWIDTH 12 0
BBX 12 22 0 -5
BITMAP
0000
0000
0000
0000
0000
0000
0000
0000
0000
0000
0000
0000
0000
0000
0000
0000
0000
0000
0600
0900
0900
0600
ENDCHAR
STARTCHAR U0326
ENCODING 806
SWIDTH 500 0
DWIDTH 12 0
BBX 12 22 0 -5
BITMAP
0000
0000
0000
0000
0000
0000
0000
0000
0000
0000
0000
0000
0000
0000
0000
0000
0000
0000
0f00
0f00
0300
0e00
ENDCHAR
STARTCHAR U0327
ENCODING 807
SWIDTH 500 0
DWIDTH 12 0
BBX 12 22 0 -5
BITMAP
0000
0000
0000
0000
0000
0000
0000
0000
0000
0000
0000
0000
0000
0000
0000
0000
0000
0600
0300
0180
0f00
0000
ENDCHAR
STARTCHAR U0328
ENCODING 808
SWIDTH 500 0
DWIDTH 12 0
BBX 12 22 0 -5
BITMAP
0000
0000
0000
0000
0000
0000
0000
0000
0000
0000
0000
0000
0000
0000
0000
0000
0000
0600
0c00
1800
0f00
0000
ENDCHAR
STARTCHAR U0329
ENCODING 809
SWIDTH 500 0
DWIDTH 12 0
BBX 12 22 0 -5
BITMAP
0000
0000
0000
0000
0000
0000
0000
0000
0000
0000
0000
0000
0000
0000
0000
0000
0000
0600
0600
0600
0600
0000
ENDCHAR
STARTCHAR U032a
ENCODING 810
SWIDTH 500 0
DWIDTH 12 0
BBX 12 22 0 -5
BITMAP
0000
0000
0000
0000
0000
0000
0000
0000
0000
0000
0000
0000
0000
0000
0000
0000
0000
0000
7fe0
4020
4020
0000
ENDCHAR
STARTCHAR U032b
ENCODING 811
SWIDTH 500 0
DWIDTH 12 0
BBX 12 22 0 -5
BITMAP
0000
0000
0000
0000
0000
0000
0000
0000
0000
0000
0000
0000
0000
0000
0000
0000
0000
0000
4620
4620
7fe0
0000
ENDCHAR
STARTCHAR U032c
ENCODING 812
SWIDTH 500 0
DWIDTH 12 0
BBX 12 22 0 -5
BITMAP
0000
0000
0000
0000
0000
0000
0000
0000
0000
0000
0000
0000
0000
0000
0000
0000
0000
0000
18c0
0d80
0700
0000
ENDCHAR
STARTCHAR U032d
ENCODING 813
SWIDTH 500 0
DWIDTH 12 0
BBX 12 22 0 -5
BITMAP
0000
0000
0000
0000
0000
0000
0000
0000
0000
0000
0000
0000
0000
0000
0000
0000
0000
0000
0400
0e00
1b00
3180
ENDCHAR
STARTCHAR U032e
ENCODING 814
SWIDTH 500 0
DWIDTH 12 0
BBX 12 22 0 -5
BITMAP
0000
0000
0000
0000
0000
0000
0000
0000
0000
0000
0000
0000
0000
0000
0000
0000
0000
0000
1980
1980
0f00
0000
ENDCHAR
STARTCHAR U032f
ENCODING 815
SWIDTH 500 0
DWIDTH 12 0
BBX 12 22 0 -5
BITMAP
0000
0000
0000
0000
0000
0000
0000
0000
0000
0000
0000
0000
0000
0000
0000
0000
0000
0000
0f00
1980
1980
0000
ENDCHAR
STARTCHAR U0330
ENCODING 816
SWIDTH 500 0
DWIDTH 12 0
BBX 12 22 0 -5
BITMAP
0000
0000
0000
0000
0000
0000
0000
0000
0000
0000
0000
0000
0000
0000
0000
0000
0000
0000
0e40
1fc0
1380
0000
ENDCHAR
STARTCHAR U0331
ENCODING 817
SWIDTH 500 0
DWIDTH 12 0
BBX 12 22 0 -5
BITMAP
0000
0000
0000
0000
0000
0000
0000
0000
0000
0000
0000
0000
0000
0000
0000
0000
0000
0000
0000
1f80
1f80
0000
ENDCHAR
STARTCHAR U0332
ENCODING 818
SWIDTH 500 0
DWIDTH 12 0
BBX 12 22 0 -5
BITMAP
0000
0000
0000
0000
0000
0000
0000
0000
0000
0000
0000
0000
0000
0000
0000
0000
0000
0000
0000
0000
fff0
fff0
ENDCHAR
STARTCHAR U0333
ENCODING 819
SWIDTH 500 0
DWIDTH 12 0
BBX 12 22 0 -5
BITMAP
0000
0000
0000
0000
0000
0000
0000
0000
0000
0000
0000
0000
0000
0000
0000
0000
0000
fff0
fff0
0000
fff0
fff0
ENDCHAR
STARTCHAR U0334
ENCODING 820
SWIDTH 500 0
DWIDTH 12 0
BBX 12 22 0 -5
BITMAP
0000
0000
0000
0000
0000
0000
0000
0000
0000
1c20
3e60
36c0
67c0
4380
0000
0000
0000
0000
0000
0000
0000
0000
ENDCHAR
STARTCHAR U0335
ENCODING 821
SWIDTH 500 0
DWIDTH 12 0
BBX 12 22 0 -5
BITMAP
0000
0000
0000
0000
0000
0000
0000
0000
0000
0000
1f80
1f80
0000
0000
0000
0000
0000
0000
0000
0000
0000
0000
ENDCHAR
STARTCHAR U0336
ENCODING 822
SWIDTH 500 0
DWIDTH 12 0
BBX 12 22 0 -5
BITMAP
0000
0000
0000
0000
0000
0000
0000
0000
0000
0000
7fe0
7fe0
0000
0000
0000
0000
0000
0000
0000
0000
0000
0000
ENDCHAR
STARTCHAR U0337
ENCODING 823
SWIDTH 500 0
DWIDTH 12 0
BBX 12 22 0 -5
BITMAP
0000
0000
0000
0000
0000
0000
0000
0000
0180
0180
0600
0600
1800
1800
0000
0000
0000
0000
0000
0000
0000
0000
ENDCHAR
STARTCHAR U0338
ENCODING 824
SWIDTH 500 0
DWIDTH 12 0
BBX 12 22 0 -5
BITMAP
0000
0000
0000
0000
0000
0000
0060
0060
0180
0180
0600
0600
1800
1800
6000
6000
0000
0000
0000
0000
0000
0000
ENDCHAR
STARTCHAR U0339
ENCODING 825
SWIDTH 500 0
DWIDTH 12 0
BBX 12 22 0 -5
BITMAP
0000
0000
0000
0000
0000
0000
0000
0000
0000
0000
0000
0000
0000
0000
0000
0000
0000
0000
0600
0100
0100
0600
ENDCHAR
STARTCHAR U033a
ENCODING 826
SWIDTH 500 0
DWIDTH 12 0
BBX 12 22 0 -5
BITMAP
0000
0000
0000
0000
0000
0000
0000
0000
0000
0000
0000
0000
0000
0000
0000
0000
0000
0000
0000
8020
8020
ffe0
ENDCHAR
STARTCHAR U033b
ENCODING 827
SWIDTH 500 0
DWIDTH 12 0
BBX 12 22 0 -5
BITMAP
0000
0000
0000
0000
0000
0000
0000
0000
0000
0000
0000
0000
0000
0000
0000
0000
0000
0000
0000
ffe0
8020
ffe0
ENDCHAR
STARTCHAR U033c
ENCODING 828
SWIDTH 500 0
DWIDTH 12 0
BBX 12 22 0 -5
BITMAP
0000
0000
0000
0000
0000
0000
0000
0000
0000
0000
0000
0000
0000
0000
0000
0000
0000
0000
71c0
8a20
0400
0400
ENDCHAR
STARTCHAR U033d
ENCODING 829
SWIDTH 500 0
DWIDTH 12 0
BBX 12 22 0 -5
BITMAP
1980
0f00
0600
0f00
1980
0000
0000
0000
0000
0000
0000
0000
0000
0000
0000
0000
0000
0000
0000
0000
0000
0000
ENDCHAR
STARTCHAR U033e
ENCODING 830
SWIDTH 500 0
DWIDTH 12 0
BBX 12 22 0 -5
BITMAP
0300
0600
0300
0600
0000
0000
0000
0000
0000
0000
0000
0000
0000
0000
0000
0000
0000
0000
0000
0000
0000
0000
ENDCHAR
STARTCHAR U033f
ENCODING 831
SWIDTH 500 0
DWIDTH 12 0
BBX 12 22 0 -5
BITMAP
fff0
0000
fff0
0000
0000
0000
0000
0000
0000
0000
0000
0000
0000
0000
0000
0000
0000
0000
0000
0000
0000
0000
ENDCHAR
STARTCHAR U0340
ENCODING 832
SWIDTH 500 0
DWIDTH 12 0
BBX 12 22 0 -5
BITMAP
0c00
0600
0300
0000
0000
0000
0000
0000
0000
0000
0000
0000
0000
0000
0000
0000
0000
0000
0000
0000
0000
0000
ENDCHAR
STARTCHAR U0341
ENCODING 833
SWIDTH 500 0
DWIDTH 12 0
BBX 12 22 0 -5
BITMAP
0300
0600
0c00
0000
0000
0000
0000
0000
0000
0000
0000
0000
0000
0000
0000
0000
0000
0000
0000
0000
0000
0000
ENDCHAR
STARTCHAR U0342
ENCODING 834
SWIDTH 500 0
DWIDTH 12 0
BBX 12 22 0 -5
BITMAP
1c40
2380
0000
0000
0000
0000
0000
0000
0000
0000
0000
0000
0000
0000
0000
0000
0000
0000
0000
0000
0000
0000
ENDCHAR
STARTCHAR U0343
ENCODING 835
SWIDTH 500 0
DWIDTH 12 0
BBX 12 22 0 -5
BITMAP
0e00
0100
0100
0600
0000
0000
0000
0000
0000
0000
0000
0000
0000
0000
0000
0000
0000
0000
0000
0000
0000
0000
ENDCHAR
STARTCHAR U0344
ENCODING 836
SWIDTH 500 0
DWIDTH 12 0
BBX 12 22 0 -5
BITMAP
0380
0f00
dc60
c060
0000
0000
0000
0000
0000
0000
0000
0000
0000
0000
0000
0000
0000
0000
0000
0000
0000
0000
ENDCHAR
STARTCHAR U0345
ENCODING 837
SWIDTH 500 0
DWIDTH 12 0
BBX 12 22 0 -5
BITMAP
0000
0000
0000
0000
0000
0000
0000
0000
0000
0000
0000
0000
0000
0000
0000
0000
0000
0000
0600
0600
0700
0000
ENDCHAR
STARTCHAR U0346
ENCODING 838
SWIDTH 500 0
DWIDTH 12 0
BBX 12 22 0 -5
BITMAP
7fe0
4020
4020
0000
0000
0000
0000
0000
0000
0000
0000
0000
0000
0000
0000
0000
0000
0000
0000
0000
0000
0000
ENDCHAR
STARTCHAR U0347
ENCODING 839
SWIDTH 500 0
DWIDTH 12 0
BBX 12 22 0 -5
BITMAP
0000
0000
0000
0000
0000
0000
0000
0000
0000
0000
0000
0000
0000
0000
0000
0000
0000
0000
3fc0
0000
3fc0
0000
ENDCHAR
STARTCHAR U0348
ENCODING 840
SWIDTH 500 0
DWIDTH 12 0
BBX 12 22 0 -5
BITMAP
0000
0000
0000
0000
0000
0000
0000
0000
0000
0000
0000
0000
0000
0000
0000
0000
0000
0000
1980
1980
1980
1980
ENDCHAR
STARTCHAR U0349
ENCODING 841
SWIDTH 500 0
DWIDTH 12 0
BBX 12 22 0 -5
BITMAP
0000
0000
0000
0000
0000
0000
0000
0000
0000
0000
0000
0000
0000
0000
0000
0000
0000
0000
0f00
0100
0100
0100
ENDCHAR
STARTCHAR U034a
ENCODING 842
SWIDTH 500 0
DWIDTH 12 0
BBX 12 22 0 -5
BITMAP
1d20
3660
66c0
4b80
0000
0000
0000
0000
0000
0000
0000
0000
0000
0000
0000
0000
0000
0000
0000
0000
0000
0000
ENDCHAR
STARTCHAR U034b
ENCODING 843
SWIDTH 500 0
DWIDTH 12 0
BBX 12 22 0 -5
BITMAP
0600
0020
3e60
6780
4000
0600
0000
0000
0000
0000
0000
0000
0000
0000
0000
0000
0000
0000
0000
0000
0000
0000
ENDCHAR
STARTCHAR U034c
ENCODING 844
SWIDTH 500 0
DWIDTH 12 0
BBX 12 22 0 -5
BITMAP
1e60
6780
0000
1e60
6780
0000
0000
0000
0000
0000
0000
0000
0000
0000
0000
0000
0000
0000
0000
0000
0000
0000
ENDCHAR
STARTCHAR U034d
ENCODING 845
SWIDTH 500 0
DWIDTH 12 0
BBX 12 22 0 -5
BITMAP
0000
0000
0000
0000
0000
0000
0000
0000
0000
0000
0000
0000
0000
0000
0000
0000
0000
2040
6060
fff0
6060
2040
ENDCHAR
STARTCHAR U034e
ENCODING 846
SWIDTH 500 0
DWIDTH 12 0
BBX 12 22 0 -5
BITMAP
0000
0000
0000
0000
0000
0000
0000
0000
0000
0000
0000
0000
0000
0000
0000
0000
0000
0600
0f00
1f80
0600
0600
ENDCHAR
STARTCHAR U034f
ENCODING 847
SWIDTH 500 0
DWIDTH 12 0
BBX 12 22 0 -5
BITMAP
0000
0000
0000
0000
0000
0000
0000
0000
0000
0000
0000
0000
0000
0000
0000
0000
0000
0000
0000
0000
0000
0000
ENDCHAR
STARTCHAR U0350
ENCODING 848
SWIDTH 500 0
DWIDTH 12 0
BBX 12 22 0 -5
BITMAP
1c00
0700
01c0
0700
1c00
0000
0000
0000
0000
0000
0000
0000
0000
0000
0000
0000
0000
0000
0000
0000
0000
0000
ENDCHAR
STARTCHAR U0351
ENCODING 849
SWIDTH 500 0
DWIDTH 12 0
BBX 12 22 0 -5
BITMAP
0600
0800
0800
0600
0000
0000
0000
0000
0000
0000
0000
0000
0000
0000
0000
0000
0000
0000
0000
0000
0000
0000
ENDCHAR
STARTCHAR U0352
ENCODING 850
SWIDTH 500 0
DWIDTH 12 0
BBX 12 22 0 -5
BITMAP
1f80
6060
4620
0000
0000
0000
0000
0000
0000
0000
0000
0000
0000
0000
0000
0000
0000
0000
0000
0000
0000
0000
ENDCHAR
STARTCHAR U0353
ENCODING 851
SWIDTH 500 0
DWIDTH 12 0
BBX 12 22 0 -5
BITMAP
0000
0000
0000
0000
0000
0000
0000
0000
0000
0000
0000
0000
0000
0000
0000
0000
0000
6060
1980
0600
1980
6060
ENDCHAR
STARTCHAR U0354
ENCODING 852
SWIDTH 500 0
DWIDTH 12 0
BBX 12 22 0 -5
BITMAP
0000
0000
0000
0000
0000
0000
0000
0000
0000
0000
0000
0000
0000
0000
0000
0000
0000
0380
0e00
3800
0e00
0380
ENDCHAR
STARTCHAR U0355
ENCODING 853
SWIDTH 500 0
DWIDTH 12 0
BBX 12 22 0 -5
BITMAP
0000
0000
0000
0000
0000
0000
0000
0000
0000
0000
0000
0000
0000
0000
0000
0000
0000
1c00
0700
01c0
0700
1c00
ENDCHAR
STARTCHAR U0356
ENCODING 854
SWIDTH 500 0
DWIDTH 12 0
BBX 12 22 0 -5
BITMAP
0000
0000
0000
0000
0000
0000
0000
0000
0000
0000
0000
0000
0000
0000
0000
0000
0000
c0c0
31e0
0de0
3330
c330
ENDCHAR
STARTCHAR U0357
ENCODING 855
SWIDTH 500 0
DWIDTH 12 0
BBX 12 22 0 -5
BITMAP
0c00
0200
0200
0c00
0000
0000
0000
0000
0000
0000
0000
0000
0000
0000
0000
0000
0000
0000
0000
0000
0000
0000
ENDCHAR
STARTCHAR U0358
ENCODING 856
SWIDTH 500 0
DWIDTH 12 0
BBX 12 22 0 -5
BITMAP
0070
0070
0070
0000
0000
0000
0000
0000
0000
0000
0000
0000
0000
0000
0000
0000
0000
0000
0000
0000
0000
0000
ENDCHAR
STARTCHAR U0359
ENCODING 857
SWIDTH 500 0
DWIDTH 12 0
BBX 12 22 0 -5
BITMAP
0000
0000
0000
0000
0000
0000
0000
0000
0000
0000
0000
0000
0000
0000
0000
0000
0000
0900
0600
1f80
0600
0900
ENDCHAR
STARTCHAR U035a
ENCODING 858
SWIDTH 500 0
DWIDTH 12 0
BBX 12 22 0 -5
BITMAP
0000
0000
0000
0000
0000
0000
0000
0000
0000
0000
0000
0000
0000
0000
0000
0000
0000
71c0
8a20
8420
8a20
71c0
ENDCHAR
STARTCHAR U035b
ENCODING 859
SWIDTH 500 0
DWIDTH 12 0
BBX 12 22 0 -5
BITMAP
1800
3fe0
7fc0
0180
0000
0000
0000
0000
0000
0000
0000
0000
0000
0000
0000
0000
0000
0000
0000
0000
0000
0000
ENDCHAR
STARTCHAR U035c
ENCODING 860
SWIDTH 500 0
DWIDTH 12 0
BBX 12 22 0 -5
BITMAP
0000
0000
0000
0000
0000
0000
0000
0000
0000
0000
0000
0000
0000
0000
0000
0000
0000
2010
2010
1020
0840
0780
ENDCHAR
STARTCHAR U035d
ENCODING 861
SWIDTH 500 0
DWIDTH 12 0
BBX 12 22 0 -5
BITMAP
2010
2010
1020
0840
0780
0000
0000
0000
0000
0000
0000
0000
0000
0000
0000
0000
0000
0000
0000
0000
0000
0000
ENDCHAR
STARTCHAR U035e
ENCODING 862
SWIDTH 500 0
DWIDTH 12 0
BBX 12 22 0 -5
BITMAP
1ff0
1ff0
0000
0000
0000
0000
0000
0000
0000
0000
0000
0000
0000
0000
0000
0000
0000
0000
0000
0000
0000
0000
ENDCHAR
STARTCHAR U035f
ENCODING 863
SWIDTH 500 0
DWIDTH 12 0
BBX 12 22 0 -5
BITMAP
0000
0000
0000
0000
0000
0000
0000
0000
0000
0000
0000
0000
0000
0000
0000
0000
0000
0000
0000
0000
1ff0
1ff0
ENDCHAR
STARTCHAR U0360
ENCODING 864
SWIDTH 500 0
DWIDTH 12 0
BBX 12 22 0 -5
BITMAP
1e10
3330
21e0
0000
0000
0000
0000
0000
0000
0000
0000
0000
0000
0000
0000
0000
0000
0000
0000
0000
0000
0000
ENDCHAR
STARTCHAR U0361
ENCODING 865
SWIDTH 500 0
DWIDTH 12 0
BBX 12 22 0 -5
BITMAP
0780
0840
1020
2010
2010
0000
0000
0000
0000
0000
0000
0000
0000
0000
0000
0000
0000
0000
0000
0000
0000
0000
ENDCHAR
STARTCHAR U0362
ENCODING 866
SWIDTH 500 0
DWIDTH 12 0
BBX 12 22 0 -5
BITMAP
0000
0000
0000
0000
0000
0000
0000
0000
0000
0000
0000
0000
0000
0000
0000
0000
0000
0040
0060
3ff0
0060
0040
ENDCHAR
STARTCHAR U0363
ENCODING 867
SWIDTH 500 0
DWIDTH 12 0
BBX 12 22 0 -5
BITMAP
0f00
0080
0f80
1080
0f80
0000
0000
0000
0000
0000
0000
0000
0000
0000
0000
0000
0000
0000
0000
0000
0000
0000
ENDCHAR
STARTCHAR U0364
ENCODING 868
SWIDTH 500 0
DWIDTH 12 0
BBX 12 22 0 -5
BITMAP
0f00
1080
1f00
1000
0f00
0000
0000
0000
0000
0000
0000
0000
0000
0000
0000
0000
0000
0000
0000
0000
0000
0000
ENDCHAR
STARTCHAR U0365
ENCODING 869
SWIDTH 500 0
DWIDTH 12 0
BBX 12 22 0 -5
BITMAP
0200
0000
0200
0200
0200
0000
0000
0000
0000
0000
0000
0000
0000
0000
0000
0000
0000
0000
0000
0000
0000
0000
ENDCHAR
STARTCHAR U0366
ENCODING 870
SWIDTH 500 0
DWIDTH 12 0
BBX 12 22 0 -5
BITMAP
0f00
1080
1080
1080
0f00
0000
0000
0000
0000
0000
0000
0000
0000
0000
0000
0000
0000
0000
0000
0000
0000
0000
ENDCHAR
STARTCHAR U0367
ENCODING 871
SWIDTH 500 0
DWIDTH 12 0
BBX 12 22 0 -5
BITMAP
1080
1080
1080
1080
0f00
0000
0000
0000
0000
0000
0000
0000
0000
0000
0000
0000
0000
0000
0000
0000
0000
0000
ENDCHAR
STARTCHAR U0368
ENCODING 872
SWIDTH 500 0
DWIDTH 12 0
BBX 12 22 0 -5
BITMAP
0f00
1000
1000
1000
0f00
0000
0000
0000
0000
0000
0000
0000
0000
0000
0000
0000
0000
0000
0000
0000
0000
0000
ENDCHAR
STARTCHAR U0369
ENCODING 873
SWIDTH 500 0
DWIDTH 12 0
BBX 12 22 0 -5
BITMAP
0080
0080
0780
0880
0780
0000
0000
0000
0000
0000
0000
0000
0000
0000
0000
0000
0000
0000
0000
0000
0000
0000
ENDCHAR
STARTCHAR U036a
ENCODING 874
SWIDTH 500 0
DWIDTH 12 0
BBX 12 22 0 -5
BITMAP
0800
0800
0f00
0880
0880
0000
0000
0000
0000
0000
0000
0000
0000
0000
0000
0000
0000
0000
0000
0000
0000
0000
ENDCHAR
STARTCHAR U036b
ENCODING 875
SWIDTH 500 0
DWIDTH 12 0
BBX 12 22 0 -5
BITMAP
5dc0
6640
4440
4440
4440
0000
0000
0000
0000
0000
0000
0000
0000
0000
0000
0000
0000
0000
0000
0000
0000
0000
ENDCHAR
STARTCHAR U036c
ENCODING 876
SWIDTH 500 0
DWIDTH 12 0
BBX 12 22 0 -5
BITMAP
0b80
0c00
0800
0800
0800
0000
0000
0000
0000
0000
0000
0000
0000
0000
0000
0000
0000
0000
0000
0000
0000
0000
ENDCHAR
STARTCHAR U036d
ENCODING 877
SWIDTH 500 0
DWIDTH 12 0
BBX 12 22 0 -5
BITMAP
0400
1f00
0400
0400
0700
0000
0000
0000
0000
0000
0000
0000
0000
0000
0000
0000
0000
0000
0000
0000
0000
0000
ENDCHAR
STARTCHAR U036e
ENCODING 878
SWIDTH 500 0
DWIDTH 12 0
BBX 12 22 0 -5
BITMAP
1080
1080
0900
0900
0600
0000
0000
0000
0000
0000
0000
0000
0000
0000
0000
0000
0000
0000
0000
0000
0000
0000
ENDCHAR
STARTCHAR U036f
ENCODING 879
SWIDTH 500 0
DWIDTH 12 0
BBX 12 22 0 -5
BITMAP
1100
0a00
0400
0a00
1100
0000
0000
0000
0000
0000
0000
0000
0000
0000
0000
0000
0000
0000
0000
0000
0000
0000
ENDCHAR
STARTCHAR U0370
ENCODING 880
SWIDTH 500 0
DWIDTH 12 0
BBX 12 22 0 -5
BITMAP
0000
0000
0000
7800
3000
3000
3000
3000
3000
3fc0
3000
3000
3000
3000
3000
3000
7800
0000
0000
0000
0000
0000
ENDCHAR
STARTCHAR U0371
ENCODING 881
SWIDTH 500 0
DWIDTH 12 0
BBX 12 22 0 -5
BITMAP
0000
0000
0000
0000
0000
0000
0000
7800
3000
3000
3000
3fc0
3000
3000
3000
3000
7800
0000
0000
0000
0000
0000
ENDCHAR
STARTCHAR U0372
ENCODING 882
SWIDTH 500 0
DWIDTH 12 0
BBX 12 22 0 -5
BITMAP
0000
0000
0000
fff0
c630
c630
c630
0600
0600
0600
0600
0600
0600
0600
0600
0600
1f80
0000
0000
0000
0000
0000
ENDCHAR
STARTCHAR U0373
ENCODING 883
SWIDTH 500 0
DWIDTH 12 0
BBX 12 22 0 -5
BITMAP
0000
0000
0000
0000
0000
3fe0
4620
4620
0600
0600
0600
0600
0600
0600
0600
0600
0600
0000
0000
0000
0000
0000
ENDCHAR
STARTCHAR U0374
ENCODING 884
SWIDTH 500 0
DWIDTH 12 0
BBX 12 22 0 -5
BITMAP
0000
0000
0000
0700
0e00
0c00
0800
0000
0000
0000
0000
0000
0000
0000
0000
0000
0000
0000
0000
0000
0000
0000
ENDCHAR
STARTCHAR U0375
ENCODING 885
SWIDTH 500 0
DWIDTH 12 0
BBX 12 22 0 -5
BITMAP
0000
0000
0000
0000
0000
0000
0000
0000
0000
0000
0000
0000
0000
0100
0300
0700
0e00
0000
0000
0000
0000
0000
ENDCHAR
STARTCHAR U0376
ENCODING 886
SWIDTH 500 0
DWIDTH 12 0
BBX 12 22 0 -5
BITMAP
0000
0000
0000
f0f0
6060
60e0
6160
6160
6260
6260
6460
6460
6860
6860
7060
6060
f0f0
0000
0000
0000
0000
0000
ENDCHAR
STARTCHAR U0377
ENCODING 887
SWIDTH 500 0
DWIDTH 12 0
BBX 12 22 0 -5
BITMAP
0000
0000
0000
0000
0000
0000
0000
f0f0
6060
60e0
6160
6260
6460
6860
7060
6060
f0f0
0000
0000
0000
0000
0000
ENDCHAR
STARTCHAR U037a
ENCODING 890
SWIDTH 500 0
DWIDTH 12 0
BBX 12 22 0 -5
BITMAP
0000
0000
0000
0000
0000
0000
0000
0000
0000
0000
0000
0000
0000
0000
0000
0000
0000
0000
0600
0600
0700
0000
ENDCHAR
STARTCHAR U037b
ENCODING 891
SWIDTH 500 0
DWIDTH 12 0
BBX 12 22 0 -5
BITMAP
0000
0000
0000
0000
0000
0000
0000
0f80
11c0
20e0
0060
0060
0060
0060
0040
3880
1f00
0000
0000
0000
0000
0000
ENDCHAR
STARTCHAR U037c
ENCODING 892
SWIDTH 500 0
DWIDTH 12 0
BBX 12 22 0 -5
BITMAP
0000
0000
0000
0000
0000
0000
0000
1f00
3880
7040
6000
6700
6700
6000
2000
11c0
0f80
0000
0000
0000
0000
0000
ENDCHAR
STARTCHAR U037d
ENCODING 893
SWIDTH 500 0
DWIDTH 12 0
BBX 12 22 0 -5
BITMAP
0000
0000
0000
0000
0000
0000
0000
0f80
11c0
20e0
0060
0e60
0e60
0060
0040
3880
1f00
0000
0000
0000
0000
0000
ENDCHAR
STARTCHAR U037e
ENCODING 894
SWIDTH 500 0
DWIDTH 12 0
BBX 12 22 0 -5
BITMAP
0000
0000
0000
0000
0000
0000
0000
0000
0c00
1e00
1e00
0c00
0000
0000
0c00
1e00
1e00
0600
0600
0c00
1800
1000
ENDCHAR
STARTCHAR U037f
ENCODING 895
SWIDTH 500 0
DWIDTH 12 0
BBX 12 22 0 -5
BITMAP
0000
0000
0000
1f80
0600
0600
0600
0600
0600
0600
0600
0600
0600
0600
0600
0600
0600
0600
0600
0400
3800
3000
ENDCHAR
STARTCHAR U0384
ENCODING 900
SWIDTH 500 0
DWIDTH 12 0
BBX 12 22 0 -5
BITMAP
0380
0f00
1c00
0000
0000
0000
0000
0000
0000
0000
0000
0000
0000
0000
0000
0000
0000
0000
0000
0000
0000
0000
ENDCHAR
STARTCHAR U0385
ENCODING 901
SWIDTH 500 0
DWIDTH 12 0
BBX 12 22 0 -5
BITMAP
0380
0f00
dc60
c060
0000
0000
0000
0000
0000
0000
0000
0000
0000
0000
0000
0000
0000
0000
0000
0000
0000
0000
ENDCHAR
STARTCHAR U0386
ENCODING 902
SWIDTH 500 0
DWIDTH 12 0
BBX 12 22 0 -5
BITMAP
0000
0000
0000
4600
c600
cb00
8b00
0900
1180
1180
1080
3fc0
20c0
2040
4060
4060
e0f0
0000
0000
0000
0000
0000
ENDCHAR
STARTCHAR U0387
ENCODING 903
SWIDTH 500 0
DWIDTH 12 0
BBX 12 22 0 -5
BITMAP
0000
0000
0000
0000
0000
0000
0000
0000
0600
0f00
0f00
0600
0000
0000
0000
0000
0000
0000
0000
0000
0000
0000
ENDCHAR
STARTCHAR U0388
ENCODING 904
SWIDTH 500 0
DWIDTH 12 0
BBX 12 22 0 -5
BITMAP
0000
0000
0000
5fe0
d820
d820
9800
1800
1840
1fc0
1840
1800
1800
1800
1810
1810
3ff0
0000
0000
0000
0000
0000
ENDCHAR
STARTCHAR U0389
ENCODING 905
SWIDTH 500 0
DWIDTH 12 0
BBX 12 22 0 -5
BITMAP
0000
0000
0000
f8f0
b060
b060
b060
3060
3060
3fe0
3060
3060
3060
3060
3060
3060
78f0
0000
0000
0000
0000
0000
ENDCHAR
STARTCHAR U038a
ENCODING 906
SWIDTH 500 0
DWIDTH 12 0
BBX 12 22 0 -5
BITMAP
0000
0000
0000
4fc0
c300
c300
8300
0300
0300
0300
0300
0300
0300
0300
0300
0300
0fc0
0000
0000
0000
0000
0000
ENDCHAR
STARTCHAR U038c
ENCODING 908
SWIDTH 500 0
DWIDTH 12 0
BBX 12 22 0 -5
BITMAP
0000
0000
0000
4780
c8e0
d060
9030
3030
3030
3030
3030
3030
3030
1020
1820
0c40
0780
0000
0000
0000
0000
0000
ENDCHAR
STARTCHAR U038e
ENCODING 910
SWIDTH 500 0
DWIDTH 12 0
BBX 12 22 0 -5
BITMAP
0000
0000
0000
7c70
d820
d820
8c40
0c40
0680
0300
0300
0300
0300
0300
0300
0300
0780
0000
0000
0000
0000
0000
ENDCHAR
STARTCHAR U038f
ENCODING 911
SWIDTH 500 0
DWIDTH 12 0
BBX 12 22 0 -5
BITMAP
0000
0000
0000
4780
c8e0
d060
9030
3030
3030
3030
3030
1020
1820
0c40
0480
2490
3cf0
0000
0000
0000
0000
0000
ENDCHAR
STARTCHAR U0390
ENCODING 912
SWIDTH 500 0
DWIDTH 12 0
BBX 12 22 0 -5
BITMAP
0000
0000
0380
0f00
dc60
c060
0000
1e00
0600
0600
0600
0600
0600
0600
0600
0600
1f80
0000
0000
0000
0000
0000
ENDCHAR
STARTCHAR U0391
ENCODING 913
SWIDTH 500 0
DWIDTH 12 0
BBX 12 22 0 -5
BITMAP
0000
0000
0000
0600
0600
0b00
0b00
0900
1180
1180
1080
3fc0
20c0
2040
4060
4060
e0f0
0000
0000
0000
0000
0000
ENDCHAR
STARTCHAR U0392
ENCODING 914
SWIDTH 500 0
DWIDTH 12 0
BBX 12 22 0 -5
BITMAP
0000
0000
0000
ff00
6080
60c0
60c0
60c0
6180
7f80
60c0
6060
6060
6060
6060
60c0
ff80
0000
0000
0000
0000
0000
ENDCHAR
STARTCHAR U0393
ENCODING 915
SWIDTH 500 0
DWIDTH 12 0
BBX 12 22 0 -5
BITMAP
0000
0000
0000
7fc0
3040
3040
3000
3000
3000
3000
3000
3000
3000
3000
3000
3000
7800
0000
0000
0000
0000
0000
ENDCHAR
STARTCHAR U0394
ENCODING 916
SWIDTH 500 0
DWIDTH 12 0
BBX 12 22 0 -5
BITMAP
0000
0000
0000
0600
0e00
0b00
0b00
1180
1180
1180
20c0
20c0
20c0
4060
4060
4060
7fe0
0000
0000
0000
0000
0000
ENDCHAR
STARTCHAR U0395
ENCODING 917
SWIDTH 500 0
DWIDTH 12 0
BBX 12 22 0 -5
BITMAP
0000
0000
0000
7fc0
3040
3040
3000
3000
3080
3f80
3080
3000
3000
3000
3020
3020
7fe0
0000
0000
0000
0000
0000
ENDCHAR
STARTCHAR U0396
ENCODING 918
SWIDTH 500 0
DWIDTH 12 0
BBX 12 22 0 -5
BITMAP
0000
0000
0000
3fe0
20c0
00c0
0180
0180
0300
0300
0600
0600
0c00
0c00
1800
1820
3fe0
0000
0000
0000
0000
0000
ENDCHAR
STARTCHAR U0397
ENCODING 919
SWIDTH 500 0
DWIDTH 12 0
BBX 12 22 0 -5
BITMAP
0000
0000
0000
f0f0
6060
6060
6060
6060
6060
7fe0
6060
6060
6060
6060
6060
6060
f0f0
0000
0000
0000
0000
0000
ENDCHAR
STARTCHAR U0398
ENCODING 920
SWIDTH 500 0
DWIDTH 12 0
BBX 12 22 0 -5
BITMAP
0000
0000
0000
0f80
11c0
20e0
6060
6060
6060
6f60
6060
6060
6060
6060
7040
3880
1f00
0000
0000
0000
0000
0000
ENDCHAR
STARTCHAR U0399
ENCODING 921
SWIDTH 500 0
DWIDTH 12 0
BBX 12 22 0 -5
BITMAP
0000
0000
0000
1f80
0600
0600
0600
0600
0600
0600
0600
0600
0600
0600
0600
0600
1f80
0000
0000
0000
0000
0000
ENDCHAR
STARTCHAR U039a
ENCODING 922
SWIDTH 500 0
DWIDTH 12 0
BBX 12 22 0 -5
BITMAP
0000
0000
0000
f0e0
6180
6300
6600
6c00
7800
7800
7c00
6e00
6700
6380
61c0
60e0
f070
0000
0000
0000
0000
0000
ENDCHAR
STARTCHAR U039b
ENCODING 923
SWIDTH 500 0
DWIDTH 12 0
BBX 12 22 0 -5
BITMAP
0000
0000
0000
0600
0600
0b00
0b00
0b00
1180
1180
1180
20c0
20c0
20c0
4060
4060
e0f0
0000
0000
0000
0000
0000
ENDCHAR
STARTCHAR U039c
ENCODING 924
SWIDTH 500 0
DWIDTH 12 0
BBX 12 22 0 -5
BITMAP
0000
0000
0000
e070
60e0
70e0
70e0
70e0
5960
5960
5960
4d60
4e60
4e60
4460
4460
e4f0
0000
0000
0000
0000
0000
ENDCHAR
STARTCHAR U039d
ENCODING 925
SWIDTH 500 0
DWIDTH 12 0
BBX 12 22 0 -5
BITMAP
0000
0000
0000
c070
6020
7020
7820
5820
4c20
4620
4720
4320
41a0
40e0
40e0
4060
e030
0000
0000
0000
0000
0000
ENDCHAR
STARTCHAR U039e
ENCODING 926
SWIDTH 500 0
DWIDTH 12 0
BBX 12 22 0 -5
BITMAP
0000
0000
0000
7fe0
4020
0000
0000
0000
0000
3fc0
3fc0
0000
0000
0000
0000
4020
7fe0
0000
0000
0000
0000
0000
ENDCHAR
STARTCHAR U039f
ENCODING 927
SWIDTH 500 0
DWIDTH 12 0
BBX 12 22 0 -5
BITMAP
0000
0000
0000
0f00
11c0
20c0
2060
6060
6060
6060
6060
6060
6060
2040
3040
1880
0f00
0000
0000
0000
0000
0000
ENDCHAR
STARTCHAR U03a0
ENCODING 928
SWIDTH 500 0
DWIDTH 12 0
BBX 12 22 0 -5
BITMAP
0000
0000
0000
ffe0
6060
6060
6060
6060
6060
6060
6060
6060
6060
6060
6060
6060
6060
0000
0000
0000
0000
0000
ENDCHAR
STARTCHAR U03a1
ENCODING 929
SWIDTH 500 0
DWIDTH 12 0
BBX 12 22 0 -5
BITMAP
0000
0000
0000
7f80
30c0
3060
3060
3060
30c0
3780
3000
3000
3000
3000
3000
3000
7800
0000
0000
0000
0000
0000
ENDCHAR
STARTCHAR U03a3
ENCODING 931
SWIDTH 500 0
DWIDTH 12 0
BBX 12 22 0 -5
BITMAP
0000
0000
0000
7fe0
6020
3020
1800
1800
0c00
0700
0700
0400
0800
1000
2020
4020
7fe0
0000
0000
0000
0000
0000
ENDCHAR
STARTCHAR U03a4
ENCODING 932
SWIDTH 500 0
DWIDTH 12 0
BBX 12 22 0 -5
BITMAP
0000
0000
0000
7fe0
4620
0600
0600
0600
0600
0600
0600
0600
0600
0600
0600
0600
1f80
0000
0000
0000
0000
0000
ENDCHAR
STARTCHAR U03a5
ENCODING 933
SWIDTH 500 0
DWIDTH 12 0
BBX 12 22 0 -5
BITMAP
0000
0000
0000
f070
6020
3040
1880
1880
0d00
0600
0600
0600
0600
0600
0600
0600
0f00
0000
0000
0000
0000
0000
ENDCHAR
STARTCHAR U03a6
ENCODING 934
SWIDTH 500 0
DWIDTH 12 0
BBX 12 22 0 -5
BITMAP
0000
0000
0600
0600
0600
0f80
17c0
26e0
6660
6660
6660
6660
6660
6660
7640
3e80
1f00
0600
0600
0600
0000
0000
ENDCHAR
STARTCHAR U03a7
ENCODING 935
SWIDTH 500 0
DWIDTH 12 0
BBX 12 22 0 -5
BITMAP
0000
0000
0000
f070
6020
3040
3880
1880
0d00
0600
0600
0b00
1180
11c0
20c0
4060
e0f0
0000
0000
0000
0000
0000
ENDCHAR
STARTCHAR U03a8
ENCODING 936
SWIDTH 500 0
DWIDTH 12 0
BBX 12 22 0 -5
BITMAP
0000
0000
0000
ef70
6660
6660
6660
6660
7640
3f80
0f00
0600
0600
0600
0600
0600
0f00
0000
0000
0000
0000
0000
ENDCHAR
STARTCHAR U03a9
ENCODING 937
SWIDTH 500 0
DWIDTH 12 0
BBX 12 22 0 -5
BITMAP
0000
0000
0000
0f00
11c0
20c0
2060
6060
6060
6060
6060
2040
3040
1880
0900
4920
79e0
0000
0000
0000
0000
0000
ENDCHAR
STARTCHAR U03aa
ENCODING 938
SWIDTH 500 0
DWIDTH 12 0
BBX 12 22 0 -5
BITMAP
30c0
30c0
0000
1f80
0600
0600
0600
0600
0600
0600
0600
0600
0600
0600
0600
0600
1f80
0000
0000
0000
0000
0000
ENDCHAR
STARTCHAR U03ab
ENCODING 939
SWIDTH 500 0
DWIDTH 12 0
BBX 12 22 0 -5
BITMAP
30c0
30c0
0000
f070
6020
3040
1880
1880
0d00
0600
0600
0600
0600
0600
0600
0600
0f00
0000
0000
0000
0000
0000
ENDCHAR
STARTCHAR U03ac
ENCODING 940
SWIDTH 500 0
DWIDTH 12 0
BBX 12 22 0 -5
BITMAP
0000
0000
0200
0600
0600
0400
0000
1f90
31d0
60e0
60e0
60c0
60c0
60c0
61e0
7260
3c30
0000
0000
0000
0000
0000
ENDCHAR
STARTCHAR U03ad
ENCODING 941
SWIDTH 500 0
DWIDTH 12 0
BBX 12 22 0 -5
BITMAP
0000
0000
0200
0600
0600
0400
0000
0f80
1fc0
2060
6000
3f00
3f00
6000
6020
3fc0
1f00
0000
0000
0000
0000
0000
ENDCHAR
STARTCHAR U03ae
ENCODING 942
SWIDTH 500 0
DWIDTH 12 0
BBX 12 22 0 -5
BITMAP
0000
0000
0200
0600
0600
0400
0000
2780
79c0
30c0
30c0
30c0
30c0
30c0
30c0
30c0
78c0
00c0
00c0
00c0
00c0
01e0
ENDCHAR
STARTCHAR U03af
ENCODING 943
SWIDTH 500 0
DWIDTH 12 0
BBX 12 22 0 -5
BITMAP
0000
0000
0200
0600
0600
0400
0000
1e00
0600
0600
0600
0600
0600
0600
0600
0600
1f80
0000
0000
0000
0000
0000
ENDCHAR
STARTCHAR U03b0
ENCODING 944
SWIDTH 500 0
DWIDTH 12 0
BBX 12 22 0 -5
BITMAP
0000
0000
0200
6660
6660
0400
0000
79e0
30c0
30c0
30c0
30c0
30c0
30c0
30c0
3880
0f00
0000
0000
0000
0000
0000
ENDCHAR
STARTCHAR U03b1
ENCODING 945
SWIDTH 500 0
DWIDTH 12 0
BBX 12 22 0 -5
BITMAP
0000
0000
0000
0000
0000
0000
0000
1f90
31d0
60e0
60e0
60c0
60c0
60c0
61e0
7260
3c30
0000
0000
0000
0000
0000
ENDCHAR
STARTCHAR U03b2
ENCODING 946
SWIDTH 500 0
DWIDTH 12 0
BBX 12 22 0 -5
BITMAP
0000
0000
0f00
1980
30c0
30c0
30c0
30c0
3100
3e00
3300
31c0
30e0
30e0
3060
3860
3780
3000
3000
3000
3000
7800
ENDCHAR
STARTCHAR U03b3
ENCODING 947
SWIDTH 500 0
DWIDTH 12 0
BBX 12 22 0 -5
BITMAP
0000
0000
0000
0000
0000
0000
0000
70e0
b040
3040
1880
1880
1900
0d00
0e00
0600
0e00
1300
1300
2180
2180
1f00
ENDCHAR
STARTCHAR U03b4
ENCODING 948
SWIDTH 500 0
DWIDTH 12 0
BBX 12 22 0 -5
BITMAP
0000
0000
0000
1f80
3000
1c00
0e00
0700
0f80
11c0
20e0
6060
6060
6060
7040
3880
1f00
0000
0000
0000
0000
0000
ENDCHAR
STARTCHAR U03b5
ENCODING 949
SWIDTH 500 0
DWIDTH 12 0
BBX 12 22 0 -5
BITMAP
0000
0000
0000
0000
0000
0000
0000
0f80
1fc0
2060
6000
3f00
3f00
6000
6020
3fc0
1f00
0000
0000
0000
0000
0000
ENDCHAR
STARTCHAR U03b6
ENCODING 950
SWIDTH 500 0
DWIDTH 12 0
BBX 12 22 0 -5
BITMAP
0000
0000
0000
0000
7fe0
00c0
0300
0c00
1800
3000
7000
6000
6000
6000
7000
3000
1e00
0780
00c0
0060
00c0
0380
ENDCHAR
STARTCHAR U03b7
ENCODING 951
SWIDTH 500 0
DWIDTH 12 0
BBX 12 22 0 -5
BITMAP
0000
0000
0000
0000
0000
0000
0000
2780
79c0
30c0
30c0
30c0
30c0
30c0
30c0
30c0
78c0
00c0
00c0
00c0
00c0
01e0
ENDCHAR
STARTCHAR U03b8
ENCODING 952
SWIDTH 500 0
DWIDTH 12 0
BBX 12 22 0 -5
BITMAP
0000
0000
0000
0000
0f80
11c0
20e0
6060
6060
6060
7fe0
6060
6060
6060
7040
3880
1f00
0000
0000
0000
0000
0000
ENDCHAR
STARTCHAR U03b9
ENCODING 953
SWIDTH 500 0
DWIDTH 12 0
BBX 12 22 0 -5
BITMAP
0000
0000
0000
0000
0000
0000
0000
1e00
0600
0600
0600
0600
0600
0600
0600
0600
1f80
0000
0000
0000
0000
0000
ENDCHAR
STARTCHAR U03ba
ENCODING 954
SWIDTH 500 0
DWIDTH 12 0
BBX 12 22 0 -5
BITMAP
0000
0000
0000
0000
0000
0000
0000
f1c0
6300
6600
7c00
7800
7c00
6e00
6700
6380
f1e0
0000
0000
0000
0000
0000
ENDCHAR
STARTCHAR U03bb
ENCODING 955
SWIDTH 500 0
DWIDTH 12 0
BBX 12 22 0 -5
BITMAP
0000
0000
0000
1c00
1c00
0e00
0600
0600
0b00
0b00
0b00
1180
1180
1180
20c0
20c0
71e0
0000
0000
0000
0000
0000
ENDCHAR
STARTCHAR U03bc
ENCODING 956
SWIDTH 500 0
DWIDTH 12 0
BBX 12 22 0 -5
BITMAP
0000
0000
0000
0000
0000
0000
0000
79e0
30c0
30c0
30c0
30c0
30c0
30c0
30c0
39c0
3e60
3000
3000
3000
3000
7800
ENDCHAR
STARTCHAR U03bd
ENCODING 957
SWIDTH 500 0
DWIDTH 12 0
BBX 12 22 0 -5
BITMAP
0000
0000
0000
0000
0000
0000
0000
f070
6020
3020
3040
1840
1880
0c80
0d00
0600
0600
0000
0000
0000
0000
0000
ENDCHAR
STARTCHAR U03be
ENCODING 958
SWIDTH 500 0
DWIDTH 12 0
BBX 12 22 0 -5
BITMAP
0000
0000
0000
0000
7fe0
1800
3000
6000
3800
0e00
03c0
0600
1800
6000
7000
3800
1e00
0780
00c0
0060
00c0
0380
ENDCHAR
STARTCHAR U03bf
ENCODING 959
SWIDTH 500 0
DWIDTH 12 0
BBX 12 22 0 -5
BITMAP
0000
0000
0000
0000
0000
0000
0000
0f80
11c0
20e0
6060
6060
6060
6060
7040
3880
1f00
0000
0000
0000
0000
0000
ENDCHAR
STARTCHAR U03c0
ENCODING 960
SWIDTH 500 0
DWIDTH 12 0
BBX 12 22 0 -5
BITMAP
0000
0000
0000
0000
0000
0000
0000
fff0
30c0
30c0
30c0
30c0
30c0
30c0
30c0
30e0
7870
0000
0000
0000
0000
0000
ENDCHAR
STARTCHAR U03c1
ENCODING 961
SWIDTH 500 0
DWIDTH 12 0
BBX 12 22 0 -5
BITMAP
0000
0000
0000
0000
0000
0000
0000
0f80
11c0
20e0
6060
6060
6060
6060
7040
7880
6700
6000
6000
6000
6000
6000
ENDCHAR
STARTCHAR U03c2
ENCODING 962
SWIDTH 500 0
DWIDTH 12 0
BBX 12 22 0 -5
BITMAP
0000
0000
0000
0000
0000
0000
0000
0f80
11c0
20e0
6000
6000
6000
6000
7800
3f00
0f80
0180
00c0
0180
0700
0000
ENDCHAR
STARTCHAR U03c3
ENCODING 963
SWIDTH 500 0
DWIDTH 12 0
BBX 12 22 0 -5
BITMAP
0000
0000
0000
0000
0000
0000
0000
0ff0
11c0
2060
6060
6060
6060
6060
7040
3880
1f00
0000
0000
0000
0000
0000
ENDCHAR
STARTCHAR U03c4
ENCODING 964
SWIDTH 500 0
DWIDTH 12 0
BBX 12 22 0 -5
BITMAP
0000
0000
0000
0000
0000
0000
0000
7fe0
0600
0600
0600
0600
0600
0600
0600
0300
01e0
0000
0000
0000
0000
0000
ENDCHAR
STARTCHAR U03c5
ENCODING 965
SWIDTH 500 0
DWIDTH 12 0
BBX 12 22 0 -5
BITMAP
0000
0000
0000
0000
0000
0000
0000
79e0
30c0
30c0
30c0
30c0
30c0
30c0
30c0
3880
0f00
0000
0000
0000
0000
0000
ENDCHAR
STARTCHAR U03c6
ENCODING 966
SWIDTH 500 0
DWIDTH 12 0
BBX 12 22 0 -5
BITMAP
0000
0000
0000
0000
0000
0000
0000
0980
13c0
26e0
6660
6660
6660
6660
7640
3e80
1f00
0600
0600
0600
0600
0600
ENDCHAR
STARTCHAR U03c7
ENCODING 967
SWIDTH 500 0
DWIDTH 12 0
BBX 12 22 0 -5
BITMAP
0000
0000
0000
0000
0000
0000
0000
6020
7020
1840
1c80
0c80
0700
0700
0700
0700
0980
09c0
10c0
2070
2030
0000
ENDCHAR
STARTCHAR U03c8
ENCODING 968
SWIDTH 500 0
DWIDTH 12 0
BBX 12 22 0 -5
BITMAP
0000
0000
0000
0000
0000
0000
0000
e670
6660
6660
6660
6660
6660
6660
6660
7640
3f80
0f00
0600
0600
0600
0f00
ENDCHAR
STARTCHAR U03c9
ENCODING 969
SWIDTH 500 0
DWIDTH 12 0
BBX 12 22 0 -5
BITMAP
0000
0000
0000
0000
0000
0000
0000
6060
c030
c630
c630
c630
c630
c630
6620
7fc0
1980
0000
0000
0000
0000
0000
ENDCHAR
STARTCHAR U03ca
ENCODING 970
SWIDTH 500 0
DWIDTH 12 0
BBX 12 22 0 -5
BITMAP
0000
0000
0000
30c0
30c0
0000
0000
1e00
0600
0600
0600
0600
0600
0600
0600
0600
1f80
0000
0000
0000
0000
0000
ENDCHAR
STARTCHAR U03cb
ENCODING 971
SWIDTH 500 0
DWIDTH 12 0
BBX 12 22 0 -5
BITMAP
0000
0000
0000
30c0
30c0
0000
0000
79e0
30c0
30c0
30c0
30c0
30c0
30c0
30c0
3880
0f00
0000
0000
0000
0000
0000
ENDCHAR
STARTCHAR U03cc
ENCODING 972
SWIDTH 500 0
DWIDTH 12 0
BBX 12 22 0 -5
BITMAP
0000
0000
0200
0600
0600
0400
0000
0f80
11c0
20e0
6060
6060
6060
6060
7040
3880
1f00
0000
0000
0000
0000
0000
ENDCHAR
STARTCHAR U03cd
ENCODING 973
SWIDTH 500 0
DWIDTH 12 0
BBX 12 22 0 -5
BITMAP
0000
0000
0200
0600
0600
0400
0000
79e0
30c0
30c0
30c0
30c0
30c0
30c0
30c0
3880
0f00
0000
0000
0000
0000
0000
ENDCHAR
STARTCHAR U03ce
ENCODING 974
SWIDTH 500 0
DWIDTH 12 0
BBX 12 22 0 -5
BITMAP
0000
0000
0200
0600
0600
0400
0000
6060
c030
c630
c630
c630
c630
c630
6620
7fc0
1980
0000
0000
0000
0000
0000
ENDCHAR
STARTCHAR U03cf
ENCODING 975
SWIDTH 500 0
DWIDTH 12 0
BBX 12 22 0 -5
BITMAP
0000
0000
0000
f0e0
6180
6300
6600
6c00
7800
7800
7c00
6e00
6700
6380
61c0
60e0
f070
00c0
0180
0b00
0600
0200
ENDCHAR
STARTCHAR U03d0
ENCODING 976
SWIDTH 500 0
DWIDTH 12 0
BBX 12 22 0 -5
BITMAP
0000
0380
0c40
1020
2040
ff80
2000
4f80
51c0
60e0
6060
6060
6060
6060
7040
3880
1f00
0000
0000
0000
0000
0000
ENDCHAR
STARTCHAR U03d1
ENCODING 977
SWIDTH 500 0
DWIDTH 12 0
BBX 12 22 0 -5
BITMAP
0000
0000
1e00
2300
4180
6180
60c0
30c0
0ff0
0060
6060
b060
b060
3060
3840
1c80
0f00
0000
0000
0000
0000
0000
ENDCHAR
STARTCHAR U03d2
ENCODING 978
SWIDTH 500 0
DWIDTH 12 0
BBX 12 22 0 -5
BITMAP
0000
0000
0000
6030
d050
d890
1880
1880
1880
0d00
0d00
0600
0600
0600
0600
0600
0f00
0000
0000
0000
0000
0000
ENDCHAR
STARTCHAR U03d3
ENCODING 979
SWIDTH 500 0
DWIDTH 12 0
BBX 12 22 0 -5
BITMAP
0180
0300
0600
6030
d050
d890
1880
1880
1880
0d00
0d00
0600
0600
0600
0600
0600
0f00
0000
0000
0000
0000
0000
ENDCHAR
STARTCHAR U03d4
ENCODING 980
SWIDTH 500 0
DWIDTH 12 0
BBX 12 22 0 -5
BITMAP
1980
1980
0000
6030
d050
d890
1880
1880
1880
0d00
0d00
0600
0600
0600
0600
0600
0f00
0000
0000
0000
0000
0000
ENDCHAR
STARTCHAR U03d5
ENCODING 981
SWIDTH 500 0
DWIDTH 12 0
BBX 12 22 0 -5
BITMAP
0000
0000
0600
0600
0600
0f80
17c0
26e0
6660
6660
6660
6660
6660
6660
7640
3e80
1f00
0600
0600
0600
0000
0000
ENDCHAR
STARTCHAR U03d6
ENCODING 982
SWIDTH 500 0
DWIDTH 12 0
BBX 12 22 0 -5
BITMAP
0000
0000
0000
0000
0000
0070
3fc0
e060
4030
c630
c630
c630
c630
c630
6620
7fc0
1980
0000
0000
0000
0000
0000
ENDCHAR
STARTCHAR U03d7
ENCODING 983
SWIDTH 500 0
DWIDTH 12 0
BBX 12 22 0 -5
BITMAP
0000
0000
0000
0000
0000
0000
0000
6040
b0e0
b1c0
3380
3780
2680
2c80
78c0
70e0
6060
0040
0180
1e00
0000
0000
ENDCHAR
STARTCHAR U03d8
ENCODING 984
SWIDTH 500 0
DWIDTH 12 0
BBX 12 22 0 -5
BITMAP
0000
0000
0000
0f00
11c0
20c0
2060
6060
6060
6060
6060
2040
3040
1880
0600
0600
3fc0
0000
0000
0000
0000
0000
ENDCHAR
STARTCHAR U03d9
ENCODING 985
SWIDTH 500 0
DWIDTH 12 0
BBX 12 22 0 -5
BITMAP
0000
0000
0000
0000
0000
0000
0000
0f80
11c0
20e0
6060
6060
6060
6060
7040
3880
1f00
0600
0600
0600
0000
0000
ENDCHAR
STARTCHAR U03da
ENCODING 986
SWIDTH 500 0
DWIDTH 12 0
BBX 12 22 0 -5
BITMAP
0000
0000
0000
0f00
11c0
20c0
2060
6000
6000
6000
6000
2000
3000
1800
0600
0600
3fc0
0000
0000
0000
0000
0000
ENDCHAR
STARTCHAR U03db
ENCODING 987
SWIDTH 500 0
DWIDTH 12 0
BBX 12 22 0 -5
BITMAP
0000
0000
0000
0000
0000
0020
00e0
0fc0
1000
2000
6000
6000
6000
6000
7800
3f00
0f80
0180
00c0
0180
0700
0000
ENDCHAR
STARTCHAR U03dc
ENCODING 988
SWIDTH 500 0
DWIDTH 12 0
BBX 12 22 0 -5
BITMAP
0000
0000
0000
7fc0
3040
3040
3000
3000
3080
3f80
3080
3000
3000
3000
3000
3000
7800
0000
0000
0000
0000
0000
ENDCHAR
STARTCHAR U03dd
ENCODING 989
SWIDTH 500 0
DWIDTH 12 0
BBX 12 22 0 -5
BITMAP
0000
0000
0000
0000
0000
0040
1f80
3000
3000
3000
3000
3000
3f80
3000
3000
3000
3000
3000
3000
3000
0000
0000
ENDCHAR
STARTCHAR U03de
ENCODING 990
SWIDTH 500 0
DWIDTH 12 0
BBX 12 22 0 -5
BITMAP
0000
0000
0000
3c00
1800
1800
1800
3000
3000
3fc0
00c0
00c0
00c0
0180
0180
0180
03c0
0000
0000
0000
0000
0000
ENDCHAR
STARTCHAR U03df
ENCODING 991
SWIDTH 500 0
DWIDTH 12 0
BBX 12 22 0 -5
BITMAP
0000
0000
0000
0000
2000
5000
5800
1800
1860
31e0
3640
78c0
60c0
0180
0180
01a0
00a0
0040
0000
0000
0000
0000
ENDCHAR
STARTCHAR U03e0
ENCODING 992
SWIDTH 500 0
DWIDTH 12 0
BBX 12 22 0 -5
BITMAP
0000
0000
0000
0f00
11c0
20c0
2060
0060
01e0
0660
1860
01e0
0660
0040
0040
0080
0700
0000
0000
0000
0000
0000
ENDCHAR
STARTCHAR U03e1
ENCODING 993
SWIDTH 500 0
DWIDTH 12 0
BBX 12 22 0 -5
BITMAP
0000
0000
0000
0f00
01c0
00c0
0060
0060
01e0
0660
1860
01e0
0660
0040
0040
0080
0100
0000
0000
0000
0000
0000
ENDCHAR
STARTCHAR U03e2
ENCODING 994
SWIDTH 500 0
DWIDTH 12 0
BBX 12 22 0 -5
BITMAP
0000
0000
0000
36c0
6660
6660
c630
c630
c630
c630
c630
c630
c630
c630
c630
6620
7fc0
0180
0600
1800
0000
0000
ENDCHAR
STARTCHAR U03e3
ENCODING 995
SWIDTH 500 0
DWIDTH 12 0
BBX 12 22 0 -5
BITMAP
0000
0000
0000
0000
0000
0000
36c0
6660
6660
c630
c630
c630
c630
c630
c630
6620
7fc0
0180
0600
1800
0000
0000
ENDCHAR
STARTCHAR U03e4
ENCODING 996
SWIDTH 500 0
DWIDTH 12 0
BBX 12 22 0 -5
BITMAP
0000
0000
0000
08e0
1060
2060
6060
6060
6060
6060
6060
6060
7060
38e0
1f60
0060
0060
0060
0060
0060
0060
00f0
ENDCHAR
STARTCHAR U03e5
ENCODING 997
SWIDTH 500 0
DWIDTH 12 0
BBX 12 22 0 -5
BITMAP
0000
0000
0000
0000
0000
0000
0000
08e0
1060
2060
6060
6060
6060
6060
7060
38e0
1f60
0060
0060
0060
0060
00f0
ENDCHAR
STARTCHAR U03e6
ENCODING 998
SWIDTH 500 0
DWIDTH 12 0
BBX 12 22 0 -5
BITMAP
0000
0000
0000
e000
6000
6000
6000
6780
6fc0
70e0
6060
6060
6060
6060
6060
60c0
70c0
0180
0300
3e00
0000
0000
ENDCHAR
STARTCHAR U03e7
ENCODING 999
SWIDTH 500 0
DWIDTH 12 0
BBX 12 22 0 -5
BITMAP
0000
0000
0000
0000
0000
0000
e000
6000
6000
6780
6fc0
70e0
6060
6060
6060
60c0
70c0
0180
0300
3e00
0000
0000
ENDCHAR
STARTCHAR U03e8
ENCODING 1000
SWIDTH 500 0
DWIDTH 12 0
BBX 12 22 0 -5
BITMAP
0000
0000
1f80
31c0
60e0
20e0
01c0
0380
0700
1c00
3800
3000
7000
7000
7000
7000
7000
3020
3060
18c0
0f80
0000
ENDCHAR
STARTCHAR U03e9
ENCODING 1001
SWIDTH 500 0
DWIDTH 12 0
BBX 12 22 0 -5
BITMAP
0000
0000
0000
0000
0000
0000
1f80
31c0
60e0
21c0
0380
0700
1c00
3800
3000
7000
7000
3020
3060
18c0
0f80
0000
ENDCHAR
STARTCHAR U03ea
ENCODING 1002
SWIDTH 500 0
DWIDTH 12 0
BBX 12 22 0 -5
BITMAP
0000
1840
0c80
0d00
0700
0700
0b00
0980
1180
1180
10c0
20c0
20c0
4060
4060
4060
fff0
0000
0000
0000
0000
0000
ENDCHAR
STARTCHAR U03eb
ENCODING 1003
SWIDTH 500 0
DWIDTH 12 0
BBX 12 22 0 -5
BITMAP
0000
0000
0000
0000
0000
1840
0c80
0d00
0700
0b00
0980
1180
10c0
20c0
4060
4060
fff0
0000
0000
0000
0000
0000
ENDCHAR
STARTCHAR U03ec
ENCODING 1004
SWIDTH 500 0
DWIDTH 12 0
BBX 12 22 0 -5
BITMAP
0000
0000
0000
01e0
0e00
1800
3000
2700
5880
7040
6060
6060
6060
6060
20e0
11c0
0f80
0000
0000
0000
0000
0000
ENDCHAR
STARTCHAR U03ed
ENCODING 1005
SWIDTH 500 0
DWIDTH 12 0
BBX 12 22 0 -5
BITMAP
0000
0000
0000
0000
0000
01e0
0e00
1800
3000
2700
5880
7040
6060
6060
20e0
11c0
0f80
0000
0000
0000
0000
0000
ENDCHAR
STARTCHAR U03ee
ENCODING 1006
SWIDTH 500 0
DWIDTH 12 0
BBX 12 22 0 -5
BITMAP
0000
0000
0f00
0600
0600
0600
7fe0
7fe0
4620
4620
0600
0600
0600
0600
0600
0600
0600
0600
0600
0f00
0000
0000
ENDCHAR
STARTCHAR U03ef
ENCODING 1007
SWIDTH 500 0
DWIDTH 12 0
BBX 12 22 0 -5
BITMAP
0000
0000
0000
0000
0000
0f00
0600
0600
7fe0
7fe0
4620
4620
0600
0600
0600
0600
0600
0600
0f00
0000
0000
0000
ENDCHAR
STARTCHAR U03f0
ENCODING 1008
SWIDTH 500 0
DWIDTH 12 0
BBX 12 22 0 -5
BITMAP
0000
0000
0000
0000
0000
0000
0000
6040
b0e0
b1c0
3380
3380
2680
2c80
78a0
70e0
6060
0000
0000
0000
0000
0000
ENDCHAR
STARTCHAR U03f1
ENCODING 1009
SWIDTH 500 0
DWIDTH 12 0
BBX 12 22 0 -5
BITMAP
0000
0000
0000
0000
0000
0000
0000
0f80
11c0
20e0
6060
6060
6060
6060
7040
5880
2700
3000
1800
0e00
01c0
0000
ENDCHAR
STARTCHAR U03f2
ENCODING 1010
SWIDTH 500 0
DWIDTH 12 0
BBX 12 22 0 -5
BITMAP
0000
0000
0000
0000
0000
0000
0000
1f80
30c0
2040
6000
6000
6000
6000
7000
30c0
1f80
0000
0000
0000
0000
0000
ENDCHAR
STARTCHAR U03f3
ENCODING 1011
SWIDTH 500 0
DWIDTH 12 0
BBX 12 22 0 -5
BITMAP
0000
0000
0000
00c0
00c0
0000
0000
03c0
00c0
00c0
00c0
00c0
00c0
00c0
00c0
00c0
00c0
20c0
30c0
3880
1f00
0e00
ENDCHAR
STARTCHAR U03f4
ENCODING 1012
SWIDTH 500 0
DWIDTH 12 0
BBX 12 22 0 -5
BITMAP
0000
0000
0000
0f80
11c0
20e0
6060
6060
6060
7fe0
6060
6060
6060
6060
7040
3880
1f00
0000
0000
0000
0000
0000
ENDCHAR
STARTCHAR U03f5
ENCODING 1013
SWIDTH 500 0
DWIDTH 12 0
BBX 12 22 0 -5
BITMAP
0000
0000
0000
0000
0000
0000
0000
1f80
3f80
6000
6000
7f00
7f00
6000
6000
3f80
1f00
0000
0000
0000
0000
0000
ENDCHAR
STARTCHAR U03f6
ENCODING 1014
SWIDTH 500 0
DWIDTH 12 0
BBX 12 22 0 -5
BITMAP
0000
0000
0000
0000
0000
0000
0000
3f00
3f80
00c0
00c0
1fc0
1fc0
00c0
00c0
3f80
3e00
0000
0000
0000
0000
0000
ENDCHAR
STARTCHAR U03f7
ENCODING 1015
SWIDTH 500 0
DWIDTH 12 0
BBX 12 22 0 -5
BITMAP
0000
0000
0000
7800
3000
3000
3f80
30c0
3060
3060
3060
3060
30c0
3780
3000
3000
7800
0000
0000
0000
0000
0000
ENDCHAR
STARTCHAR U03f8
ENCODING 1016
SWIDTH 500 0
DWIDTH 12 0
BBX 12 22 0 -5
BITMAP
0000
0000
0000
0000
0000
0000
0000
7800
3000
3000
3f80
30c0
3060
3060
3060
3060
38c0
3780
3000
3000
3000
7800
ENDCHAR
STARTCHAR U03f9
ENCODING 1017
SWIDTH 500 0
DWIDTH 12 0
BBX 12 22 0 -5
BITMAP
0000
0000
0000
0fc0
1060
2020
2000
6000
6000
6000
6000
6000
6000
2000
3020
1840
0f80
0000
0000
0000
0000
0000
ENDCHAR
STARTCHAR U03fa
ENCODING 1018
SWIDTH 500 0
DWIDTH 12 0
BBX 12 22 0 -5
BITMAP
0000
0000
0000
e070
6060
70e0
7960
4e60
4460
4060
4060
4060
4060
4060
4060
4060
e0f0
0000
0000
0000
0000
0000
ENDCHAR
STARTCHAR U03fb
ENCODING 1019
SWIDTH 500 0
DWIDTH 12 0
BBX 12 22 0 -5
BITMAP
0000
0000
0000
0000
0000
0000
0000
0000
c0e0
c0c0
e1c0
f2c0
9cc0
88c0
80c0
80c0
80d0
8050
8030
8000
8000
c000
ENDCHAR
STARTCHAR U03fc
ENCODING 1020
SWIDTH 500 0
DWIDTH 12 0
BBX 12 22 0 -5
BITMAP
0000
0000
0000
0000
0000
0000
0000
0f80
11c0
20e0
6060
6060
6060
6060
7040
7880
6700
6000
6000
ff00
6000
6000
ENDCHAR
STARTCHAR U03fd
ENCODING 1021
SWIDTH 500 0
DWIDTH 12 0
BBX 12 22 0 -5
BITMAP
0000
0000
0000
3f00
6080
4040
0040
0060
0060
0060
0060
0060
0060
0040
40c0
2180
1f00
0000
0000
0000
0000
0000
ENDCHAR
STARTCHAR U03fe
ENCODING 1022
SWIDTH 500 0
DWIDTH 12 0
BBX 12 22 0 -5
BITMAP
0000
0000
0000
0fc0
1060
2020
2000
6000
6000
6300
6300
6000
6000
2000
3020
1840
0f80
0000
0000
0000
0000
0000
ENDCHAR
STARTCHAR U03ff
ENCODING 1023
SWIDTH 500 0
DWIDTH 12 0
BBX 12 22 0 -5
BITMAP
0000
0000
0000
3f00
6080
4040
0040
0060
0060
0c60
0c60
0060
0060
0040
40c0
2180
1f00
0000
0000
0000
0000
0000
ENDCHAR
STARTCHAR U0400
ENCODING 1024
SWIDTH 500 0
DWIDTH 12 0
BBX 12 22 0 -5
BITMAP
1c00
0f00
0380
7fc0
3040
3040
3000
3000
3080
3f80
3080
3000
3000
3000
3020
3020
7fe0
0000
0000
0000
0000
0000
ENDCHAR
STARTCHAR U0401
ENCODING 1025
SWIDTH 500 0
DWIDTH 12 0
BBX 12 22 0 -5
BITMAP
1980
1980
0000
7fc0
3040
3040
3000
3000
3080
3f80
3080
3000
3000
3000
3020
3020
7fe0
0000
0000
0000
0000
0000
ENDCHAR
STARTCHAR U0402
ENCODING 1026
SWIDTH 500 0
DWIDTH 12 0
BBX 12 22 0 -5
BITMAP
0000
0000
0000
ffc0
8c40
0c00
0c00
0c00
0ce0
0f30
0c30
0c30
0c30
0c30
0c30
0db0
3ee0
0000
0000
0000
0000
0000
ENDCHAR
STARTCHAR U0403
ENCODING 1027
SWIDTH 500 0
DWIDTH 12 0
BBX 12 22 0 -5
BITMAP
0180
0300
0600
7fc0
3040
3040
3000
3000
3000
3000
3000
3000
3000
3000
3000
3000
7800
0000
0000
0000
0000
0000
ENDCHAR
STARTCHAR U0404
ENCODING 1028
SWIDTH 500 0
DWIDTH 12 0
BBX 12 22 0 -5
BITMAP
0000
0000
0000
0fc0
1060
2020
2000
6000
6100
7f00
6100
6000
6000
2000
3020
1840
0f80
0000
0000
0000
0000
0000
ENDCHAR
STARTCHAR U0405
ENCODING 1029
SWIDTH 500 0
DWIDTH 12 0
BBX 12 22 0 -5
BITMAP
0000
0000
0000
1fe0
3060
6020
6020
7000
3c00
1e00
0780
01c0
00e0
4060
4060
60c0
7f80
0000
0000
0000
0000
0000
ENDCHAR
STARTCHAR U0406
ENCODING 1030
SWIDTH 500 0
DWIDTH 12 0
BBX 12 22 0 -5
BITMAP
0000
0000
0000
1f80
0600
0600
0600
0600
0600
0600
0600
0600
0600
0600
0600
0600
1f80
0000
0000
0000
0000
0000
ENDCHAR
STARTCHAR U0407
ENCODING 1031
SWIDTH 500 0
DWIDTH 12 0
BBX 12 22 0 -5
BITMAP
1980
1980
0000
1f80
0600
0600
0600
0600
0600
0600
0600
0600
0600
0600
0600
0600
1f80
0000
0000
0000
0000
0000
ENDCHAR
STARTCHAR U0408
ENCODING 1032
SWIDTH 500 0
DWIDTH 12 0
BBX 12 22 0 -5
BITMAP
0000
0000
0000
1f80
0600
0600
0600
0600
0600
0600
0600
0600
0600
0600
0600
0600
0600
0600
0600
0400
3800
3000
ENDCHAR
STARTCHAR U0409
ENCODING 1033
SWIDTH 500 0
DWIDTH 12 0
BBX 12 22 0 -5
BITMAP
0000
0000
0000
ffc0
2300
2300
2300
2300
2300
23e0
2330
2330
2330
2330
a330
a330
c7e0
0000
0000
0000
0000
0000
ENDCHAR
STARTCHAR U040a
ENCODING 1034
SWIDTH 500 0
DWIDTH 12 0
BBX 12 22 0 -5
BITMAP
0000
0000
0000
f780
6300
6300
6300
6300
6300
7fe0
6330
6330
6330
6330
6330
6330
f7e0
0000
0000
0000
0000
0000
ENDCHAR
STARTCHAR U040b
ENCODING 1035
SWIDTH 500 0
DWIDTH 12 0
BBX 12 22 0 -5
BITMAP
0000
0000
0000
ffc0
8c40
0c00
0c00
0c00
0ce0
0f30
0e30
0c30
0c30
0c30
0c30
0c30
1e70
0000
0000
0000
0000
0000
ENDCHAR
STARTCHAR U040c
ENCODING 1036
SWIDTH 500 0
DWIDTH 12 0
BBX 12 22 0 -5
BITMAP
0180
0300
0600
f0e0
6180
6300
6600
6c00
7800
7800
7c00
6e00
6700
6380
61c0
60e0
f070
0000
0000
0000
0000
0000
ENDCHAR
STARTCHAR U040d
ENCODING 1037
SWIDTH 500 0
DWIDTH 12 0
BBX 12 22 0 -5
BITMAP
3800
1e00
0700
f0f0
6060
6060
6060
60e0
6160
6260
6460
6860
7060
6060
6060
6060
f0f0
0000
0000
0000
0000
0000
ENDCHAR
STARTCHAR U040e
ENCODING 1038
SWIDTH 500 0
DWIDTH 12 0
BBX 12 22 0 -5
BITMAP
6060
30c0
0f00
f070
6020
3040
3040
1880
1880
0d00
0d00
0600
0600
0400
0c00
0800
7800
7000
0000
0000
0000
0000
ENDCHAR
STARTCHAR U040f
ENCODING 1039
SWIDTH 500 0
DWIDTH 12 0
BBX 12 22 0 -5
BITMAP
0000
0000
0000
f0f0
6060
6060
6060
6060
6060
6060
6060
6060
6060
6060
6060
6060
fff0
0f00
0600
0000
0000
0000
ENDCHAR
STARTCHAR U0410
ENCODING 1040
SWIDTH 500 0
DWIDTH 12 0
BBX 12 22 0 -5
BITMAP
0000
0000
0000
0600
0600
0b00
0b00
0900
1180
1180
1080
3fc0
20c0
2040
4060
4060
e0f0
0000
0000
0000
0000
0000
ENDCHAR
STARTCHAR U0411
ENCODING 1041
SWIDTH 500 0
DWIDTH 12 0
BBX 12 22 0 -5
BITMAP
0000
0000
0000
ffc0
6040
6040
6000
6000
6000
7f80
60c0
6060
6060
6060
6060
60c0
ff80
0000
0000
0000
0000
0000
ENDCHAR
STARTCHAR U0412
ENCODING 1042
SWIDTH 500 0
DWIDTH 12 0
BBX 12 22 0 -5
BITMAP
0000
0000
0000
ff00
6080
60c0
60c0
60c0
6180
7f80
60c0
6060
6060
6060
6060
60c0
ff80
0000
0000
0000
0000
0000
ENDCHAR
STARTCHAR U0413
ENCODING 1043
SWIDTH 500 0
DWIDTH 12 0
BBX 12 22 0 -5
BITMAP
0000
0000
0000
7fc0
3040
3040
3000
3000
3000
3000
3000
3000
3000
3000
3000
3000
7800
0000
0000
0000
0000
0000
ENDCHAR
STARTCHAR U0414
ENCODING 1044
SWIDTH 500 0
DWIDTH 12 0
BBX 12 22 0 -5
BITMAP
0000
0000
0000
7ff0
20c0
20c0
20c0
20c0
20c0
20c0
20c0
20c0
40c0
40c0
40c0
40c0
fff0
c030
c030
8010
0000
0000
ENDCHAR
STARTCHAR U0415
ENCODING 1045
SWIDTH 500 0
DWIDTH 12 0
BBX 12 22 0 -5
BITMAP
0000
0000
0000
7fc0
3040
3040
3000
3000
3080
3f80
3080
3000
3000
3000
3020
3020
7fe0
0000
0000
0000
0000
0000
ENDCHAR
STARTCHAR U0416
ENCODING 1046
SWIDTH 500 0
DWIDTH 12 0
BBX 12 22 0 -5
BITMAP
0000
0000
0000
ef30
c610
6620
6640
3680
1f00
0e00
0700
0ec0
16c0
2660
4660
8630
cf70
0000
0000
0000
0000
0000
ENDCHAR
STARTCHAR U0417
ENCODING 1047
SWIDTH 500 0
DWIDTH 12 0
BBX 12 22 0 -5
BITMAP
0000
0000
4f80
7fc0
60e0
4060
0060
00e0
07c0
0fc0
00e0
0060
0060
4060
6040
3f80
1f00
0000
0000
0000
0000
0000
ENDCHAR
STARTCHAR U0418
ENCODING 1048
SWIDTH 500 0
DWIDTH 12 0
BBX 12 22 0 -5
BITMAP
0000
0000
0000
f0f0
6060
6060
6060
60e0
6160
6260
6460
6860
7060
6060
6060
6060
f0f0
0000
0000
0000
0000
0000
ENDCHAR
STARTCHAR U0419
ENCODING 1049
SWIDTH 500 0
DWIDTH 12 0
BBX 12 22 0 -5
BITMAP
6060
30c0
0f00
f0f0
6060
6060
6060
60e0
6160
6260
6460
6860
7060
6060
6060
6060
f0f0
0000
0000
0000
0000
0000
ENDCHAR
STARTCHAR U041a
ENCODING 1050
SWIDTH 500 0
DWIDTH 12 0
BBX 12 22 0 -5
BITMAP
0000
0000
0000
f0e0
6180
6300
6600
6c00
7800
7800
7c00
6e00
6700
6380
61c0
60e0
f070
0000
0000
0000
0000
0000
ENDCHAR
STARTCHAR U041b
ENCODING 1051
SWIDTH 500 0
DWIDTH 12 0
BBX 12 22 0 -5
BITMAP
0000
0000
0000
3fe0
10c0
10c0
10c0
10c0
10c0
10c0
20c0
20c0
20c0
a0c0
e0c0
e0c0
c1e0
0000
0000
0000
0000
0000
ENDCHAR
STARTCHAR U041c
ENCODING 1052
SWIDTH 500 0
DWIDTH 12 0
BBX 12 22 0 -5
BITMAP
0000
0000
0000
e070
60e0
70e0
70e0
70e0
5960
5960
5960
4d60
4e60
4e60
4460
4460
e4f0
0000
0000
0000
0000
0000
ENDCHAR
STARTCHAR U041d
ENCODING 1053
SWIDTH 500 0
DWIDTH 12 0
BBX 12 22 0 -5
BITMAP
0000
0000
0000
f0f0
6060
6060
6060
6060
6060
7fe0
6060
6060
6060
6060
6060
6060
f0f0
0000
0000
0000
0000
0000
ENDCHAR
STARTCHAR U041e
ENCODING 1054
SWIDTH 500 0
DWIDTH 12 0
BBX 12 22 0 -5
BITMAP
0000
0000
0000
0f00
11c0
20c0
2060
6060
6060
6060
6060
6060
6060
2040
3040
1880
0f00
0000
0000
0000
0000
0000
ENDCHAR
STARTCHAR U041f
ENCODING 1055
SWIDTH 500 0
DWIDTH 12 0
BBX 12 22 0 -5
BITMAP
0000
0000
0000
fff0
6060
6060
6060
6060
6060
6060
6060
6060
6060
6060
6060
6060
f0f0
0000
0000
0000
0000
0000
ENDCHAR
STARTCHAR U0420
ENCODING 1056
SWIDTH 500 0
DWIDTH 12 0
BBX 12 22 0 -5
BITMAP
0000
0000
0000
7f80
30c0
3060
3060
3060
30c0
3780
3000
3000
3000
3000
3000
3000
7800
0000
0000
0000
0000
0000
ENDCHAR
STARTCHAR U0421
ENCODING 1057
SWIDTH 500 0
DWIDTH 12 0
BBX 12 22 0 -5
BITMAP
0000
0000
0000
0fc0
1060
2020
2000
6000
6000
6000
6000
6000
6000
2000
3020
1840
0f80
0000
0000
0000
0000
0000
ENDCHAR
STARTCHAR U0422
ENCODING 1058
SWIDTH 500 0
DWIDTH 12 0
BBX 12 22 0 -5
BITMAP
0000
0000
0000
7fe0
4620
0600
0600
0600
0600
0600
0600
0600
0600
0600
0600
0600
1f80
0000
0000
0000
0000
0000
ENDCHAR
STARTCHAR U0423
ENCODING 1059
SWIDTH 500 0
DWIDTH 12 0
BBX 12 22 0 -5
BITMAP
0000
0000
0000
f070
6020
3040
3040
1880
1880
0d00
0d00
0600
0600
0400
0c00
0800
7800
7000
0000
0000
0000
0000
ENDCHAR
STARTCHAR U0424
ENCODING 1060
SWIDTH 500 0
DWIDTH 12 0
BBX 12 22 0 -5
BITMAP
0000
0000
0000
1f80
0600
0f80
17c0
26e0
6660
6660
6660
6660
7640
3e80
1f00
0600
1f80
0000
0000
0000
0000
0000
ENDCHAR
STARTCHAR U0425
ENCODING 1061
SWIDTH 500 0
DWIDTH 12 0
BBX 12 22 0 -5
BITMAP
0000
0000
0000
f070
6020
3040
3880
1880
0d00
0600
0600
0b00
1180
11c0
20c0
4060
e0f0
0000
0000
0000
0000
0000
ENDCHAR
STARTCHAR U0426
ENCODING 1062
SWIDTH 500 0
DWIDTH 12 0
BBX 12 22 0 -5
BITMAP
0000
0000
0000
f1e0
60c0
60c0
60c0
60c0
60c0
60c0
60c0
60c0
60c0
60c0
60c0
60c0
fff0
0030
0030
0010
0000
0000
ENDCHAR
STARTCHAR U0427
ENCODING 1063
SWIDTH 500 0
DWIDTH 12 0
BBX 12 22 0 -5
BITMAP
0000
0000
0000
79e0
30c0
30c0
30c0
30c0
30c0
30c0
39c0
1ec0
00c0
00c0
00c0
00c0
01e0
0000
0000
0000
0000
0000
ENDCHAR
STARTCHAR U0428
ENCODING 1064
SWIDTH 500 0
DWIDTH 12 0
BBX 12 22 0 -5
BITMAP
0000
0000
0000
f6f0
6660
6660
6660
6660
6660
6660
6660
6660
6660
6660
6660
6660
fff0
0000
0000
0000
0000
0000
ENDCHAR
STARTCHAR U0429
ENCODING 1065
SWIDTH 500 0
DWIDTH 12 0
BBX 12 22 0 -5
BITMAP
0000
0000
0000
f6f0
6660
6660
6660
6660
6660
6660
6660
6660
6660
6660
6660
6660
fff0
0030
0030
0010
0000
0000
ENDCHAR
STARTCHAR U042a
ENCODING 1066
SWIDTH 500 0
DWIDTH 12 0
BBX 12 22 0 -5
BITMAP
0000
0000
0000
fc00
9800
9800
1800
1800
1800
1f80
1fc0
18e0
1860
1860
1860
18c0
1f80
0000
0000
0000
0000
0000
ENDCHAR
STARTCHAR U042b
ENCODING 1067
SWIDTH 500 0
DWIDTH 12 0
BBX 12 22 0 -5
BITMAP
0000
0000
0000
e0f0
c060
c060
c060
c060
fc60
fe60
c760
c360
c360
c360
c360
c660
fcf0
0000
0000
0000
0000
0000
ENDCHAR
STARTCHAR U042c
ENCODING 1068
SWIDTH 500 0
DWIDTH 12 0
BBX 12 22 0 -5
BITMAP
0000
0000
0000
7800
3000
3000
3000
3000
3f00
3f80
31c0
30c0
30c0
30c0
30c0
3180
7f00
0000
0000
0000
0000
0000
ENDCHAR
STARTCHAR U042d
ENCODING 1069
SWIDTH 500 0
DWIDTH 12 0
BBX 12 22 0 -5
BITMAP
0000
0000
0000
3f00
6080
4040
0040
0060
0860
0fe0
0860
0060
0060
0040
40c0
2180
1f00
0000
0000
0000
0000
0000
ENDCHAR
ENDFONT
